<?xml version="1.0" encoding="utf-8"?>
<!-- Generator: Adobe Illustrator 24.1.1, SVG Export Plug-In . SVG Version: 6.00 Build 0)  -->
<svg version="1.1" id="Layer_1" xmlns="http://www.w3.org/2000/svg" xmlns:xlink="http://www.w3.org/1999/xlink" x="0px" y="0px"
	 viewBox="0 0 769.57 91.43" style="enable-background:new 0 0 769.57 91.43;" xml:space="preserve">
<style type="text/css">
	.st0{fill:none;stroke:#999999;stroke-linecap:round;stroke-linejoin:round;stroke-miterlimit:10;}
	.st1{fill:none;stroke:#999999;stroke-width:2;stroke-linejoin:round;stroke-miterlimit:10;}
	.st2{fill:none;stroke:#555555;stroke-miterlimit:10;}
	.st3{fill:#555555;}
	.st4{fill:#FFFFFF;}
	.st5{fill:none;stroke:#000000;stroke-miterlimit:10;}
	.st6{fill:#ACACAC;stroke:#FFFFFF;stroke-miterlimit:10;}
	.st7{fill:#EAEAEA;stroke:#FFFFFF;stroke-miterlimit:10;}
	.st8{font-family:'ArialMT';}
	.st9{font-size:12px;}
	.st10{fill:#787878;}
	.st11{fill:#999999;}
	.st12{fill:none;stroke:#999999;}
</style>
<line class="st0" x1="5.91" y1="36.35" x2="73.66" y2="36.35"/>
<line class="st0" x1="5.91" y1="48.53" x2="73.66" y2="48.53"/>
<line class="st1" x1="5.91" y1="24.17" x2="73.66" y2="24.17"/>
<line class="st1" x1="26.68" y1="11.99" x2="26.68" y2="60.71"/>
<line class="st1" x1="54" y1="11.99" x2="54" y2="60.71"/>
<g>
	<g>
		<line class="st2" x1="217.69" y1="48.5" x2="319.08" y2="48.5"/>
		<g>
			<polygon class="st3" points="317.1,51.4 327.94,48.5 317.1,45.59 			"/>
		</g>
	</g>
</g>
<g>
	<g>
		<line class="st2" x1="93.63" y1="48.59" x2="106.56" y2="48.59"/>
		<g>
			<polygon class="st3" points="104.57,51.49 115.41,48.59 104.57,45.68 			"/>
		</g>
	</g>
</g>
<g>
	<g>
		<line class="st2" x1="654.4" y1="48.5" x2="667.32" y2="48.5"/>
		<g>
			<polygon class="st3" points="656.38,51.4 645.54,48.5 656.38,45.59 			"/>
		</g>
	</g>
</g>
<rect x="242.94" y="35.22" class="st4" width="54.54" height="26.11"/>
<g>
	<text transform="matrix(1 0 0 1 277.4183 -288.7222)"><tspan x="0" y="0" class="st9" style="font-family:'ArialRoundedMTBold';">Geographic </tspan><tspan x="44.51" y="14.4" class="st9" style="font-family:'ArialRoundedMTBold';">Data</tspan></text>
	<text transform="matrix(1 0 0 1 562.1691 -288.7222)"><tspan x="0" y="0" class="st9" style="font-family:'ArialRoundedMTBold';">Map-Like </tspan><tspan x="0" y="14.4" class="st9" style="font-family:'ArialRoundedMTBold';">Visualization</tspan></text>
	<text transform="matrix(1 0 0 1 356.3288 -292.9052)" class="st9" style="font-family:'ArialRoundedMTBold';">Map Creation</text>
	<text transform="matrix(1 0 0 1 439.7702 -279.1183)" class="st9" style="font-family:'ArialRoundedMTBold';">Map</text>
	<text transform="matrix(1 0 0 1 462.1 -292.9052)" class="st9" style="font-family:'ArialRoundedMTBold';">Schematization</text>
	<g>
		<g>
			<line class="st5" x1="358.32" y1="-283.3" x2="423.5" y2="-283.3"/>
			<g>
				<polygon points="421.52,-280.4 432.36,-283.3 421.52,-286.21 				"/>
			</g>
		</g>
	</g>
	<g>
		<g>
			<line class="st5" x1="470.15" y1="-283.3" x2="535.33" y2="-283.3"/>
			<g>
				<polygon points="533.35,-280.4 544.19,-283.3 533.35,-286.21 				"/>
			</g>
		</g>
	</g>
</g>
<text transform="matrix(1 0 0 1 702.2979 -73.557)"><tspan x="0" y="0" class="st9" style="font-family:'ArialRoundedMTBold';">Geographic </tspan><tspan x="0" y="14.4" class="st9" style="font-family:'ArialRoundedMTBold';">Data</tspan></text>
<text transform="matrix(1 0 0 1 609.0317 -79.8416)" class="st9" style="font-family:'ArialRoundedMTBold';">Map Creation</text>
<text transform="matrix(1 0 0 1 570.6017 -66.1186)" class="st9" style="font-family:'ArialRoundedMTBold';">Map</text>
<text transform="matrix(1 0 0 1 469.2708 -79.8414)" class="st9" style="font-family:'ArialRoundedMTBold';">Schematization</text>
<g>
	<g>
		<line class="st5" x1="612.52" y1="-70.24" x2="692.43" y2="-70.24"/>
		<g>
			<polygon points="614.5,-67.33 603.66,-70.24 614.5,-73.14 			"/>
		</g>
	</g>
</g>
<g>
	<g>
		<line class="st5" x1="475.37" y1="-70.24" x2="562.17" y2="-70.24"/>
		<g>
			<polygon points="477.35,-67.33 466.51,-70.24 477.35,-73.14 			"/>
		</g>
	</g>
</g>
<g>
	<text transform="matrix(1 0 0 1 298.6703 -184.0413)"><tspan x="0" y="0" class="st9" style="font-family:'ArialRoundedMTBold';">Abstract</tspan><tspan x="23.26" y="14.4" class="st9" style="font-family:'ArialRoundedMTBold';">Data</tspan></text>
	<text transform="matrix(1 0 0 1 562.1691 -184.0413)"><tspan x="0" y="0" class="st9" style="font-family:'ArialRoundedMTBold';">Map-Like </tspan><tspan x="0" y="14.4" class="st9" style="font-family:'ArialRoundedMTBold';">Visualization</tspan></text>
	<text transform="matrix(1 0 0 1 359.7624 -188.2246)" class="st9" style="font-family:'ArialRoundedMTBold';">Viz Creation</text>
	<text transform="matrix(1 0 0 1 443.2038 -174.4377)" class="st9" style="font-family:'ArialRoundedMTBold';">Viz</text>
	<text transform="matrix(1 0 0 1 481.6703 -188.2246)" class="st9" style="font-family:'ArialRoundedMTBold';">Imitation</text>
	<g>
		<g>
			<line class="st5" x1="358.32" y1="-178.62" x2="423.5" y2="-178.62"/>
			<g>
				<polygon points="421.52,-175.72 432.36,-178.62 421.52,-181.53 				"/>
			</g>
		</g>
	</g>
	<g>
		<g>
			<line class="st5" x1="470.15" y1="-178.62" x2="535.33" y2="-178.62"/>
			<g>
				<polygon points="533.35,-175.72 544.19,-178.62 533.35,-181.53 				"/>
			</g>
		</g>
	</g>
</g>
<text transform="matrix(1 0 0 1 126.4365 -75.6584)"><tspan x="0" y="0" class="st9" style="font-family:'ArialRoundedMTBold';">Abstract</tspan><tspan x="23.26" y="14.4" class="st9" style="font-family:'ArialRoundedMTBold';">Data</tspan></text>
<text transform="matrix(1 0 0 1 393.1358 -74.3312)"><tspan x="0" y="0" class="st9" style="font-family:'ArialRoundedMTBold';">Map-Like </tspan><tspan x="-9.07" y="14.4" class="st9" style="font-family:'ArialRoundedMTBold';">Visualization</tspan></text>
<text transform="matrix(1 0 0 1 187.5286 -79.8416)" class="st9" style="font-family:'ArialRoundedMTBold';">Viz Creation</text>
<text transform="matrix(1 0 0 1 270.97 -66.0547)" class="st9" style="font-family:'ArialRoundedMTBold';">Viz</text>
<text transform="matrix(1 0 0 1 309.4365 -79.8416)" class="st9" style="font-family:'ArialRoundedMTBold';">Imitation</text>
<g>
	<g>
		<line class="st5" x1="182.81" y1="-70.24" x2="254.12" y2="-70.24"/>
		<g>
			<polygon points="252.14,-67.33 262.98,-70.24 252.14,-73.14 			"/>
		</g>
	</g>
</g>
<g>
	<g>
		<line class="st5" x1="297.92" y1="-70.24" x2="367.23" y2="-70.24"/>
		<g>
			<polygon points="365.24,-67.33 376.09,-70.24 365.24,-73.14 			"/>
		</g>
	</g>
</g>
<rect x="376.09" y="-87.85" class="st5" width="90.23" height="35.23"/>
<rect x="692.43" y="-87.85" class="st5" width="90.23" height="35.23"/>
<rect x="116.94" y="-90.18" class="st5" width="65.87" height="35.23"/>
<rect x="562.17" y="-81.05" class="st5" width="41.49" height="22.98"/>
<rect x="262.98" y="-81.05" class="st5" width="34.94" height="22.98"/>
<line class="st0" x1="5.91" y1="11.99" x2="5.91" y2="60.71"/>
<polygon class="st6" points="572.06,62.66 572.06,52.81 582.15,44.95 596.35,43.18 600.24,56.2 592.1,62.66 "/>
<polygon class="st7" points="633.9,62.66 592.1,62.66 600.24,56.2 596.48,43.62 605.11,42.09 604.51,34.16 607.87,25.91 
	610.73,28.5 620.88,30.78 628.72,35.25 631.26,34.67 633.9,35.66 "/>
<polygon class="st7" points="572.06,10.31 614.2,10.31 607.87,25.91 604.51,34.16 605.11,42.09 582.15,44.95 572.06,52.81 "/>
<polygon class="st6" points="633.9,35.66 631.26,34.67 628.72,35.25 620.88,30.78 610.73,28.5 607.87,25.91 614.2,10.31 
	633.9,10.31 "/>
<text transform="matrix(1 0 0 1 555.2889 87.215)" class="st8 st9">Cartographic Map</text>
<text transform="matrix(1 0 0 1 353.7654 46.6002)"><tspan x="0" y="0" class="st8 st9">Map-Like </tspan><tspan x="-7.34" y="14.4" class="st8 st9">Visualization</tspan></text>
<text transform="matrix(1 0 0 1 128.7695 87.2153)" class="st8 st9">Spatialized Data</text>
<text transform="matrix(1 0 0 1 672.2379 87.215)" class="st8 st9">Geospatial Data</text>
<text transform="matrix(1 0 0 1 2.826 87.215)" class="st8 st9">Abstract Data</text>
<line class="st0" x1="5.91" y1="60.71" x2="73.66" y2="60.71"/>
<line class="st0" x1="5.91" y1="11.99" x2="73.66" y2="11.99"/>
<line class="st0" x1="73.66" y1="11.99" x2="73.66" y2="60.71"/>
<g>
	<circle class="st10" cx="150.46" cy="20.37" r="2.26"/>
	<circle class="st10" cx="174.97" cy="12.2" r="2.26"/>
	<circle class="st10" cx="196.12" cy="51.35" r="2.26"/>
	<circle class="st10" cx="197.73" cy="67.99" r="2.26"/>
	<circle class="st10" cx="193.86" cy="35.18" r="2.26"/>
	<circle class="st10" cx="162.71" cy="54.54" r="2.26"/>
	<circle class="st10" cx="176.5" cy="39.13" r="2.26"/>
	<circle class="st10" cx="181.86" cy="59.9" r="2.26"/>
	<circle class="st10" cx="195.46" cy="40.3" r="2.26"/>
	<circle class="st10" cx="193.21" cy="24.13" r="2.26"/>
	<circle class="st10" cx="199.34" cy="46.38" r="2.26"/>
	<circle class="st10" cx="187.23" cy="35.42" r="2.26"/>
	<circle class="st10" cx="191.74" cy="38.32" r="2.26"/>
	<circle class="st10" cx="155.77" cy="61.77" r="2.26"/>
	<circle class="st10" cx="165.47" cy="46.84" r="2.26"/>
	<circle class="st10" cx="151.05" cy="59.22" r="2.26"/>
	<circle class="st10" cx="144.04" cy="57.56" r="2.26"/>
	<circle class="st10" cx="160.36" cy="56.97" r="2.26"/>
	<circle class="st10" cx="155.1" cy="58.04" r="2.26"/>
	<circle class="st10" cx="179.63" cy="27.37" r="2.26"/>
	<circle class="st10" cx="162.06" cy="43.49" r="2.26"/>
	<circle class="st10" cx="171.26" cy="38.78" r="2.26"/>
	<circle class="st10" cx="164.32" cy="46.01" r="2.26"/>
	<circle class="st10" cx="174.02" cy="31.08" r="2.26"/>
	<circle class="st10" cx="168.91" cy="41.21" r="2.26"/>
	<circle class="st10" cx="170.61" cy="27.73" r="2.26"/>
	<circle class="st10" cx="175.85" cy="28.08" r="2.26"/>
	<circle class="st10" cx="181.21" cy="48.85" r="2.26"/>
	<circle class="st10" cx="181.73" cy="54.15" r="2.26"/>
	<circle class="st10" cx="185.42" cy="43.41" r="2.26"/>
	<circle class="st10" cx="174.4" cy="44.43" r="2.26"/>
	<circle class="st10" cx="178.23" cy="58.06" r="2.26"/>
	<circle class="st10" cx="173.86" cy="51.14" r="2.26"/>
	<circle class="st10" cx="178.7" cy="61.41" r="2.26"/>
	<circle class="st10" cx="169.12" cy="51.76" r="2.26"/>
	<circle class="st10" cx="172.63" cy="47.85" r="2.26"/>
	<circle class="st10" cx="192.29" cy="56.43" r="2.26"/>
	<circle class="st10" cx="184.7" cy="34.36" r="2.26"/>
	<circle class="st10" cx="182.44" cy="18.19" r="2.26"/>
	<circle class="st10" cx="184.05" cy="23.31" r="2.26"/>
	<circle class="st10" cx="187.92" cy="29.39" r="2.26"/>
	<circle class="st10" cx="180.33" cy="21.33" r="2.26"/>
	<circle class="st10" cx="137.6" cy="8.35" r="2.26"/>
	<circle class="st10" cx="155.84" cy="20.27" r="2.26"/>
	<circle class="st10" cx="152.02" cy="27.64" r="2.26"/>
	<circle class="st10" cx="154.62" cy="32.35" r="2.26"/>
	<circle class="st10" cx="137.17" cy="35.23" r="2.26"/>
	<circle class="st10" cx="142.55" cy="35.13" r="2.26"/>
	<circle class="st10" cx="142.26" cy="23.51" r="2.26"/>
	<circle class="st10" cx="145.07" cy="14.34" r="2.26"/>
	<circle class="st10" cx="146.67" cy="19.46" r="2.26"/>
	<circle class="st10" cx="142.95" cy="17.48" r="2.26"/>
	<circle class="st10" cx="180.87" cy="39.44" r="2.26"/>
</g>
<path d="M705.03,60.65"/>
<circle cx="186.26" cy="-192.95" r="3.45"/>
<circle class="st3" cx="586.57" cy="27.45" r="2.09"/>
<circle class="st3" cx="617.77" cy="51.49" r="2.09"/>
<circle class="st3" cx="623.65" cy="21.19" r="2.09"/>
<circle class="st3" cx="585.3" cy="54.89" r="2.09"/>
<g transform="translate(-1.8-502.3)">
	<path id="hemisphere-lands" class="st11" d="M721.95,527.02c0.56,0.59,0.52,0.05,0.71-0.43c-0.44,0.59,0.85,1.28,1.13,1.87
		c1.26,1.71,2.84,3.47,3.38,5.72c0.99-0.26,2.94-0.79,3.38-1.78c1.38-0.14,2.97-2.93,0.92-3.38c-0.3-0.21-0.56-0.68-0.55-1.04
		c-0.27,0.94-1.72,1.61-1.66,0.18c-0.4-0.19-0.11,0.37-0.15,0.52c-0.15-0.18-0.52-0.58-0.43-0.83c-0.64-0.33-1.07-1.17-1.23-1.48
		c0.87-0.31,1.46,1.04,2.49,1.45c1.01-0.24,1.21,0.45,2.28,0.58c0.52,0.45,1.89-0.52,2.09,0.21c0.83,0.91,0.34-0.48,0-0.92
		c0.26,0.29,0.47,0.83,0.43,1.23c0.35,0.23,0.19,0.22,0.58,0.59c0.1-0.04,0.42-0.14,0.31,0.12c-0.57,0.11,0.85,1.62,0.74,0.12
		c0.34,1.41,3.29,9.71,2.89,4.52c-0.52-1.59,0.45-2.88,0.15-4.49c0.01,0.08,0.26,0.51,0.12,0.06c0.04,0.17,0.2,0.3,0.06,0
		c-0.01,0.12,0.12,0.21,0.06,0c0.12,0.25,0.01-0.11,0-0.15c0.14,0.45,0.12,0.17,0.03-0.09c0.31,0.28,1.1,1.48,1.44,3.04l0.63-0.14
		c-2.47-9.24-10.97-17.4-20.67-19.27c1.25,0.26,0.68,0.39,1.99,0.74c-0.49-0.03-0.41-0.11-0.5,0c-1.15-0.35,1.46,0.58,1.95,0.74
		c-0.22,0-0.66-0.31-0.86-0.24c0.4,0.18,1.05,0.64,0.19,0.4c0.66-0.21-3.06-1.56-1.81-0.77c0.36,0.23,0.89,0.21,1.2,0.49
		c-1.45-0.4-0.98-0.25-1.84,0c-0.33,0.14,0.55,0.61,0.74,0.49c-0.7,0.25-1-0.97-1.01-0.52c-0.7-0.19-0.18,0.56-0.95,0.15
		c0.42-0.1-0.95-0.5,0.15,0.28c-0.34-0.14-1.03-0.01-0.4,0.31c-0.54-0.01-1.12-0.41-0.49,0.15c-0.77-0.08-0.89-0.59-1.48-0.68
		c2.9,0.52,0.99-0.53-0.21-0.4c-0.17-0.15-0.39-0.06-0.89-0.31c-0.23,0.15-1.14,0.22-1.32,0.25c-0.16,0.18-1.56,0.72-1.17,0.8
		c-0.75,0.42-0.31,0.07-1.01,0.55c-0.37-0.11-1.56,0.55-0.34,0.28c0.17,0.23-0.87,0.04-0.49,0.15c-0.2-0.01-0.15,0.09,0.03,0.03
		c-0.01,0.06-0.3,0.06-0.12,0.15c0.06,0.03,0.13,0.02,0.43-0.09c0.03,0.11-0.82,0.14-0.46,0.31c0.58-0.22-0.23,0.09,0.21,0.03
		c-0.83,0.32,0.95,0.3,1.04-0.21c0.07,0.63,0.36,0.46,0.37,1.17c0.56,0.11,1.4-0.65,0.95-0.83c1.5-0.12-0.63-0.73,0.86-1.17
		c0.39-0.06,0.23-0.35,0.28-0.46c2.09-0.15-2.13,1.5,1.81,1.2c1.52,0.2-2.08,0.07-0.83,0.49c0.1,0.69-0.41,0.07-0.71,0.19
		c-0.32,0.22,0.18,0.79-0.25,0.71c0.39-0.46-0.25,0.08-0.12,0.09c0.19-0.05-3.21,0.54-2.86-0.28c0.13-0.08,0.66-0.23,0.18-0.28
		c0.49-0.53-0.17-0.11-0.37-0.13c-0.39,1.12,0.34,0.66-0.98,1.05c-0.77,0.22-0.36,0.55-1.48,0.74c-0.29,0.68-1.53,0.55-2.15,0.74
		c0.27,0.39,1.31,0.57,0.37,1.69c-1.35,0.02-2.55-0.4-2.79,1.2c-0.38,0.52-0.78,1.39,0.31,1.08c0.22,0.76,2.05,0.16,2.37-0.4
		c0.32-0.16,0.23-0.74,0.77-1.01c0.93-0.09,0.93-1.29,1.97-0.7c0.61-0.35,1.5-0.82,1.69,0.21c0.36,0.22,1.85,0.79,1.81,1.32
		c-0.41,0.71,0.08,0.03,0.37-0.09c-0.55-0.38,0.12-0.74,0.43-0.28c-0.39-0.56-1.44-0.94-2.09-1.57c-0.22-1.01,0.98-0.31,1.23,0.25
		c0.42,0.16,1.46,0.12,1.2,1.1c0.44,0.37,0.54,0.5,0.71,0.77c0.69-0.02,1.09,0.26,0.12,0.03c-0.21,0.62,0.52,0.51,0.74,0.71
		c-0.45-0.6,0.27-0.28-0.12-0.55c0.19-0.18,0.46,0.24,0.4-0.12c-0.41-0.05-0.78-0.47-0.31-0.37c0.03-0.08-0.55-0.55-0.21-0.55
		c0.95,0.57-0.08-0.14,0.8-0.12c0.82,0,0.27,0.51,0.86,0c0.96,0.17,0.16-0.4-0.15-0.52c0.52-0.26,0.19-0.9,0.61-0.86
		c0.31-1,0.36-0.51,1.2-0.43c-0.29,0.52,0.33,0.74,1.08,0.28c-0.24,0.07-0.54-0.09-0.68-0.28c0.02,0.11,0.59,0.4,0.13,0.28
		c-0.68-0.39,0.69-0.49,1.14-0.65c-0.17,0.42-0.68,0.03-0.06,0.4c-0.17-0.17-0.18,0.16-0.25,0.25c-0.91,0,1.03,0.56,1.01,0.65
		c2.01,0.88-0.74,1.27-1.51,0.49c-0.64-0.05-1.3,0.54-1.97,0.31c0.87,0.58-0.94-0.09-1.01,0.65c0.6-0.18,0.06,0.3,0.46,0.4
		c-0.2,0.12-0.28-0.22-0.34,0.06c0.26,0.03,0.65,0.32,0.46,0.49c0.4-0.02,0.47-0.06,0.06,0.12c0.66-0.14,0.97,0.37,1.41-0.09
		c0.64,0.53,1.21,0.11,1.84,0.03 M688.21,534.28c-0.01,0.08-0.15,0.53-0.11,0.54C688.12,534.66,688.19,534.43,688.21,534.28z
		 M688.1,534.81c-2.21,8.3,1.86,21.2,9.76,26.96c0.25,0.27,0.83,0.56,1.08,0.83c0.18,0.1,0.27,0.17,0.52,0.28
		c-0.2-0.19-0.99-0.58-0.72-0.47c-2.27-1.7-3.75-3.47-4.56-4.66c0.34-0.47-0.84-1.58-1.42-2.43c0.33,0.67,1.23,1.11,0.71,0
		c-0.55-1.21-0.06-0.9-0.95-3.2c-0.07-0.68,0.37-1.3,0.83-1.08c0.12-1.27-0.19-3.3-0.49-4.67c0.37-0.18,1.14-2.74,0.43-3.69
		c-0.78-0.13-1.83-2.06-2.43-0.83c0.22-0.9-0.85-1.86-0.8-0.8c-0.1-0.44-0.15,0.3-0.22,0.34c0.01-0.17,0.12-0.48-0.18-0.21
		c0.82-0.24,0.03-1.56-0.06-0.46c-0.21-0.23-0.06-0.22,0.15-1.32c-0.47-0.69,0.16-2.05-1.01-1.97c-0.02-0.61-0.42-1.47-0.19-2.37
		c-0.3-0.11-0.27,0.71-0.34,0.06C688.01,535.38,688.28,534.36,688.1,534.81z M688.15,534.74c0,0.06,0.03-0.1,0.03-0.09
		C688.15,534.63,688.15,534.73,688.15,534.74z M688.16,534.64l0.05-0.25C688.22,534.4,688.12,534.67,688.16,534.64z M698.68,562.41
		c0,0.01,0.06,0.04,0.07,0.04C698.75,562.45,698.68,562.41,698.68,562.41z M698.53,562.3c-0.03-0.02-0.09-0.07-0.12-0.09
		C698.45,562.24,698.68,562.44,698.53,562.3z M687.88,536.04c0.02-0.15-0.02,0.03-0.01,0.08
		C687.87,536.1,687.88,536.06,687.88,536.04z M742.61,544.13l-0.07,0.35C742.57,544.39,742.6,544.22,742.61,544.13z M687.72,541.87
		c0.01,0.07-0.01,0.06-0.06,0.03C687.66,541.89,687.72,541.87,687.72,541.87z M698.41,561.81c0.07,0.08,0.41,0.25,0.12,0.03
		C698.77,562.05,698.47,561.82,698.41,561.81z M698.63,561.96c0.03,0.05,0.11,0.15,0.15,0.19
		C698.74,562.08,698.71,561.99,698.63,561.96z M698.32,561.84c0.1,0.02,0.23,0.26,0.31,0.18
		C698.56,561.96,698.43,561.79,698.32,561.84z M698.55,562.3l0.07,0.04C698.6,562.33,698.56,562.31,698.55,562.3z M703.2,564.94
		c5.47,3.74,17.25,3.83,23.63,0.37c-0.9,0.37-1.1,0.05-3.01,0.77c-0.41,0.08-0.8,0.11-0.31-0.25c-0.75,0.03-1.32-0.12-1.57-0.37
		c-2.58,0.81-5.41,0.66-8.45,0.83c-1.15-0.15-3.74-0.15-2.83,1.01C708.64,567.37,704.54,565.77,703.2,564.94z M707.27,566.72
		c-0.05-0.01,0.09,0.03,0.08,0.03L707.27,566.72z"/>
	<path id="african-countries" class="st11" d="M712.36,523.46c-1.48,0.39-3.17-0.05-4.58,0.89c-0.74-0.02-1.45-0.64-1.87,0.43
		c-0.97,0.3-1.41,1.12-1.78,1.94c-1.51,0.76-2.74,2.1-3.47,3.69c0.44-0.35-0.04,1.08,0.12,1.42c-0.24,0.86-0.9,1.28-0.49,2.03
		c1-0.21-0.79,0.23,0.06,0.37c-0.45,0.13,0.2,0.12,0.06,0.4c0.81-0.19-0.08-0.06,0.37,0.06c-0.44,0.01,0.2,0.67,0.52,0.86
		c-0.03,0.57,0.21,0.59,0.34,1.17c1.24,0.98,2.02,1.67,3.63,1.01c1.67,0.46,4.11-1.44,4.3-0.06c0.27,0.8,0.47,0.35,0.95,0.43
		c0.51-0.09,0.38,0.01,0.71-0.12c-0.04,0.37,0.66,0.35,0.34,0.43c0.33,0.52-0.19,1.21,0.03,1.63c-0.41-0.12,0.11,0.09,0.15,0.12
		c-0.36,0.04-0.34-0.01-0.4,0.43c0.1,1.19,2.23,2.6,2.09,4.46c0.67,0.96-0.73,1.76-0.74,2.77c0.6,2.25,1.69,4.93,2.95,6.97
		c-0.2,2.93,6.11,0.03,6.33-2.36c0.83-0.94,1.53-0.72,1.14-2.77c0.88-1.06,3.26-1.44,2.74-3.2c0.08-0.47,0.26-1.16-0.22-1.41
		c0-0.98-0.34-1.6-0.09-2.52c0.74-1.69,2.56-2.79,3.78-4.42c0.31-0.81,2.27-4.14,0.37-3.29c-2.87,1.29-1.81,0.14-3.6-1.54
		c-0.83-0.32-1.76-1.83-2.09-3.01c-0.46-0.81-1.79-2.45-2.45-3.78c-0.11-1.33-1.46-0.08-2.31-0.64c-1.03,0.13-1.85-1.04-2.83-0.31
		c0.14,1.78-2.96-0.65-3.99-0.65c-0.19-0.45,0.79-0.45,0.19-0.95C713.06,523.3,712.61,523.93,712.36,523.46z M729.6,545.98
		c-0.52,0.87-0.8,1.17-1.17,1.69c0.2-0.24-1.29,0.24-1.35,0.89C724.98,556.92,730.8,548.16,729.6,545.98z"/>
	<circle class="st12" cx="715.04" cy="540.3" r="27.53"/>
</g>
<text transform="matrix(1 0 0 1 247.3925 51.8533)" class="st8 st9">Imitation</text>
<g>
	<g>
		<line class="st2" x1="435.61" y1="48.5" x2="555.26" y2="48.5"/>
		<g>
			<polygon class="st3" points="437.6,51.4 426.76,48.5 437.6,45.59 			"/>
		</g>
	</g>
</g>
<rect x="452.01" y="35.22" class="st4" width="90.4" height="26.11"/>
<text transform="matrix(1 0 0 1 456.4592 51.8533)" class="st8 st9">Schematization</text>
</svg>
