<?xml version="1.0" encoding="utf-8"?>
<!-- Generator: Adobe Illustrator 24.1.1, SVG Export Plug-In . SVG Version: 6.00 Build 0)  -->
<svg version="1.1" id="Layer_1" xmlns="http://www.w3.org/2000/svg" xmlns:xlink="http://www.w3.org/1999/xlink" x="0px" y="0px"
	 viewBox="0 0 6200 2396" style="enable-background:new 0 0 6200 2396;" xml:space="preserve">
<style type="text/css">
	.st0{opacity:0.02;}
	.st1{font-family:'ArialMT';}
	.st2{font-size:72px;}
	.st3{fill:#CCCBCB;stroke:#787878;stroke-width:5;stroke-miterlimit:10;}
	.st4{fill:none;stroke:#333333;stroke-width:5;stroke-linecap:square;stroke-miterlimit:10;}
	.st5{fill:#333333;}
	.st6{fill:#231F20;}
	.st7{font-size:60px;}
	.st8{fill:#999999;}
	.st9{fill:#FFFFFF;}
	.st10{fill:#666666;}
	.st11{fill:#DDDDDC;}
	.st12{fill:none;stroke:#555555;stroke-width:4;stroke-miterlimit:10;}
	.st13{fill:#989898;}
	.st14{fill:none;stroke:#555555;stroke-width:2;stroke-miterlimit:10;}
	.st15{fill:#989898;stroke:#555555;stroke-width:2;stroke-miterlimit:10;}
	.st16{fill:#EFEFEF;stroke:#555555;stroke-width:2;stroke-miterlimit:10;}
	.st17{fill:#555555;}
	.st18{fill:none;stroke:#989898;stroke-width:2;stroke-miterlimit:10;}
	.st19{fill:none;stroke:#787878;stroke-width:2;stroke-miterlimit:10;}
	.st20{fill:none;stroke:#989898;stroke-width:5;stroke-miterlimit:10;}
	.st21{fill:none;stroke:#AAAAAA;stroke-width:5;stroke-miterlimit:10;}
	.st22{fill:#989898;stroke:#989898;stroke-width:21;stroke-miterlimit:10;}
	.st23{fill:#878787;}
	.st24{fill:#9D9D9D;}
	.st25{fill:#B9B9BA;}
	.st26{fill:#E5E5E4;}
	.st27{fill:none;stroke:#555555;stroke-width:5;stroke-miterlimit:10;}
	.st28{fill:none;stroke:#555555;stroke-width:5;stroke-miterlimit:10;stroke-dasharray:4;}
	.st29{fill:none;stroke:#555555;stroke-width:7;stroke-miterlimit:10;}
	.st30{fill:#989898;stroke:#FFFFFF;stroke-width:5;stroke-miterlimit:10;}
	.st31{fill:none;stroke:#878787;stroke-width:5;stroke-miterlimit:10;}
	.st32{fill:none;stroke:#555555;stroke-width:10;stroke-miterlimit:10;stroke-dasharray:10,5;}
	.st33{fill-rule:evenodd;clip-rule:evenodd;fill:#989898;stroke:#555555;stroke-width:2;stroke-miterlimit:10;}
	.st34{fill:none;stroke:#555555;stroke-width:4;stroke-linejoin:round;}
	.st35{fill-rule:evenodd;clip-rule:evenodd;fill:none;stroke:#555555;stroke-width:2;stroke-miterlimit:10;}
	.st36{fill:#555555;stroke:#555555;stroke-miterlimit:10;}
	.st37{fill:none;stroke:#555555;stroke-width:4;}
	.st38{fill:#666667;}
	.st39{fill:none;stroke:#000000;stroke-width:4;stroke-miterlimit:10;}
	.st40{fill:#555555;stroke:#555555;stroke-width:2;stroke-miterlimit:10;}
	.st41{fill:#555555;stroke:#555555;stroke-width:7;stroke-miterlimit:10;}
	.st42{fill:none;stroke:#555555;stroke-miterlimit:10;}
	.st43{fill:none;stroke:#555555;stroke-miterlimit:10;stroke-dasharray:2.0357,2.0357;}
	.st44{fill:none;stroke:#555555;stroke-width:3;stroke-linecap:round;stroke-linejoin:round;stroke-miterlimit:10;}
	.st45{fill:none;stroke:#555555;stroke-miterlimit:10;stroke-dasharray:1.9609,1.9609;}
	.st46{fill:#555555;stroke:#555555;stroke-width:3;stroke-linecap:round;stroke-linejoin:round;stroke-miterlimit:10;}
	.st47{fill:none;stroke:#555555;stroke-miterlimit:10;stroke-dasharray:1.9645,1.9645;}
	.st48{fill:none;stroke:#555555;stroke-miterlimit:10;stroke-dasharray:1.9996,1.9996;}
	.st49{fill:none;stroke:#555555;stroke-miterlimit:10;stroke-dasharray:2.1057,2.1057;}
	.st50{fill:none;stroke:#555555;stroke-miterlimit:10;stroke-dasharray:2.0419,2.0419;}
	.st51{fill:none;stroke:#555555;stroke-miterlimit:10;stroke-dasharray:2.0056,2.0056;}
	.st52{fill:none;stroke:#555555;stroke-miterlimit:10;stroke-dasharray:1.9885,1.9885;}
	.st53{fill:none;stroke:#999999;stroke-width:5;stroke-miterlimit:10;}
	.st54{fill:none;stroke:#555555;stroke-width:10;stroke-miterlimit:10;stroke-dasharray:10.0101,5.005;}
	.st55{font-family:'MyriadPro-Regular';}
	.st56{font-size:16.9187px;}
	.st57{font-size:46.5263px;}
	.st58{font-size:64.8549px;}
</style>
<rect x="4103.07" y="466" class="st0" width="640.3" height="1916"/>
<rect x="3429.07" y="466" class="st0" width="640.3" height="1916"/>
<rect x="4777.07" y="466" class="st0" width="640.3" height="1916"/>
<rect x="5451.07" y="466" class="st0" width="640.3" height="1916"/>
<rect x="668.07" y="462" class="st0" width="640.3" height="1916"/>
<rect x="1341.07" y="465" class="st0" width="640.3" height="1916"/>
<rect x="2014.07" y="465" class="st0" width="640.3" height="1916"/>
<rect x="2687.07" y="465" class="st0" width="640.3" height="1916"/>
<text transform="matrix(1 0 0 1 179.2332 1083.3569)" class="st1 st2">Technique</text>
<g>
	<circle class="st3" cx="3791.97" cy="539.51" r="2.52"/>
	<circle class="st3" cx="3872.61" cy="562.99" r="2.52"/>
	<circle class="st3" cx="3832.29" cy="611.99" r="2.52"/>
	<circle class="st3" cx="3782.27" cy="663.03" r="2.52"/>
	<circle class="st3" cx="3774.62" cy="679.36" r="2.52"/>
	<circle class="st3" cx="3734.29" cy="698.76" r="2.52"/>
	<circle class="st3" cx="3774.62" cy="724.28" r="2.52"/>
	<circle class="st3" cx="3751.65" cy="750.42" r="2.52"/>
	<circle class="st3" cx="3764.92" cy="710.1" r="2.52"/>
	<circle class="st3" cx="3774.62" cy="714.18" r="2.52"/>
	<circle class="st3" cx="3782.27" cy="732.95" r="2.52"/>
	<circle class="st3" cx="3862.92" cy="739.08" r="2.52"/>
	<circle class="st3" cx="3885.37" cy="724.28" r="2.52"/>
	<circle class="st3" cx="3895.58" cy="710.1" r="2.52"/>
	<circle class="st3" cx="3885.37" cy="692.63" r="2.52"/>
	<circle class="st3" cx="3872.61" cy="683.95" r="2.52"/>
	<circle class="st3" cx="3855.26" cy="683.95" r="2.52"/>
	<circle class="st3" cx="3840.97" cy="647.97" r="2.52"/>
	<circle class="st3" cx="3832.29" cy="643.63" r="2.52"/>
	<circle class="st3" cx="3777.14" cy="666.58" r="2.52"/>
	<circle class="st3" cx="3800.65" cy="698.76" r="2.52"/>
	<circle class="st3" cx="3782.27" cy="688.29" r="2.52"/>
	<circle class="st3" cx="3931.31" cy="673.86" r="2.52"/>
	<circle class="st3" cx="3876.74" cy="618.11" r="2.52"/>
	<circle class="st3" cx="3764.92" cy="652.31" r="2.52"/>
	<circle class="st3" cx="3764.92" cy="639.04" r="2.52"/>
	<circle class="st3" cx="3800.65" cy="618.11" r="2.52"/>
	<circle class="st3" cx="3822.59" cy="611.99" r="2.52"/>
	<circle class="st3" cx="3872.61" cy="618.11" r="2.52"/>
	<circle class="st3" cx="3821.57" cy="513.87" r="2.52"/>
	<circle class="st3" cx="3893.79" cy="556.76" r="2.52"/>
	<circle class="st3" cx="3842.49" cy="594.12" r="2.52"/>
	<circle class="st3" cx="3781.3" cy="631.04" r="2.52"/>
	<circle class="st3" cx="3769.8" cy="644.94" r="2.52"/>
	<circle class="st3" cx="3725.91" cy="653.63" r="2.52"/>
	<circle class="st3" cx="3758.57" cy="688.43" r="2.52"/>
	<circle class="st3" cx="3729.8" cy="708" r="2.52"/>
	<circle class="st3" cx="3752.73" cy="672.27" r="2.52"/>
	<circle class="st3" cx="3761.1" cy="678.65" r="2.52"/>
	<circle class="st3" cx="3763.82" cy="698.74" r="2.52"/>
	<circle class="st3" cx="3840.37" cy="724.84" r="2.52"/>
	<circle class="st3" cx="3865.81" cy="716.12" r="2.52"/>
	<circle class="st3" cx="3879.24" cy="704.95" r="2.52"/>
	<circle class="st3" cx="3873.73" cy="685.48" r="2.52"/>
	<circle class="st3" cx="3863.54" cy="673.89" r="2.52"/>
	<circle class="st3" cx="3846.74" cy="669.55" r="2.52"/>
	<circle class="st3" cx="3841.9" cy="631.13" r="2.52"/>
	<circle class="st3" cx="3834.58" cy="624.76" r="2.52"/>
	<circle class="st3" cx="3795.01" cy="651.44" r="2.52"/>
	<circle class="st3" cx="3790.16" cy="670.22" r="2.52"/>
	<circle class="st3" cx="3774.98" cy="655.5" r="2.52"/>
	<circle class="st3" cx="3922.9" cy="678.79" r="2.52"/>
	<circle class="st3" cx="3884" cy="611.17" r="2.52"/>
	<circle class="st3" cx="3767.18" cy="616.32" r="2.52"/>
	<circle class="st3" cx="3770.5" cy="603.47" r="2.52"/>
	<circle class="st3" cx="3810.32" cy="592.14" r="2.52"/>
	<circle class="st3" cx="3833.1" cy="591.7" r="2.52"/>
	<circle class="st3" cx="3880" cy="610.14" r="2.52"/>
	<circle class="st3" cx="3656.97" cy="585.86" r="2.52"/>
	<circle class="st3" cx="3723.52" cy="534.61" r="2.52"/>
	<circle class="st3" cx="3739.28" cy="596.08" r="2.52"/>
	<circle class="st3" cx="3750.96" cy="666.58" r="2.52"/>
	<circle class="st3" cx="3759.63" cy="682.4" r="2.52"/>
	<circle class="st3" cx="3751.49" cy="726.4" r="2.52"/>
	<circle class="st3" cx="3795.89" cy="708.91" r="2.52"/>
	<circle class="st3" cx="3803.44" cy="742.88" r="2.52"/>
	<circle class="st3" cx="3778.72" cy="708.37" r="2.52"/>
	<circle class="st3" cx="3787.74" cy="702.95" r="2.52"/>
	<circle class="st3" cx="3807.41" cy="707.85" r="2.52"/>
	<circle class="st3" cx="3859.95" cy="646.36" r="2.52"/>
	<circle class="st3" cx="3861.25" cy="619.49" r="2.52"/>
	<circle class="st3" cx="3855.83" cy="602.89" r="2.52"/>
	<circle class="st3" cx="3835.71" cy="600.82" r="2.52"/>
	<circle class="st3" cx="3821.17" cy="606" r="2.52"/>
	<circle class="st3" cx="3810.93" cy="620.01" r="2.52"/>
	<circle class="st3" cx="3773.45" cy="610.31" r="2.52"/>
	<circle class="st3" cx="3764.82" cy="614.76" r="2.52"/>
	<circle class="st3" cx="3774.99" cy="661.39" r="2.52"/>
	<circle class="st3" cx="3790.65" cy="672.83" r="2.52"/>
	<circle class="st3" cx="3771.36" cy="681.49" r="2.52"/>
	<circle class="st3" cx="3847.66" cy="552.66" r="2.52"/>
	<circle class="st3" cx="3770.45" cy="563.82" r="2.52"/>
	<circle class="st3" cx="3732.07" cy="674.27" r="2.52"/>
	<circle class="st3" cx="3721.35" cy="666.44" r="2.52"/>
	<circle class="st3" cx="3725.55" cy="625.24" r="2.52"/>
	<circle class="st3" cx="3733.55" cy="603.91" r="2.52"/>
	<circle class="st3" cx="3768.02" cy="567.14" r="2.52"/>
	<circle class="st3" cx="3908.37" cy="649.56" r="2.52"/>
	<circle class="st3" cx="3882" cy="729.31" r="2.52"/>
	<circle class="st3" cx="3834.48" cy="687.24" r="2.52"/>
	<circle class="st3" cx="3785.28" cy="635.41" r="2.52"/>
	<circle class="st3" cx="3769.24" cy="627.17" r="2.52"/>
	<circle class="st3" cx="3751.31" cy="586.17" r="2.52"/>
	<circle class="st3" cx="3724.35" cy="625.54" r="2.52"/>
	<circle class="st3" cx="3699.05" cy="601.65" r="2.52"/>
	<circle class="st3" cx="3738.87" cy="616.36" r="2.52"/>
	<circle class="st3" cx="3734.44" cy="625.91" r="2.52"/>
	<circle class="st3" cx="3715.4" cy="632.88" r="2.52"/>
	<circle class="st3" cx="3706.37" cy="713.25" r="2.52"/>
	<circle class="st3" cx="3720.35" cy="736.23" r="2.52"/>
	<circle class="st3" cx="3734.15" cy="746.94" r="2.52"/>
	<circle class="st3" cx="3751.97" cy="737.37" r="2.52"/>
	<circle class="st3" cx="3761.11" cy="724.94" r="2.52"/>
	<circle class="st3" cx="3761.73" cy="707.59" r="2.52"/>
	<circle class="st3" cx="3798.21" cy="694.61" r="2.52"/>
	<circle class="st3" cx="3802.86" cy="686.1" r="2.52"/>
	<circle class="st3" cx="3768.3" cy="653.18" r="2.52"/>
	<circle class="st3" cx="3748.91" cy="652.48" r="2.52"/>
	<circle class="st3" cx="3760.03" cy="634.5" r="2.52"/>
	<circle class="st3" cx="3769.07" cy="783.96" r="2.52"/>
	<circle class="st3" cx="3826.76" cy="731.43" r="2.52"/>
	<circle class="st3" cx="3796.62" cy="618.45" r="2.52"/>
	<circle class="st3" cx="3809.88" cy="618.93" r="2.52"/>
	<circle class="st3" cx="3829.51" cy="655.39" r="2.52"/>
	<circle class="st3" cx="3834.83" cy="677.55" r="2.52"/>
	<circle class="st3" cx="3826.91" cy="727.31" r="2.52"/>
	<circle class="st3" cx="3776.17" cy="792.08" r="2.52"/>
	<circle class="st3" cx="3787.53" cy="729.65" r="2.52"/>
	<circle class="st3" cx="3806.37" cy="660.71" r="2.52"/>
	<circle class="st3" cx="3805.11" cy="642.72" r="2.52"/>
	<circle class="st3" cx="3830.89" cy="606.15" r="2.52"/>
	<circle class="st3" cx="3783.24" cy="603.49" r="2.52"/>
	<circle class="st3" cx="3790.58" cy="569.47" r="2.52"/>
	<circle class="st3" cx="3798.62" cy="611.15" r="2.52"/>
	<circle class="st3" cx="3788.16" cy="612.3" r="2.52"/>
	<circle class="st3" cx="3772.33" cy="599.63" r="2.52"/>
	<circle class="st3" cx="3698.91" cy="633.55" r="2.52"/>
	<circle class="st3" cx="3686.5" cy="657.41" r="2.52"/>
	<circle class="st3" cx="3684.48" cy="674.76" r="2.52"/>
	<circle class="st3" cx="3701.9" cy="685.05" r="2.52"/>
	<circle class="st3" cx="3717.27" cy="686.42" r="2.52"/>
	<circle class="st3" cx="3732.43" cy="677.97" r="2.52"/>
	<circle class="st3" cx="3762.43" cy="702.44" r="2.52"/>
	<circle class="st3" cx="3772.13" cy="702.01" r="2.52"/>
	<circle class="st3" cx="3809.13" cy="655.11" r="2.52"/>
	<circle class="st3" cx="3772.93" cy="638.45" r="2.52"/>
	<circle class="st3" cx="3794.07" cy="638.64" r="2.52"/>
	<circle class="st3" cx="3670.92" cy="723.81" r="2.52"/>
	<circle class="st3" cx="3745.73" cy="745.94" r="2.52"/>
	<circle class="st3" cx="3826.75" cy="661.63" r="2.52"/>
	<circle class="st3" cx="3833.21" cy="673.22" r="2.52"/>
	<circle class="st3" cx="3812.19" cy="708.89" r="2.52"/>
	<circle class="st3" cx="3796" cy="724.93" r="2.52"/>
	<circle class="st3" cx="3749.33" cy="743.93" r="2.52"/>
	<circle class="st3" cx="3760.7" cy="807.83" r="2.52"/>
	<circle class="st3" cx="3860.77" cy="782.52" r="2.52"/>
	<circle class="st3" cx="3847.64" cy="807.83" r="2.52"/>
	<circle class="st3" cx="3787.32" cy="750.22" r="2.52"/>
	<circle class="st3" cx="3822.8" cy="688.18" r="2.52"/>
	<circle class="st3" cx="3826.07" cy="670.45" r="2.52"/>
	<circle class="st3" cx="3860.18" cy="641.48" r="2.52"/>
	<circle class="st3" cx="3814.71" cy="626.99" r="2.52"/>
	<circle class="st3" cx="3830.32" cy="595.88" r="2.52"/>
	<circle class="st3" cx="3827.68" cy="638.25" r="2.52"/>
	<circle class="st3" cx="3817.26" cy="636.76" r="2.52"/>
	<circle class="st3" cx="3805.11" cy="620.53" r="2.52"/>
	<circle class="st3" cx="3725.54" cy="635.01" r="2.52"/>
	<circle class="st3" cx="3707.55" cy="655.01" r="2.52"/>
	<circle class="st3" cx="3701.26" cy="671.31" r="2.52"/>
	<circle class="st3" cx="3715.56" cy="685.63" r="2.52"/>
	<circle class="st3" cx="3730.1" cy="690.79" r="2.52"/>
	<circle class="st3" cx="3746.89" cy="686.4" r="2.52"/>
	<circle class="st3" cx="3769.82" cy="717.6" r="2.52"/>
	<circle class="st3" cx="3779.31" cy="719.6" r="2.52"/>
	<circle class="st3" cx="3800.89" cy="677.03" r="2.52"/>
	<circle class="st3" cx="3795.98" cy="658.27" r="2.52"/>
	<circle class="st3" cx="3816.41" cy="663.74" r="2.52"/>
	<circle class="st3" cx="3675.87" cy="715.41" r="2.52"/>
	<circle class="st3" cx="3742.77" cy="755.54" r="2.52"/>
	<circle class="st3" cx="3842.3" cy="694.16" r="2.52"/>
	<circle class="st3" cx="3845.66" cy="707" r="2.52"/>
	<circle class="st3" cx="3816.38" cy="736.29" r="2.52"/>
	<circle class="st3" cx="3796.7" cy="747.77" r="2.52"/>
	<circle class="st3" cx="3746.76" cy="754.49" r="2.52"/>
	<circle class="st3" cx="3876.52" cy="698.26" r="2.52"/>
	<circle class="st3" cx="3831.99" cy="642.36" r="2.52"/>
	<circle class="st3" cx="3816.72" cy="632.77" r="2.52"/>
	<circle class="st3" cx="3802.41" cy="590.37" r="2.52"/>
	<circle class="st3" cx="3772.14" cy="627.27" r="2.52"/>
	<circle class="st3" cx="3749" cy="601.27" r="2.52"/>
	<circle class="st3" cx="3787.4" cy="619.38" r="2.52"/>
	<circle class="st3" cx="3782.16" cy="628.5" r="2.52"/>
	<circle class="st3" cx="3762.59" cy="633.8" r="2.52"/>
	<circle class="st3" cx="3746.64" cy="713.09" r="2.52"/>
	<circle class="st3" cx="3758.58" cy="737.19" r="2.52"/>
	<circle class="st3" cx="3771.4" cy="749.06" r="2.52"/>
	<circle class="st3" cx="3789.99" cy="741.07" r="2.52"/>
	<circle class="st3" cx="3800.16" cy="729.46" r="2.52"/>
	<circle class="st3" cx="3802.28" cy="712.24" r="2.52"/>
	<circle class="st3" cx="3839.75" cy="702.46" r="2.52"/>
	<circle class="st3" cx="3845.12" cy="694.38" r="2.52"/>
	<circle class="st3" cx="3813.53" cy="658.6" r="2.52"/>
	<circle class="st3" cx="3794.28" cy="656.23" r="2.52"/>
	<circle class="st3" cx="3806.92" cy="639.27" r="2.52"/>
	<circle class="st3" cx="3865" cy="741.62" r="2.52"/>
	<circle class="st3" cx="3844.75" cy="626.45" r="2.52"/>
	<circle class="st3" cx="3857.93" cy="628.08" r="2.52"/>
	<circle class="st3" cx="3874.32" cy="666.1" r="2.52"/>
	<circle class="st3" cx="3877.71" cy="688.63" r="2.52"/>
	<circle class="st3" cx="3865.51" cy="737.53" r="2.52"/>
	<circle class="st3" cx="3702.78" cy="733.87" r="2.52"/>
	<circle class="st3" cx="3687" cy="651.37" r="2.52"/>
	<circle class="st3" cx="3748.98" cy="664.98" r="2.52"/>
	<circle class="st3" cx="3817.19" cy="686.31" r="2.52"/>
	<circle class="st3" cx="3835.22" cy="685.69" r="2.52"/>
	<circle class="st3" cx="3870.84" cy="712.77" r="2.52"/>
	<circle class="st3" cx="3875.22" cy="665.26" r="2.52"/>
	<circle class="st3" cx="3908.95" cy="673.81" r="2.52"/>
	<circle class="st3" cx="3867" cy="680.34" r="2.52"/>
	<circle class="st3" cx="3866.23" cy="669.85" r="2.52"/>
	<circle class="st3" cx="3879.46" cy="654.49" r="2.52"/>
	<circle class="st3" cx="3848.22" cy="579.89" r="2.52"/>
	<circle class="st3" cx="3824.82" cy="566.62" r="2.52"/>
	<circle class="st3" cx="3807.55" cy="563.98" r="2.52"/>
	<circle class="st3" cx="3796.64" cy="581.02" r="2.52"/>
	<circle class="st3" cx="3794.72" cy="596.33" r="2.52"/>
	<circle class="st3" cx="3802.62" cy="611.79" r="2.52"/>
	<circle class="st3" cx="3777.08" cy="640.89" r="2.52"/>
	<circle class="st3" cx="3777.16" cy="650.59" r="2.52"/>
	<circle class="st3" cx="3823.37" cy="662.51" r="2.52"/>
	<circle class="st3" cx="3840.65" cy="653.69" r="2.52"/>
	<circle class="st3" cx="3839.69" cy="674.81" r="2.52"/>
	<circle class="st3" cx="3734.21" cy="622.62" r="2.52"/>
	<circle class="st3" cx="3815.54" cy="706.64" r="2.52"/>
	<circle class="st3" cx="3803.72" cy="712.67" r="2.52"/>
	<circle class="st3" cx="3768.83" cy="690.38" r="2.52"/>
	<circle class="st3" cx="3753.39" cy="673.62" r="2.52"/>
	<circle class="st3" cx="3736.09" cy="626.29" r="2.52"/>
	<circle class="st3" cx="3544.01" cy="760.58" r="2.52"/>
	<circle class="st3" cx="3791.76" cy="881.06" r="2.52"/>
	<circle class="st3" cx="3684.48" cy="827.56" r="2.52"/>
	<g>
		<g>
			<line class="st4" x1="3818.06" y1="646.94" x2="3605.79" y2="647.61"/>
			<g>
				<polygon class="st5" points="3613.01,622.66 3569.91,647.72 3613.16,672.52 				"/>
			</g>
		</g>
	</g>
	<g>
		<g>
			<line class="st4" x1="3818.06" y1="646.94" x2="3818.06" y2="826.5"/>
			<g>
				<polygon class="st5" points="3793.13,819.2 3818.06,862.38 3842.99,819.2 				"/>
			</g>
		</g>
	</g>
	<g>
		<g>
			<line class="st4" x1="3818.34" y1="646.66" x2="3668.83" y2="785.89"/>
			<g>
				<polygon class="st5" points="3657.18,762.68 3642.57,810.35 3691.16,799.17 				"/>
			</g>
		</g>
	</g>
</g>
<text transform="matrix(1 0 0 1 3598.3633 1077.7837)"><tspan x="0" y="0" class="st6 st1 st7">Reposition </tspan><tspan x="-5" y="72" class="st6 st1 st7">Data Points</tspan></text>
<g>
	<g>
		<g>
			<g>
				<path class="st8" d="M997.5,1482.94c-12.19,0-22.11-9.92-22.11-22.11s9.92-22.11,22.11-22.11s22.11,9.92,22.11,22.11
					S1009.68,1482.94,997.5,1482.94z"/>
				<path class="st9" d="M997.49,1439.22c11.91,0,21.61,9.69,21.61,21.61s-9.69,21.61-21.61,21.61s-21.61-9.69-21.61-21.61
					S985.58,1439.22,997.49,1439.22 M997.49,1438.22c-12.48,0-22.61,10.12-22.61,22.61c0,12.48,10.12,22.61,22.61,22.61
					s22.61-10.12,22.61-22.61C1020.1,1448.35,1009.98,1438.22,997.49,1438.22L997.49,1438.22z"/>
			</g>
			<g>
				<path class="st8" d="M887.41,1528.15c-12.19,0-22.11-9.92-22.11-22.11s9.92-22.11,22.11-22.11s22.11,9.92,22.11,22.11
					S899.6,1528.15,887.41,1528.15z"/>
				<path class="st9" d="M887.41,1484.44c11.91,0,21.61,9.69,21.61,21.61s-9.69,21.61-21.61,21.61s-21.61-9.69-21.61-21.61
					S875.5,1484.44,887.41,1484.44 M887.41,1483.44c-12.49,0-22.61,10.12-22.61,22.61c0,12.48,10.12,22.61,22.61,22.61
					c12.48,0,22.61-10.12,22.61-22.61C910.02,1493.56,899.9,1483.44,887.41,1483.44L887.41,1483.44z"/>
			</g>
			<g>
				<path class="st8" d="M932.63,1606.78c-12.19,0-22.11-9.92-22.11-22.11s9.92-22.11,22.11-22.11s22.11,9.92,22.11,22.11
					S944.82,1606.78,932.63,1606.78z"/>
				<path class="st9" d="M932.63,1563.07c11.91,0,21.61,9.69,21.61,21.61s-9.69,21.61-21.61,21.61s-21.61-9.69-21.61-21.61
					S920.71,1563.07,932.63,1563.07 M932.63,1562.07c-12.49,0-22.61,10.12-22.61,22.61c0,12.48,10.12,22.61,22.61,22.61
					c12.48,0,22.61-10.12,22.61-22.61C955.23,1572.19,945.11,1562.07,932.63,1562.07L932.63,1562.07z"/>
			</g>
			<g>
				<path class="st8" d="M1125.27,1331.58c-12.19,0-22.11-9.92-22.11-22.11s9.92-22.11,22.11-22.11s22.11,9.92,22.11,22.11
					S1137.46,1331.58,1125.27,1331.58z"/>
				<path class="st9" d="M1125.27,1287.86c11.91,0,21.61,9.69,21.61,21.61s-9.69,21.61-21.61,21.61s-21.61-9.69-21.61-21.61
					S1113.35,1287.86,1125.27,1287.86 M1125.27,1286.86c-12.48,0-22.61,10.12-22.61,22.61c0,12.48,10.12,22.61,22.61,22.61
					s22.61-10.12,22.61-22.61C1147.87,1296.98,1137.75,1286.86,1125.27,1286.86L1125.27,1286.86z"/>
			</g>
			<g>
				<path class="st8" d="M1094.8,1455.42c-12.19,0-22.11-9.92-22.11-22.11s9.92-22.11,22.11-22.11s22.11,9.92,22.11,22.11
					S1106.99,1455.42,1094.8,1455.42z"/>
				<path class="st9" d="M1094.8,1411.7c11.91,0,21.61,9.69,21.61,21.61s-9.69,21.61-21.61,21.61s-21.61-9.69-21.61-21.61
					S1082.89,1411.7,1094.8,1411.7 M1094.8,1410.7c-12.49,0-22.61,10.12-22.61,22.61c0,12.48,10.12,22.61,22.61,22.61
					c12.48,0,22.61-10.12,22.61-22.61C1117.4,1420.83,1107.28,1410.7,1094.8,1410.7L1094.8,1410.7z"/>
			</g>
			<g>
				<path class="st8" d="M1117.4,1544.86c-12.19,0-22.11-9.92-22.11-22.11s9.92-22.11,22.11-22.11s22.11,9.92,22.11,22.11
					S1129.59,1544.86,1117.4,1544.86z"/>
				<path class="st9" d="M1117.4,1501.15c11.91,0,21.61,9.69,21.61,21.61s-9.69,21.61-21.61,21.61s-21.61-9.69-21.61-21.61
					S1105.49,1501.15,1117.4,1501.15 M1117.4,1500.15c-12.49,0-22.61,10.12-22.61,22.61s10.12,22.61,22.61,22.61
					c12.48,0,22.61-10.12,22.61-22.61S1129.89,1500.15,1117.4,1500.15L1117.4,1500.15z"/>
			</g>
			<g>
				<path class="st8" d="M851.05,1376.79c-12.19,0-22.11-9.92-22.11-22.11s9.92-22.11,22.11-22.11s22.11,9.92,22.11,22.11
					S863.24,1376.79,851.05,1376.79z"/>
				<path class="st9" d="M851.05,1333.07c11.91,0,21.61,9.69,21.61,21.61s-9.69,21.61-21.61,21.61s-21.61-9.69-21.61-21.61
					S839.13,1333.07,851.05,1333.07 M851.05,1332.07c-12.48,0-22.61,10.12-22.61,22.61s10.12,22.61,22.61,22.61
					s22.61-10.12,22.61-22.61S863.53,1332.07,851.05,1332.07L851.05,1332.07z"/>
			</g>
			<g>
				<path class="st10" d="M997,1460.07c-4.51-5.22-48.15-57.41-48.15-120.13c0-52.59,30.17-60.44,48.15-60.44
					s48.15,7.85,48.15,60.44C1045.16,1402.66,1001.52,1454.85,997,1460.07z"/>
				<path class="st9" d="M997,1280c13.98,0,25.62,4.69,33.66,13.55c9.28,10.23,13.99,25.84,13.99,46.38
					c0,34.26-13.15,65.11-24.17,84.95c-10.27,18.48-20.66,31.11-23.48,34.42c-2.82-3.3-13.21-15.93-23.48-34.42
					c-11.03-19.85-24.17-50.7-24.17-84.95c0-20.54,4.71-36.15,13.99-46.38C971.39,1284.69,983.03,1280,997,1280 M997,1279
					c-26.87,0-48.65,16.71-48.65,60.94c0,66.77,48.65,120.89,48.65,120.89s48.65-54.13,48.65-120.89
					C1045.66,1295.71,1023.87,1279,997,1279L997,1279z"/>
			</g>
			<g>
				<circle class="st9" cx="997" cy="1330.6" r="24.08"/>
			</g>
		</g>
	</g>
	<text transform="matrix(1 0 0 1 860.5381 1712.4863)" class="st6 st1 st7">Map Icons</text>
</g>
<text transform="matrix(1 0 0 1 4235.8164 1078.793)" class="st6 st1 st7">Border-centered</text>
<g>
	<path class="st11" d="M4464.26,1285.59c3,0.13,3.15-6.65,8.71-9.49c7.84-3.99,23.37,1.42,24.62,8.81
		c0.79,4.67-4.29,8.99-5.68,10.16c-8.43,7.16-18.55,4.51-19.7,8.13c-1.35,4.26,10.61,14.39,24.24,17.28
		c4.22,0.89,7.82,0.93,10.61,3.73c4.6,4.62,2.46,12.24,2.27,12.87c-0.74,2.5,28.17,8.72,14.28,17.57
		c-13.63,8.68-18.29,8.49-18.56,11.52c-0.63,6.92,22.83,18.35,45.46,16.6c6.08-0.47,20.65-8.13,22.84-6.05
		c4.35,4.12,3.75,12.5,3.41,17.28c-0.25,3.43-0.81,4.41-1.14,7.11c-1.04,8.66,2.78,15.25,5.3,20.66
		c8.68,18.58,3.69,26.4,13.64,44.38c1.44,2.59,3.75,6.42,8.33,9.82c6.65,4.94,12.25,2.58,15.53,6.1c4.76,5.1,0.15,16.35-4.92,23.04
		c-10.51,13.84-29.5,16.61-34.09,17.28c-10.09,1.47-10.46-0.84-27.65-0.34c-9.32,0.27-20.38,0.6-33.34,4.07
		c-17.43,4.66-31.04,13.06-34.47,15.24c-9.62,6.11-11.15,9.02-18.18,10.5c-9.13,1.92-17.78-0.62-25.76-3.05
		c-9.25-2.82-9.85-4.48-18.56-7.79c-10.24-3.89-13.29-3.07-50.38-9.49c-9.01-1.56-11.88-2.14-15.53-3.05
		c-13.64-3.42-14.82-5.72-25-8.13c-12.94-3.06-14.23-0.1-27.27-3.39c-9.06-2.29-15.25-3.85-20.08-9.15
		c-8.33-9.15-5.21-21.31-4.92-22.36c1.09-3.98,3-6.49,6.82-11.52c3.26-4.29,10.57-13.92,23.49-21c3.54-1.94,4.66-2.13,5.68-3.73
		c3.79-5.93-2.61-17.61-11.36-24.39c-5.28-4.09-8.73-4.31-13.64-9.82c-1.37-1.54-4.03-4.58-5.68-9.15
		c-1.03-2.83-4.37-12.06,0.38-17.28c3.94-4.32,9.77-1.87,24.24-7.79c2.94-1.21,4.44-1.83,5.3-2.71c7.09-7.22-2.86-24.82-5.3-29.13
		c-3.31-5.86-3.72-4.68-6.06-9.15c-2.42-4.63-9.11-17.4-3.03-30.83c0.36-0.79,6.75-14.35,20.83-18.29
		c8.23-2.3,12.52,0.51,16.29-3.05c2.9-2.74,1.61-5.59,4.55-18.97c1.44-6.57,2.11-7.5,2.65-8.13c3.32-3.85,8.95-4.43,20.08-5.42
		c8.79-0.78,13.22-1.14,14.77,0.68c1.24,1.45,0.82,3.33-3.41,18.63c-1.27,4.6-2.13,7.67-0.76,8.47c0.95,0.56,2.36-0.33,5.68-2.03
		c10.09-5.16,12.34-4.77,16.29-8.47c2.35-2.2,1.39-2.19,4.17-5.08c0.72-0.75,9.69-9.95,14.02-8.13c3.01,1.26,0.54,6.51,5.68,12.87
		c1.52,1.89,2.42,3,4.17,3.73c4.78,1.99,8.63-1.92,18.94-3.39c5.28-0.75,7.91-1.13,10.61,0
		C4460.99,1275.44,4460.61,1285.43,4464.26,1285.59z"/>
	<polyline class="st12" points="4277.45,1212.86 4277.45,1322.65 4363.66,1323.19 4469.39,1434.44 4496.78,1462.18 4599.51,1461.13 
		4599.51,1430.54 	"/>
	<polyline class="st12" points="4464.04,1430.54 4436.1,1461.08 4436.1,1505.11 4436.64,1539.99 4315.63,1539.72 4315.36,1553.68 
		4300.33,1553.94 	"/>
	<line class="st12" x1="4448.22" y1="1412.25" x2="4450.99" y2="1207.22"/>
	<polyline class="st12" points="4401.13,1362.61 4370.9,1392.69 4370.95,1451.76 4316.57,1452.25 4271.89,1452.25 4271.89,1440.98 	
		"/>
	<line class="st12" x1="4449.91" y1="1289.65" x2="4544.77" y2="1289.65"/>
	<polyline class="st12" points="4363.66,1323.19 4363.66,1299.75 4403.9,1299.75 4403.9,1207.22 	"/>
	<polyline class="st12" points="4403.9,1299.75 4430.06,1300.12 4430.06,1313.1 	"/>
	<polyline class="st12" points="4439.98,1403.5 4412.76,1430.54 4393.44,1452.25 	"/>
	<line class="st12" x1="4423.2" y1="1420.17" x2="4438.48" y2="1437.76"/>
	<line class="st12" x1="4555.89" y1="1461.48" x2="4555.89" y2="1505"/>
	<line class="st12" x1="4448.57" y1="1392.24" x2="4519.82" y2="1392.24"/>
	<polyline class="st12" points="4330.18,1322.98 4329.39,1392.24 4310.48,1392.24 	"/>
</g>
<text transform="matrix(1 0 0 1 4262.4971 1714.2256)" class="st6 st1 st7">Path-centered</text>
<g>
	<polygon class="st13" points="2399.82,746.32 2361.74,768.3 2361.74,812.28 2399.82,834.26 2437.91,812.28 2437.91,768.3 	"/>
	<polyline class="st13" points="2437.91,680.35 2437.91,636.38 2399.82,614.39 2361.74,636.38 	"/>
	<polygon class="st14" points="2247.5,614.46 2247.5,570.48 2209.42,548.5 2171.33,570.48 2171.33,614.46 2209.42,636.44 	"/>
	<polygon class="st14" points="2323.66,614.46 2323.66,570.48 2285.58,548.5 2247.5,570.48 2247.5,614.46 2285.58,636.44 	"/>
	<polygon class="st14" points="2399.82,614.46 2399.82,570.48 2361.74,548.5 2323.66,570.48 2323.66,614.46 2361.74,636.44 	"/>
	<polyline class="st15" points="2437.91,636.44 2475.99,614.46 2475.99,570.48 2437.91,548.5 2399.82,570.48 2399.82,614.46 	"/>
	<polygon class="st14" points="2552.15,614.46 2552.15,570.48 2514.07,548.5 2475.99,570.48 2475.99,614.46 2514.07,636.44 	"/>
	<polygon class="st14" points="2209.42,812.28 2209.42,768.3 2171.33,746.32 2133.25,768.3 2133.25,812.28 2171.33,834.26 	"/>
	<polyline class="st15" points="2209.42,768.3 2209.42,812.28 2247.5,834.26 2285.58,812.28 2285.58,768.3 	"/>
	<polyline class="st13" points="2285.58,768.3 2247.5,746.32 2209.42,768.3 	"/>
	<polygon class="st14" points="2361.74,812.28 2361.74,768.3 2323.66,746.32 2285.58,768.3 2285.58,812.28 2323.66,834.26 	"/>
	<polygon class="st14" points="2514.07,812.28 2514.07,768.3 2475.99,746.32 2437.91,768.3 2437.91,812.28 2475.99,834.26 	"/>
	<polyline class="st13" points="2209.42,768.28 2247.5,746.29 2247.5,702.32 2209.42,680.33 2171.33,702.32 	"/>
	<polyline class="st15" points="2171.33,702.32 2171.33,746.29 2209.42,768.28 	"/>
	<polyline class="st13" points="2323.66,746.29 2323.66,702.32 2285.58,680.33 2247.5,702.32 2247.5,746.29 2285.58,768.28 	"/>
	<line class="st16" x1="2285.58" y1="768.28" x2="2323.66" y2="746.29"/>
	<polyline class="st13" points="2361.74,768.28 2399.82,746.29 2399.82,702.32 2361.74,680.33 2323.66,702.32 2323.66,746.29 	"/>
	<line class="st16" x1="2323.66" y1="746.29" x2="2361.74" y2="768.28"/>
	<polyline class="st15" points="2437.91,768.28 2475.99,746.29 2475.99,702.32 2437.91,680.33 	"/>
	<polyline class="st13" points="2437.91,680.33 2399.82,702.32 2399.82,746.29 2437.91,768.28 	"/>
	<polygon class="st14" points="2552.15,746.29 2552.15,702.32 2514.07,680.33 2475.99,702.32 2475.99,746.29 2514.07,768.28 	"/>
	<polyline class="st13" points="2171.33,702.34 2209.42,680.35 2209.42,636.38 	"/>
	<polyline class="st15" points="2209.42,636.38 2171.33,614.39 2133.25,636.38 2133.25,680.35 2171.33,702.34 	"/>
	<polyline class="st13" points="2209.42,636.38 2209.42,680.35 2247.5,702.34 2285.58,680.35 2285.58,636.38 	"/>
	<polyline class="st15" points="2361.74,636.38 2323.66,614.39 2285.58,636.38 	"/>
	<polyline class="st13" points="2285.58,636.38 2285.58,680.35 2323.66,702.34 2361.74,680.35 2361.74,636.38 	"/>
	<polyline class="st13" points="2361.74,636.38 2361.74,680.35 2399.82,702.34 2437.91,680.35 	"/>
	<polyline class="st14" points="2437.91,680.35 2475.99,702.34 2514.07,680.35 2514.07,636.38 2475.99,614.39 2437.91,636.38 
		2437.91,680.35 	"/>
	<circle class="st17" cx="2437.91" cy="592.47" r="7.42"/>
	<polygon class="st14" points="2247.5,878.28 2247.5,834.31 2209.42,812.32 2171.33,834.31 2171.33,878.28 2209.42,900.27 	"/>
	<polygon class="st14" points="2323.66,878.28 2323.66,834.31 2285.58,812.32 2247.5,834.31 2247.5,878.28 2285.58,900.27 	"/>
	<polyline class="st15" points="2361.74,812.32 2323.66,834.31 2323.66,878.28 2361.74,900.27 2399.82,878.28 	"/>
	<polyline class="st13" points="2399.82,878.28 2399.82,834.31 2361.74,812.32 	"/>
	<polyline class="st15" points="2399.82,878.28 2437.91,900.27 2475.99,878.28 2475.99,834.31 2437.91,812.32 	"/>
	<polyline class="st13" points="2437.91,812.32 2399.82,834.31 2399.82,878.28 	"/>
	<polygon class="st14" points="2552.15,878.28 2552.15,834.31 2514.07,812.32 2475.99,834.31 2475.99,878.28 2514.07,900.27 	"/>
	<circle class="st17" cx="2437.91" cy="856.3" r="7.42"/>
	<circle class="st17" cx="2361.74" cy="856.3" r="7.42"/>
	<circle class="st17" cx="2247.5" cy="790.31" r="7.42"/>
	<circle class="st17" cx="2171.33" cy="658.41" r="7.42"/>
	<circle class="st17" cx="2285.58" cy="724.35" r="7.42"/>
	<circle class="st17" cx="2361.74" cy="724.35" r="7.42"/>
	<circle class="st17" cx="2399.82" cy="658.39" r="7.42"/>
	<circle class="st17" cx="2437.91" cy="724.35" r="7.42"/>
	<circle class="st17" cx="2399.82" cy="790.31" r="7.42"/>
	<circle class="st17" cx="2247.5" cy="658.39" r="7.42"/>
	<circle class="st17" cx="2323.66" cy="658.39" r="7.42"/>
	<circle class="st17" cx="2209.42" cy="724.35" r="7.42"/>
	<polyline class="st15" points="2285.58,636.38 2247.5,614.39 2209.42,636.38 	"/>
</g>
<text transform="matrix(1 0 0 1 2203.8926 1083.4038)" class="st6 st1 st7">Grid-based</text>
<g>
	<path class="st13" d="M2451.87,1981.02c-28.5,7.61-24.82,16.68-26.51,26.87c-3.37,20.39,12.23,36.15,3.42,48.93
		c-5.13,7.45-11.74,4.01-23.54,12.08c-11.4,7.8-26.77,25.74-23.05,46.41c3.33,18.5,21.29,35.56,36.96,34.34
		c19.54-1.52,20.82-30.32,57.58-52.5c13.09-7.9,14.8-5.37,24.87-12.89c1.74-1.3,27.64-14.64,25.04-46.02
		C2524.3,2010.19,2467.52,1976.84,2451.87,1981.02z"/>
	<path class="st13" d="M2418.32,1915.47c-7.88-71.07-20.43-90.57-30.11-95.71c-20.49-10.87-30.87,41.07-89.31,87.09
		c-39.89,31.41-59.63,26.56-67.92,56.09c-12.24,43.61,14.46,112.41,36.01,120.4c17.21,6.38,18.94-30.53,56.64-44.04
		c26.56-9.52,40.33,3.55,58.63-4.1C2400.82,2027.46,2419.26,2000.45,2418.32,1915.47z"/>
	<path class="st13" d="M2186.81,1880.69c14.5,15.2,35.17,13.08,37.55,12.8c1.32-0.16,27.33-3.61,33.43-21.67
		c6.36-18.84-13.06-41.36-32.95-48.83c-1.29-0.48-29.72-10.71-44.22,5.73C2168.18,1842.82,2174.07,1867.34,2186.81,1880.69z"/>
	<circle class="st17" cx="2381.62" cy="1842.7" r="7.31"/>
	<circle class="st17" cx="2347.19" cy="1891.99" r="7.31"/>
	<circle class="st17" cx="2395.42" cy="1931.03" r="7.31"/>
	<circle class="st17" cx="2323.13" cy="1923.71" r="7.31"/>
	<circle class="st17" cx="2360.51" cy="1932.91" r="7.31"/>
	<circle class="st17" cx="2391.83" cy="1891.99" r="7.31"/>
	<circle class="st17" cx="2335.9" cy="1990.19" r="7.31"/>
	<circle class="st17" cx="2399.14" cy="1980.66" r="7.31"/>
	<circle class="st17" cx="2381.62" cy="2019.35" r="7.31"/>
	<circle class="st17" cx="2268.29" cy="2060.01" r="7.31"/>
	<circle class="st17" cx="2323.13" cy="1967.82" r="7.31"/>
	<circle class="st17" cx="2284.22" cy="2009.2" r="7.31"/>
	<circle class="st17" cx="2447.36" cy="2006.68" r="7.31"/>
	<circle class="st17" cx="2446.15" cy="2043.32" r="7.31"/>
	<circle class="st17" cx="2475.72" cy="2017.96" r="7.31"/>
	<circle class="st17" cx="2476.7" cy="2068" r="7.31"/>
	<circle class="st17" cx="2509.09" cy="2044.39" r="7.31"/>
	<circle class="st17" cx="2284.51" cy="1967.82" r="7.31"/>
	<circle class="st17" cx="2250.08" cy="1956.54" r="7.31"/>
	<circle class="st17" cx="2254.71" cy="2016.29" r="7.31"/>
	<circle class="st17" cx="2429.71" cy="2085.35" r="7.31"/>
	<circle class="st17" cx="2399.14" cy="2099.28" r="7.31"/>
	<circle class="st17" cx="2422.62" cy="2109.27" r="7.31"/>
	<circle class="st17" cx="2406.79" cy="2128.34" r="7.31"/>
	<circle class="st17" cx="2194.69" cy="1845.67" r="7.31"/>
	<circle class="st17" cx="2223.01" cy="1877.1" r="7.31"/>
	<circle class="st17" cx="2228.02" cy="1846.18" r="7.31"/>
	<path class="st13" d="M2172.76,2163.22c19.58,26.01,46.97,22.87,50.13,22.44c1.75-0.24,36.21-5.52,43.92-35.91
		c8.04-31.7-18.23-70.19-44.8-83.24c-1.72-0.85-39.68-18.74-58.59,8.73C2147.21,2098.8,2155.56,2140.37,2172.76,2163.22z"/>
	<circle class="st17" cx="2199.14" cy="2168.03" r="7.31"/>
	<circle class="st17" cx="2172.37" cy="2105.42" r="7.31"/>
	<circle class="st17" cx="2240.85" cy="2160.72" r="7.31"/>
	<circle class="st17" cx="2237.33" cy="2123" r="7.31"/>
	<circle class="st17" cx="2195.43" cy="2133.48" r="7.31"/>
	<circle class="st17" cx="2200.11" cy="2079.18" r="7.31"/>
</g>
<text transform="matrix(1 0 0 1 2129.9268 2290.6953)" class="st6 st1 st7">Geometric Hull</text>
<text transform="matrix(1 0 0 1 3623.0371 1713.1143)"><tspan x="0" y="0" class="st6 st1 st7">Reposition </tspan><tspan x="63.37" y="72" class="st6 st1 st7">Nodes</tspan></text>
<g>
	<path class="st18" d="M3523.69,1386.8l90.67,49.77c0,0,8.83-206.91,8.83-209.32c0-2.41-6.42-27.28-6.42-27.28"/>
	<polyline class="st19" points="3663.14,1576.43 3670.53,1467.06 3614.36,1436.57 	"/>
	<polyline class="st19" points="3816.64,1576.43 3819.67,1386.56 3969.9,1268.95 	"/>
	<polyline class="st19" points="3819.67,1386.56 3704.24,1259.35 3671.34,1239.69 3623.19,1227.25 	"/>
	<path class="st20" d="M3840.67,1303.33"/>
	<line class="st21" x1="3840.67" y1="1303.33" x2="3743.11" y2="1518.93"/>
	<line class="st21" x1="3569.64" y1="1356.87" x2="3576.46" y2="1512.1"/>
	<line class="st21" x1="3919.09" y1="1502.79" x2="3569.64" y2="1356.87"/>
	<circle class="st22" cx="3840.67" cy="1303.33" r="6.82"/>
	<circle class="st22" cx="3569.64" cy="1356.87" r="6.82"/>
	<circle class="st22" cx="3743.11" cy="1518.93" r="6.82"/>
	<circle class="st22" cx="3576.46" cy="1512.1" r="6.82"/>
	<circle class="st22" cx="3919.09" cy="1502.79" r="6.82"/>
	<g>
		<g>
			<line class="st4" x1="3692.39" y1="1354.97" x2="3736.29" y2="1500.96"/>
			<g>
				<polygon class="st5" points="3670.62,1369.14 3682.06,1320.61 3718.37,1354.78 				"/>
			</g>
		</g>
	</g>
</g>
<text transform="matrix(1 0 0 1 2888.6904 1079.6914)" class="st6 st1 st7">Coloring</text>
<g>
	<polygon class="st23" points="2941.83,562.92 3085.3,541.6 3119.01,590.95 3174.23,627.21 3236.45,725.03 3148.93,810.31 
		3113.53,890.45 2986.18,932.74 2864.31,868.6 2800.41,832.67 2810.62,766.89 2800.41,721.25 2826.86,696.2 2826.84,634.28 	"/>
	<polygon class="st24" points="2936.07,594.68 3050.13,577.73 3066.37,636.76 3120.83,645.79 3170.29,723.56 3100.72,791.36 
		3072.57,855.07 2971.32,888.69 2874.44,837.7 2823.64,809.13 2835.41,737.17 2852.31,720.93 2853.86,695.94 2844.65,651.41 	"/>
	<polygon class="st25" points="2927.9,629.99 2976.7,636.08 3007.67,638.92 3012.69,672.99 3001.81,688.61 2983.39,703.14 
		2961.63,733.21 2890.47,762.42 2870.38,737.17 2878.46,699.98 2886.76,692 2887.52,679.73 2883,657.86 	"/>
	<polygon class="st26" points="2937.62,649.98 2963.88,653.26 2980.55,654.79 2983.26,673.12 2977.4,681.53 2967.49,689.35 
		2955.77,705.53 2917.48,721.25 2906.66,707.66 2911.01,687.65 2915.48,683.35 2915.89,676.75 2913.45,664.98 	"/>
	<polygon class="st9" points="2941.51,662.7 2953.85,664.24 2961.69,664.96 2962.96,673.58 2960.21,677.53 2955.55,681.21 
		2950.04,688.81 2932.04,696.2 2926.96,689.82 2929,680.41 2931.1,678.39 2931.3,675.28 2930.15,669.75 	"/>
	<polygon class="st25" points="3006.83,737.17 3062.92,717.71 3119.01,706.35 3113.99,756.03 3068.78,787.26 3059.58,808.68 
		3042.83,829.84 3018.43,843.33 2996.96,835.71 2963.59,835.64 2940.7,820.62 2919.77,800.04 2949.66,769.87 2979.53,763.6 	"/>
	<polygon class="st26" points="3003.14,753.85 3043.67,739.78 3084.2,731.58 3080.57,767.48 3047.9,790.04 3041.26,805.52 
		3029.15,820.82 3011.52,830.56 2996.01,825.05 2971.89,825.01 2955.35,814.15 2940.22,799.28 2961.82,777.48 2983.41,772.95 	"/>
</g>
<text transform="matrix(1 0 0 1 2880.9629 1714.6025)" class="st6 st1 st7">Contouring</text>
<g>
	<path class="st27" d="M3051.14,1234.81c-50.27-12.57-60.08-20.31-92.11-19.92c-22.8,0.28-77.46,0.95-100.57,37.34
		c-8.25,12.98,0.96,57.95-4.44,89.43c-9.11,53.11-28.33,100.4-13.98,128.32c11,21.39,21.15,58.01,49.55,80.04
		c33.62,26.08,96.17,22.93,110.53,27.95c42.47,14.86,132.42-24.84,144.62-62.35c10.79-33.17,5-46.14,10.38-100.27
		c1.5-15.06,13.23-77.08-1.27-115.62C3139.48,1261.54,3099.07,1246.8,3051.14,1234.81z"/>
	<path class="st28" d="M2960.57,1269.66c-35.14,0.46-43.29,2.96-48.77,8.87c-13.34,14.4-3.25,40.92,3.75,58.65
		c14.27,36.12-60.57,86.45-36.12,123.91c34.38,52.67,75.23,54.74,106.95,74.49c15.82,9.85,63.43-5.84,79.81-16.04
		c13.35-8.31,31.76-30.49,34.27-66.54c4.71-67.61,1.93-76.34,10.2-103.71c8.19-27.14-3.96-64.46-42.89-72.23
		C3027.27,1268.97,3000.63,1269.14,2960.57,1269.66z"/>
	<path class="st28" d="M2964.59,1328.67c-2.56,12.05-18.53,50.13-45.78,96.85c-14.68,25.18,79.16,62.82,99.1,52.09
		c16.52-8.89,50.01-66.52,52.03-77.03c6.1-31.62-0.65-78.19-26.05-92c-11.78-6.4-23.72-3.68-42.4,0.59
		C2984,1313.17,2967.29,1315.94,2964.59,1328.67z"/>
	<path class="st28" d="M3026.8,1341.67c-8.62-2.97-23.71,8.38-22.87,20.33c1.02,14.37-50.58,67.32-44.47,72.42
		c10.75,8.97,41.93,22.87,62.25-8.89c9.89-15.45,21.98-50.82,19.61-58.64C3038.71,1358.2,3033.78,1344.07,3026.8,1341.67z"/>
</g>
<text transform="matrix(1 0 0 1 1446.0996 1712.9697)" class="st6 st1 st7">Edge-centered</text>
<g>
	<path class="st20" d="M1702.91,1229.85c0.04,10.77-19.12,85.36-20.18,93.37c-4.29,32.23-16.18,43.81-24.53,48.71
		c-12.74,7.48-22.29,2.38-75.09-3.37c-43.52-4.74-27.41-0.23-82.68-5.06c-26.36-2.31-46.68-4.79-69.18,5.91
		c-8.78,4.17-15.27,9.11-19.4,12.66"/>
	<path class="st20" d="M1572.93,1589.26c-21.39-25.57-25.03-61.58-9.28-90.27c14.58-26.56,48.08-32.35,86.9-39.65
		c52.98-9.96,58.36,4.03,102.08-7.59c27.12-7.21,69.22-18.4,89.43-53.15c10.11-17.38,9.77-32.1,25.31-43.03
		c14.88-10.46,33.53-9.86,47.25-7.59"/>
	<path class="st29" d="M1861.66,1482.77c0,0,7.74-80-3.49-87.51c-15.11-10.11-35.09-22.59-45.63-25.5c-17.07-4.73-54.13-5.8-70.87,0
		c-13.94,4.84-33.41,29.48-46.36,36.55c-10.97,5.99-35.1,13.51-47.28,16.3c-16.54,3.79-50.66,10.74-67.42,8.03
		c-11.06-1.78-31.58-12.34-40.57-19.02c-5.33-3.96-14.8-13.82-17.72-19.79c-8.57-17.56-17.99-117.54-17.99-117.54"/>
	<circle class="st30" cx="1861.66" cy="1482.77" r="29.8"/>
	<circle class="st30" cx="1504.33" cy="1274.3" r="29.8"/>
</g>
<text transform="matrix(1 0 0 1 1445.8057 1080.8169)" class="st6 st1 st7">Outline-centered</text>
<g>
	<path class="st31" d="M1621.31,630.86l79.02-9.78c9.96-1.23,19.53,3.29,21.86,10.32l7.42,22.46c1.73,5.23,7.59,9.26,14.97,10.28
		l27.31,3.77c5.6,0.77,10.42,3.29,13.15,6.87l33.11,43.36c3.85,5.04,2.88,11.27-2.43,15.59l-50.52,41
		c-1.52,1.23-2.71,2.65-3.53,4.19l-20.69,39.01c-1.92,3.63-5.91,6.5-10.98,7.9l-72.97,20.18c-5.56,1.54-11.8,1.13-16.88-1.09
		l-77.81-34.11l-34.89-16.34c-6.19-2.9-9.48-8.09-8.45-13.33l7.94-40.43c0.53-2.68,2.15-5.19,4.67-7.2l6.64-5.32
		c2.9-2.32,4.6-5.27,4.83-8.38l0.9-12.08c0.08-1.04-0.01-2.09-0.27-3.12l-5.68-22.88c-1.28-5.16,1.68-10.39,7.62-13.47l67.73-35.01
		C1615.73,632.03,1618.44,631.21,1621.31,630.86z"/>
	<polygon class="st32" points="1603.84,591.94 1626.71,572.69 1670.96,582.07 1689.8,560.32 1729.55,573.46 1734.86,615.99 
		1794.35,626.82 1804.65,666.07 1854.5,675.57 1862,677.08 1862,732.54 1840.31,743.07 1825.34,767.9 1788.47,775.17 1785.31,806.5 
		1753.79,821.67 1754.29,876.01 1706.93,887.7 1680.39,872.59 1642.69,912.68 1607.45,894.33 1551.01,899 1535.91,857.06 
		1533.88,827.86 1479.91,825.9 1485.12,794.38 1503.24,782.24 1492.88,747.39 1511.51,729.67 1479.91,704.91 1503.07,653.84 
		1532.11,655.64 1533.54,614.25 1597.87,619.86 	"/>
</g>
<text transform="matrix(1 0 0 1 4870.7588 1079.6138)" class="st6 st1 st7">Shape Deforming</text>
<g>
	<polygon class="st33" points="5159.24,690.03 5231.42,805.88 5216.13,848.68 5165.76,855.36 5169.51,903.23 5134.78,896.49 
		5074.47,896.81 5005.54,876.26 5007.68,822.75 5026.28,782.14 5016.21,697.08 5064.22,664.87 5114.28,665.2 	"/>
	<g>
		<g>
			<line class="st34" x1="5107.22" y1="781.43" x2="5126.24" y2="633.77"/>
			<g>
				<polygon class="st17" points="5136.75,643.12 5130.77,598.63 5113.7,640.15 				"/>
			</g>
		</g>
	</g>
	<g>
		<g>
			<line class="st34" x1="5107.22" y1="781.43" x2="5240.94" y2="712.84"/>
			<g>
				<polygon class="st17" points="5239.19,726.8 5272.47,696.66 5228.59,706.12 				"/>
			</g>
		</g>
	</g>
	<g>
		<g>
			<line class="st34" x1="5107.22" y1="781.43" x2="5191.02" y2="871.89"/>
			<g>
				<polygon class="st17" points="5177.11,873.97 5215.11,897.88 5194.16,858.17 				"/>
			</g>
		</g>
	</g>
	<g>
		<g>
			<line class="st34" x1="5107.22" y1="781.43" x2="5062.95" y2="877.67"/>
			<g>
				<polygon class="st17" points="5055.7,865.62 5048.14,909.87 5076.82,875.33 				"/>
			</g>
		</g>
	</g>
	<g>
		<g>
			<line class="st34" x1="5107.22" y1="781.43" x2="5001.45" y2="758.86"/>
			<g>
				<polygon class="st17" points="5011.63,749.15 4966.8,751.46 5006.78,771.88 				"/>
			</g>
		</g>
	</g>
	<polyline class="st35" points="5267.12,603.98 5259.84,650.64 5212.75,667.77 5188.35,663.49 5159.24,690.03 	"/>
	<polyline class="st35" points="4983.28,593.7 4997.41,648.07 5026.09,666.05 5064.19,664.77 	"/>
	<line class="st35" x1="5231.59" y1="806.05" x2="5282.96" y2="816.75"/>
	<line class="st35" x1="4969.15" y1="897.24" x2="5005.54" y2="876.26"/>
	<line class="st14" x1="5169.72" y1="903.02" x2="5179.57" y2="920.14"/>
	<circle class="st36" cx="5107.43" cy="781.64" r="7.58"/>
</g>
<text transform="matrix(1 0 0 1 4977.9932 1714.2822)" class="st6 st1 st7">Graphical</text>
<g>
	<circle class="st15" cx="5007.41" cy="1415.26" r="79.14"/>
	<circle class="st15" cx="5124.9" cy="1415.26" r="38.36"/>
	<circle class="st15" cx="5097.13" cy="1524.82" r="61.72"/>
	<circle class="st15" cx="5153.56" cy="1465.74" r="20.28"/>
	<circle class="st15" cx="5012.7" cy="1554.58" r="27.55"/>
	<circle class="st15" cx="5195.44" cy="1353.32" r="54.67"/>
	<circle class="st15" cx="5264.22" cy="1511.6" r="20.28"/>
	<circle class="st15" cx="5016.89" cy="1315.85" r="20.28"/>
	<circle class="st15" cx="5223.66" cy="1453.84" r="49.82"/>
</g>
<text transform="matrix(1 0 0 1 5635.085 1079.4282)" class="st6 st1 st7">Stretching</text>
<g>
	<g>
		<path class="st37" d="M5948.1,586.59h-10.69h-10.69h-10.69h-10.69h-10.69h-10.69h-10.69h-10.69h-10.69h-10.69h-10.69h-10.69
			h-10.69l-10.5-0.87l-10.6-0.96l-10.75-0.65l-10.83-0.31l-19.76-0.39"/>
		<path class="st37" d="M5952.22,615.09h-10.69h-10.69h-10.69h-10.69h-10.69h-10.69h-10.69l-9.99-1l-9.18-2.54l-9.62-2.41
			l-10.06-2.25l-10.48-2.03l-10.87-1.78l-11.2-1.48l-11.49-1.14l-11.69-0.77l-11.82-0.37l-15.03-0.13"/>
		<path class="st37" d="M5948.1,643.6h-10.69h-10.69h-10.69h-10.69l-9.86-0.72l-7.86-2.75l-8.35-2.76l-8.87-2.75l-9.41-2.71
			l-9.97-2.62l-10.54-2.49l-11.09-2.29l-11.62-2.04l-12.1-1.72l-12.5-1.35l-12.81-0.92l-13-0.45l-9.01-0.29"/>
		<path class="st37" d="M5948.1,672.1h-10.69h-10.69l-10.18-0.29l-6.76-2.41l-7.22-2.5l-7.72-2.58l-8.26-2.64l-8.86-2.69l-9.5-2.71
			l-10.18-2.69l-10.9-2.61l-11.63-2.48l-12.35-2.27l-13.04-1.97l-13.64-1.57l-14.11-1.09l-14.4-0.54l-9.27-0.01"/>
		<path class="st37" d="M5952.91,700.6h-10.69l-9.12-0.56l-6.09-1.79l-6.5-1.89l-6.96-1.99l-7.48-2.09l-8.05-2.18l-8.69-2.28
			l-9.4-2.35l-10.18-2.41l-11.04-2.43l-11.95-2.41l-12.91-2.31l-13.88-2.1l-14.8-1.76l-15.57-1.28l-16.08-0.65l-16.24,0.06"/>
		<path class="st37" d="M5948.1,729.11l-10.63-0.01l-5.51-0.95l-5.86-1.01l-6.27-1.07l-6.72-1.14l-7.23-1.22l-7.8-1.3l-8.45-1.38
			l-9.18-1.47l-9.99-1.55l-10.91-1.63l-11.93-1.7l-13.07-1.75l-14.32-1.74l-15.66-1.63l-16.97-1.34l-18-0.76l-11.57,0.17"/>
		<path class="st37" d="M5948.1,757.61l-9.33-0.01l-5.42-0.05l-5.77-0.05l-6.17-0.06l-6.61-0.06l-7.11-0.07l-7.68-0.07l-8.32-0.08
			l-9.04-0.08l-9.85-0.09l-10.76-0.1l-11.79-0.1l-12.96-0.11l-14.27-0.12l-15.75-0.13l-17.42-0.14l-19.29-0.15l-13.24,0.22"/>
		<path class="st37" d="M5948.1,786.11l-10.37,0.05l-5.49,0.85l-5.85,0.91l-6.25,0.97l-6.7,1.03l-7.21,1.1l-7.78,1.18l-8.43,1.25
			l-9.15,1.33l-9.97,1.41l-10.89,1.49l-11.92,1.57l-13.06,1.62l-14.33,1.64l-15.7,1.56l-17.08,1.31l-18.21,0.76l-12.71,0.3"/>
		<path class="st37" d="M5948.1,814.62h-10.69l-8.62,0.7l-6.06,1.71l-6.47,1.81l-6.93,1.91l-7.45,2.01l-8.02,2.11l-8.67,2.2
			l-9.38,2.28l-10.17,2.35l-11.03,2.38l-11.97,2.37l-12.95,2.28l-13.96,2.1l-14.92,1.78l-15.73,1.29l-16.28,0.66l-11.12,0.32"/>
		<path class="st37" d="M5948.1,843.12h-10.69h-10.69l-9.49,0.65l-6.73,2.36l-7.19,2.46l-7.69,2.54l-8.25,2.61l-8.85,2.66l-9.5,2.69
			l-10.2,2.68l-10.93,2.62l-11.68,2.49l-12.43,2.29l-13.14,1.99l-13.77,1.6l-14.26,1.11l-14.58,0.55l-9.34-0.02"/>
		<path class="st37" d="M5948.1,871.62h-10.69h-10.69h-10.69h-10.69l-9.06,1.38l-7.85,2.74l-8.34,2.76l-8.87,2.76l-9.43,2.72
			l-10,2.64l-10.58,2.51l-11.16,2.32l-11.71,2.07l-12.2,1.75l-12.62,1.37l-12.94,0.93l-13.14,0.46l-8.39-0.31"/>
		<path class="st37" d="M5948.1,900.13h-10.69h-10.69h-10.69h-10.69h-10.69h-10.69h-10.69l-9.22,2.05l-9.21,2.56l-9.67,2.44
			l-10.12,2.27l-10.55,2.06l-10.95,1.81l-11.3,1.5l-11.59,1.16l-9.66,0.27h-14.41h-7.55"/>
		<path class="st37" d="M5948.1,928.63h-10.69h-10.69h-10.69h-10.69h-10.69h-10.69h-10.69h-10.69h-10.69h-10.69h-10.69h-10.69
			l-10.38,1.11l-10.48,1.28l-10.69,0.98l-10.84,0.66l-10.94,0.32l-27.36-0.25"/>
		<path class="st37" d="M5930.29,568.77v10.69v10.69v10.69v10.69v10.69v10.69v10.69v10.69v10.69v10.69v10.69v10.69l1.03,10.37
			l1.4,10.41l1.11,10.65l0.79,10.82l0.46,10.94l0.11,10.99l-0.24,10.98l-0.58,10.9l-0.91,10.76l-1.22,10.57l-1.51,10.32l-0.44,10.54
			v10.69v10.69v10.69v10.69v10.69v10.69v10.69v10.69v10.69v10.69v10.69"/>
		<path class="st37" d="M5901.79,568.77v10.69v10.69v10.69v10.69v10.69v10.69v10.69l1.36,9.67l2.61,9.04l2.5,9.5l2.35,9.96
			l2.16,10.4l1.92,10.82l1.64,11.2l1.31,11.52l0.94,11.77l0.55,11.94l0.13,12.02l-0.29,12l-0.7,11.89l-1.08,11.69l-1.44,11.41
			l-1.75,11.06l-2.02,10.67l-2.24,10.24l-2.42,9.79l-2.55,9.33l-2.64,8.87l-0.37,10.4v10.69v10.69v10.69v10.69v10.69v10.69"/>
		<path class="st37" d="M5873.28,568.77v10.69v10.69v10.69v10.69l0.53,10.04l2.72,7.65l2.76,8.14l2.76,8.66l2.74,9.21l2.68,9.78
			l2.57,10.37l2.41,10.95l2.19,11.52l1.9,12.05l1.54,12.51l1.12,12.87l0.65,13.13l0.16,13.24l-0.35,13.22l-0.83,13.05l-1.28,12.75
			l-1.68,12.34l-2.01,11.86l-2.28,11.31l-2.48,10.74l-2.62,10.15l-2.71,9.57l-2.76,9l-2.76,8.46l-2.75,7.95l-2.23,8.08v10.69v10.69
			v10.69v10.69"/>
		<path class="st37" d="M5844.78,568.77v10.69v10.69v10.69l2.18,6.81l2.4,6.99l2.49,7.48l2.57,8.01l2.63,8.6l2.67,9.23l2.68,9.92
			l2.64,10.64l2.55,11.39l2.38,12.16l2.13,12.9l1.77,13.57l1.32,14.14l0.79,14.53l0.19,14.72l-0.42,14.68l-0.99,14.41l-1.5,13.94
			l-1.92,13.33l-2.23,12.62l-2.45,11.87l-2.59,11.11l-2.66,10.37l-2.68,9.66l-2.66,8.99l-2.61,8.37l-2.54,7.81l-2.46,7.29
			l-2.37,6.82l-1.31,8.3v10.69v10.69"/>
		<path class="st37" d="M5816.28,568.77v10.69l0.09,10.4l1.65,5.9l1.75,6.29l1.84,6.73l1.94,7.23l2.04,7.78l2.14,8.39l2.23,9.08
			l2.3,9.84l2.35,10.68l2.36,11.59l2.32,12.57l2.18,13.58l1.92,14.58l1.51,15.48l0.93,16.17l0.23,16.51l-0.5,16.43l-1.17,15.95
			l-1.68,15.17l-2.04,14.21l-2.24,13.2l-2.34,12.2l-2.37,11.24l-2.34,10.36l-2.28,9.55l-2.19,8.82l-2.1,8.16l-2,7.56l-1.9,7.03
			l-1.81,6.56l-1.71,6.14l-1.12,7.34v10.69"/>
		<path class="st37" d="M5787.77,568.77v10.69l0.55,7.11l0.85,5.69l0.91,6.08l0.97,6.51l1.03,6.99l1.1,7.54l1.18,8.15l1.25,8.84
			l1.33,9.62l1.41,10.5l1.49,11.49l1.56,12.59l1.59,13.82l1.57,15.16l1.42,16.57l1.02,17.88l0.28,18.67l-0.59,18.47l-1.21,17.43
			l-1.5,16.05l-1.59,14.65l-1.58,13.34l-1.53,12.16l-1.46,11.11l-1.38,10.16l-1.3,9.32l-1.22,8.58l-1.15,7.91l-1.08,7.33l-1.01,6.8
			l-0.95,6.34l-0.89,5.93l-0.83,5.56l-0.24,9.06"/>
		<path class="st37" d="M5759.27,568.77v10.69l-0.07,6.12l-0.09,5.63l-0.1,6l-0.1,6.43l-0.11,6.91l-0.12,7.45l-0.13,8.06l-0.14,8.74
			l-0.15,9.52l-0.16,10.39l-0.17,11.37l-0.18,12.48l-0.2,13.73l-0.21,15.14l-0.23,16.73l-0.25,18.52l-0.14,20.41l0.24,19.75
			l0.24,17.83l0.22,16.12l0.21,14.6l0.19,13.25l0.18,12.05l0.17,10.99l0.15,10.05l0.14,9.22l0.13,8.48l0.12,7.82l0.12,7.24
			l0.11,6.72l0.1,6.26l0.09,5.86l0.09,5.5l0.04,8.09"/>
	</g>
	<g>
		<path class="st37" d="M5564.76,929.87h10.69h10.69h10.69h10.69h10.69h10.69h10.69h10.69h10.69h10.69h10.69h10.69h10.69l10.51,0.87
			l10.6,0.96l10.75,0.65l10.83,0.31l10.86-0.03"/>
		<path class="st37" d="M5564.07,900.68h10.69h10.69h10.69h10.69h10.69h10.69h10.69l9.99,1l9.18,2.54l9.62,2.41l10.06,2.25
			l10.48,2.03l10.87,1.78l11.2,1.48l11.49,1.14l11.69,0.77l11.82,0.37l11.86-0.03"/>
		<path class="st37" d="M5563.38,872.18h10.69h10.69h10.69h10.69l9.86,0.72l7.86,2.75l8.35,2.76l8.87,2.75l9.41,2.71l9.97,2.62
			l10.54,2.49l11.09,2.29l11.62,2.04l12.1,1.72l12.5,1.35l12.81,0.92l13,0.45l13.05-0.04"/>
		<path class="st37" d="M5563.38,842.99h10.69h10.69l10.18,0.29l6.76,2.41l7.22,2.5l7.72,2.58l8.26,2.64l8.86,2.69l9.5,2.71
			l10.18,2.69l10.9,2.61l11.63,2.48l12.35,2.27l13.04,1.97l13.64,1.57l14.11,1.09l14.4,0.54l14.49-0.05"/>
		<path class="st37" d="M5563.38,813.8h10.69l9.12,0.56l6.09,1.79l6.5,1.89l6.96,1.99l7.48,2.09l8.05,2.18l8.69,2.28l9.4,2.35
			l10.18,2.41l11.04,2.43l11.95,2.41l12.91,2.31l13.88,2.1l14.8,1.76l15.57,1.28l16.08,0.65l16.24-0.06"/>
		<path class="st37" d="M5563.38,783.92l10.63,0.01l5.51,0.95l5.86,1.01l6.27,1.07l6.72,1.14l7.23,1.22l7.8,1.3l8.45,1.38l9.18,1.47
			l9.99,1.55l10.91,1.63l11.94,1.7l13.07,1.75l14.33,1.74l15.66,1.63l16.97,1.34l18,0.76l18.37-0.07"/>
		<path class="st37" d="M5563.38,754.73l9.33,0.01l5.42,0.05l5.77,0.05l6.17,0.06l6.61,0.06l7.11,0.07l7.68,0.07l8.32,0.08
			l9.04,0.08l9.85,0.09l10.76,0.1l11.79,0.1l12.96,0.11l14.27,0.12l15.75,0.13l17.41,0.14l19.29,0.15l20.63-0.03"/>
		<path class="st37" d="M5563.38,727.6l10.37-0.05l5.49-0.85l5.85-0.91l6.25-0.97l6.7-1.03l7.21-1.1l7.78-1.18l8.43-1.25l9.15-1.33
			l9.97-1.41l10.89-1.49l11.92-1.57l13.06-1.62l14.33-1.64l15.7-1.56l17.08-1.31l18.21-0.76l18.63,0.07"/>
		<path class="st37" d="M5563.38,699.78h10.69l8.62-0.7l6.06-1.71l6.47-1.81l6.93-1.91l7.45-2.01l8.02-2.11l8.67-2.2l9.38-2.28
			l10.17-2.35l11.03-2.38l11.97-2.37l12.95-2.28l13.96-2.1l14.92-1.78l15.73-1.29l16.28-0.66l16.46,0.06"/>
		<path class="st37" d="M5563.38,671.97h10.69h10.69l9.49-0.65l6.73-2.36l7.19-2.46l7.69-2.54l8.25-2.61l8.85-2.66l9.5-2.69
			l10.2-2.68l10.93-2.62l11.68-2.49l12.43-2.29l13.14-1.99l13.77-1.6l14.26-1.11l14.57-0.55l14.67,0.05"/>
		<path class="st37" d="M5563.38,644.15h10.69h10.69h10.69h10.69l9.06-1.38l7.85-2.74l8.34-2.76l8.87-2.76l9.43-2.72l10-2.64
			l10.58-2.51l11.16-2.32l11.71-2.07l12.2-1.75l12.62-1.37l12.94-0.93l13.14-0.46l13.2,0.04"/>
		<path class="st37" d="M5563.38,616.33h10.69h10.69h10.69h10.69h10.69h10.69h10.69l9.23-2.05l9.21-2.56l9.67-2.44l10.12-2.27
			l10.55-2.06l10.95-1.81l11.3-1.5l11.59-1.16l11.81-0.78l11.94-0.38l11.98,0.03"/>
		<path class="st37" d="M5563.38,587.83h10.69h10.69h10.69h10.69h10.69h10.69h10.69h10.69h10.69h10.69h10.69h10.69l10.38-1.11
			l10.48-1.28l10.69-0.98l10.84-0.66l10.93-0.32l10.96,0.03"/>
		<path class="st37" d="M5581.2,944.26v-10.69v-10.69v-10.69V901.5v-10.69v-10.69v-10.69v-10.69v-10.69v-10.69v-10.69v-10.69
			l-1.03-10.37l-1.4-10.41l-1.11-10.65l-0.79-10.82l-0.46-10.94l-0.11-10.99l0.24-10.98l0.58-10.9l0.91-10.76l1.22-10.57l1.51-10.32
			l0.44-10.54v-10.69v-10.69v-10.69v-10.69v-10.69v-10.69V612.9v-10.69v-10.69v-10.69v-10.69"/>
		<path class="st37" d="M5609.7,944.26v-10.69v-10.69v-10.69V901.5v-10.69v-10.69v-10.69l-1.36-9.67l-2.61-9.04l-2.5-9.5l-2.35-9.96
			l-2.16-10.4l-1.93-10.82l-1.64-11.2l-1.31-11.52l-0.94-11.77l-0.55-11.94l-0.13-12.02l0.29-12l0.7-11.89l1.08-11.69l1.44-11.41
			l1.75-11.06l2.02-10.67l2.24-10.24l2.41-9.79l2.55-9.33l2.64-8.87l0.37-10.4v-10.69V612.9v-10.69v-10.69v-10.69v-10.69"/>
		<path class="st37" d="M5638.2,944.26v-10.69v-10.69v-10.69V901.5l-0.53-10.04l-2.72-7.65l-2.76-8.14l-2.77-8.66l-2.74-9.21
			l-2.68-9.78l-2.57-10.37l-2.41-10.95l-2.19-11.52l-1.9-12.05l-1.54-12.51l-1.12-12.87l-0.65-13.13l-0.16-13.24l0.35-13.22
			l0.83-13.05l1.28-12.75l1.68-12.34l2.01-11.86l2.28-11.31l2.48-10.74l2.62-10.15l2.71-9.57l2.76-9l2.76-8.46l2.75-7.95l2.23-8.08
			v-10.69v-10.69v-10.69v-10.69"/>
		<path class="st37" d="M5666.71,944.26v-10.69v-10.69v-10.69l-2.18-6.81l-2.4-6.99l-2.49-7.48l-2.57-8.01l-2.63-8.6l-2.67-9.23
			l-2.68-9.92l-2.64-10.64l-2.55-11.39l-2.38-12.16l-2.13-12.9l-1.77-13.57l-1.32-14.14l-0.79-14.53l-0.19-14.72l0.42-14.68
			l0.99-14.41l1.5-13.94l1.92-13.33l2.23-12.62l2.45-11.87l2.59-11.11l2.66-10.37l2.68-9.66l2.66-8.99l2.61-8.37l2.54-7.81
			l2.46-7.29l2.37-6.82l1.31-8.3v-10.69v-10.69"/>
		<path class="st37" d="M5695.21,944.26v-10.69l-0.09-10.4l-1.65-5.9l-1.75-6.29l-1.84-6.73l-1.94-7.23l-2.04-7.78l-2.14-8.39
			l-2.23-9.08l-2.3-9.84l-2.35-10.68l-2.36-11.59l-2.32-12.57l-2.18-13.58l-1.92-14.58l-1.51-15.48l-0.94-16.17l-0.23-16.51
			l0.5-16.43l1.17-15.95l1.68-15.17l2.04-14.21l2.24-13.2l2.34-12.2l2.37-11.24l2.34-10.36l2.28-9.55l2.19-8.82l2.1-8.16l2-7.56
			l1.9-7.03l1.81-6.56l1.71-6.14l1.12-7.34v-10.69"/>
		<path class="st37" d="M5723.72,944.26v-10.69l-0.55-7.11l-0.85-5.69l-0.91-6.08l-0.97-6.51l-1.03-6.99l-1.1-7.54l-1.18-8.15
			l-1.25-8.84l-1.33-9.62l-1.41-10.5l-1.49-11.49l-1.56-12.59l-1.59-13.82l-1.57-15.16l-1.42-16.57l-1.02-17.88l-0.28-18.67
			l0.59-18.47l1.21-17.43l1.5-16.05l1.59-14.65l1.58-13.34l1.53-12.16l1.46-11.11l1.38-10.16l1.3-9.32l1.22-8.58l1.15-7.91
			l1.08-7.33l1.01-6.8l0.95-6.34l0.89-5.93l0.83-5.56l0.24-9.06"/>
	</g>
</g>
<text transform="matrix(1 0 0 1 5029.6191 2290.1943)" class="st6 st1 st7">Cellular</text>
<polygon class="st15" points="5205.91,1850.1 5114.16,1850.1 5114.16,1895.1 5022.4,1895.1 5022.4,1940.97 4976.53,1940.97 
	4976.53,1986.85 4930.65,1986.85 4930.65,2033.61 4976.53,2033.61 4976.53,2125.36 5068.28,2125.36 5068.28,2078.61 
	5114.16,2078.61 5114.16,2125.36 5160.03,2125.36 5160.03,2170.36 5205.91,2170.36 5205.91,2124.48 5251.79,2124.48 
	5251.79,2078.61 5205.91,2078.61 5205.91,2033.61 5160.03,2033.61 5160.03,1987.73 5251.79,1987.73 5251.79,1940.97 
	5297.67,1940.97 5297.67,1895.1 5205.91,1895.1 "/>
<text transform="matrix(1 0 0 1 699.1509 1080.1836)" class="st6 st1 st7">Importance labeling</text>
<text transform="matrix(1 0 0 1 5558.1309 1712.9336)" class="st6 st1 st7">Density-based</text>
<g>
	<rect x="5571.05" y="1250.05" class="st38" width="19.63" height="19.63"/>
	<rect x="5615.36" y="1251.39" class="st38" width="16.94" height="16.94"/>
	<rect x="5658.33" y="1251.39" class="st38" width="16.94" height="16.94"/>
	<rect x="5699.95" y="1250.05" class="st38" width="19.63" height="19.63"/>
	<rect x="5740.13" y="1247.26" class="st38" width="25.2" height="25.2"/>
	<rect x="5787.23" y="1251.39" class="st38" width="16.94" height="16.94"/>
	<rect x="5824.21" y="1245.4" class="st38" width="28.92" height="28.92"/>
	<rect x="5874.41" y="1252.63" class="st38" width="14.46" height="14.46"/>
	<rect x="5912.01" y="1247.26" class="st38" width="25.2" height="25.2"/>
	<rect x="5564.13" y="1286.1" class="st38" width="33.47" height="33.47"/>
	<rect x="5611.64" y="1290.64" class="st38" width="24.38" height="24.38"/>
	<rect x="5657.6" y="1293.64" class="st38" width="18.39" height="18.39"/>
	<rect x="5693.03" y="1286.1" class="st38" width="33.47" height="33.47"/>
	<rect x="5740.55" y="1290.64" class="st38" width="24.38" height="24.38"/>
	<rect x="5790.23" y="1297.36" class="st38" width="10.95" height="10.95"/>
	<rect x="5831.24" y="1295.39" class="st38" width="14.87" height="14.87"/>
	<rect x="5864.91" y="1286.1" class="st38" width="33.47" height="33.47"/>
	<rect x="5915.11" y="1293.33" class="st38" width="19.01" height="19.01"/>
	<rect x="5572.18" y="1337.12" class="st38" width="17.35" height="17.35"/>
	<rect x="5611.23" y="1333.2" class="st38" width="25.2" height="25.2"/>
	<rect x="5647.38" y="1326.38" class="st38" width="38.84" height="38.84"/>
	<rect x="5693.03" y="1329.07" class="st38" width="33.47" height="33.47"/>
	<rect x="5743.44" y="1336.5" class="st38" width="18.59" height="18.59"/>
	<rect x="5787.03" y="1337.12" class="st38" width="17.35" height="17.35"/>
	<rect x="5826.07" y="1333.2" class="st38" width="25.2" height="25.2"/>
	<rect x="5864.91" y="1329.07" class="st38" width="33.47" height="33.47"/>
	<rect x="5909.74" y="1330.92" class="st38" width="29.75" height="29.75"/>
	<rect x="5567.95" y="1375.86" class="st38" width="25.82" height="25.82"/>
	<rect x="5610.92" y="1375.86" class="st38" width="25.82" height="25.82"/>
	<rect x="5650.58" y="1372.55" class="st38" width="32.43" height="32.43"/>
	<rect x="5699.95" y="1378.96" class="st38" width="19.63" height="19.63"/>
	<rect x="5739.82" y="1375.86" class="st38" width="25.82" height="25.82"/>
	<rect x="5779.49" y="1372.55" class="st38" width="32.43" height="32.43"/>
	<rect x="5821.94" y="1372.03" class="st38" width="33.47" height="33.47"/>
	<rect x="5865.43" y="1372.55" class="st38" width="32.43" height="32.43"/>
	<rect x="5914.8" y="1378.96" class="st38" width="19.63" height="19.63"/>
	<rect x="5571.56" y="1422.44" class="st38" width="18.59" height="18.59"/>
	<rect x="5611.64" y="1419.55" class="st38" width="24.38" height="24.38"/>
	<rect x="5650.58" y="1415.52" class="st38" width="32.43" height="32.43"/>
	<rect x="5696.75" y="1418.72" class="st38" width="26.03" height="26.03"/>
	<rect x="5743.44" y="1422.44" class="st38" width="18.59" height="18.59"/>
	<rect x="5781.45" y="1417.48" class="st38" width="28.51" height="28.51"/>
	<rect x="5829.38" y="1422.44" class="st38" width="18.59" height="18.59"/>
	<rect x="5868.63" y="1418.72" class="st38" width="26.03" height="26.03"/>
	<rect x="5908.4" y="1415.52" class="st38" width="32.43" height="32.43"/>
	<rect x="5575.69" y="1469.54" class="st38" width="10.33" height="10.33"/>
	<rect x="5615.36" y="1466.24" class="st38" width="16.94" height="16.94"/>
	<rect x="5658.33" y="1466.24" class="st38" width="16.94" height="16.94"/>
	<rect x="5704.6" y="1469.54" class="st38" width="10.33" height="10.33"/>
	<rect x="5740.55" y="1462.52" class="st38" width="24.38" height="24.38"/>
	<rect x="5783.52" y="1462.52" class="st38" width="24.38" height="24.38"/>
	<rect x="5826.49" y="1462.52" class="st38" width="24.38" height="24.38"/>
	<rect x="5875.86" y="1468.92" class="st38" width="11.57" height="11.57"/>
	<rect x="5914.8" y="1464.89" class="st38" width="19.63" height="19.63"/>
	<rect x="5559.65" y="1496.47" class="st38" width="42.42" height="42.41"/>
	<rect x="5613.27" y="1507.46" class="st38" width="21.12" height="20.44"/>
	<rect x="5655.26" y="1506.45" class="st38" width="23.08" height="22.46"/>
	<rect x="5692.16" y="1500.2" class="st38" width="35.2" height="34.96"/>
	<rect x="5741.35" y="1506.61" class="st38" width="22.77" height="22.14"/>
	<rect x="5787.22" y="1509.6" class="st38" width="16.97" height="16.16"/>
	<rect x="5821.68" y="1500.82" class="st38" width="33.99" height="33.71"/>
	<rect x="5863.16" y="1499.28" class="st38" width="36.97" height="36.79"/>
	<rect x="5913.44" y="1506.54" class="st38" width="22.34" height="22.27"/>
	<rect x="5567.28" y="1547.31" class="st38" width="27.16" height="26.66"/>
	<rect x="5607.75" y="1544.74" class="st38" width="32.15" height="31.81"/>
	<rect x="5658.21" y="1552.46" class="st38" width="17.18" height="16.37"/>
	<rect x="5695.82" y="1546.94" class="st38" width="27.88" height="27.41"/>
	<rect x="5732.96" y="1540.92" class="st38" width="39.55" height="39.44"/>
	<rect x="5779.21" y="1544.3" class="st38" width="33" height="32.69"/>
	<rect x="5825.35" y="1547.32" class="st38" width="26.65" height="26.65"/>
	<rect x="5864.91" y="1544.5" class="st38" width="33.47" height="32.28"/>
	<rect x="5906.69" y="1542.83" class="st38" width="35.85" height="35.63"/>
</g>
<text transform="matrix(1 0 0 1 221.3191 439.3569)" class="st1 st2">Category</text>
<text transform="matrix(1 0 0 1 3679.4128 439.3569)" class="st1 st2">Point</text>
<text transform="matrix(1 0 0 1 4360.4053 439.3569)" class="st1 st2">Line</text>
<text transform="matrix(1 0 0 1 5019.4248 439.3569)" class="st1 st2">Area</text>
<text transform="matrix(1 0 0 1 5684.4385 439.3569)" class="st1 st2">Field</text>
<polyline class="st39" points="3429.07,492 3429.07,466 4069.37,466 4069.37,492 "/>
<polyline class="st39" points="4102.85,492 4102.85,466 4743.15,466 4743.15,492 "/>
<polyline class="st39" points="4776.63,492 4776.63,466 5416.93,466 5416.93,492 "/>
<polyline class="st39" points="3412,307 3412,281 6114,281 6114,307 "/>
<polyline class="st39" points="661,307 661,281 3346,281 3346,307 "/>
<polyline class="st39" points="652,135 652,109 6125,109 6125,135 "/>
<polyline class="st39" points="5450.42,492 5450.42,466 6090.71,466 6090.71,492 "/>
<polyline class="st39" points="668.07,492 668.07,466 1308.37,466 1308.37,492 "/>
<polyline class="st39" points="1341.85,492 1341.85,466 1982.15,466 1982.15,492 "/>
<polyline class="st39" points="2015.63,492 2015.63,466 2655.93,466 2655.93,492 "/>
<polyline class="st39" points="2689.41,492 2689.41,466 3329.71,466 3329.71,492 "/>
<text transform="matrix(1 0 0 1 920.4128 439.3569)" class="st1 st2">Point</text>
<text transform="matrix(1 0 0 1 1601.4053 439.3569)" class="st1 st2">Line</text>
<text transform="matrix(1 0 0 1 2260.4248 439.3569)" class="st1 st2">Area</text>
<text transform="matrix(1 0 0 1 2925.4385 439.3569)" class="st1 st2">Field</text>
<text transform="matrix(1 0 0 1 137.2957 260.3569)" class="st1 st2">Perspective</text>
<text transform="matrix(1 0 0 1 4513.3389 260.3569)" class="st1 st2">Schematization</text>
<text transform="matrix(1 0 0 1 1864.4131 260.3569)" class="st1 st2">Imitation</text>
<text transform="matrix(1 0 0 1 3036.3154 86.3569)" class="st1 st2">Map-like Visualization</text>
<g>
	<polygon class="st13" points="2277.2,1295.05 2358.92,1257.93 2375.73,1269.38 2428.5,1252.98 2450.66,1329.53 2445,1341.27 
		2470.37,1396.48 2418.95,1454.77 2364.43,1438.36 2334.7,1457.05 2323.02,1506.74 2260.45,1511.45 2221.16,1453.2 2260,1419.67 
		2260.1,1407.23 2211.26,1352.17 2226.28,1304.11 	"/>
	<circle class="st40" cx="2238.55" cy="1235.68" r="3.84"/>
	<circle class="st41" cx="2334.46" cy="1311.58" r="3.84"/>
	<circle class="st40" cx="2321.16" cy="1235.68" r="3.84"/>
	<circle class="st40" cx="2385.56" cy="1227.31" r="3.84"/>
	<circle class="st41" cx="2246.26" cy="1348.67" r="3.84"/>
	<circle class="st41" cx="2412.75" cy="1394.17" r="3.84"/>
	<circle class="st40" cx="2481.89" cy="1453.2" r="3.84"/>
	<circle class="st40" cx="2474.21" cy="1265.23" r="3.84"/>
	<circle class="st41" cx="2404.33" cy="1311.17" r="3.84"/>
	<circle class="st40" cx="2498.84" cy="1348.67" r="3.84"/>
	<circle class="st41" cx="2312.61" cy="1398.01" r="3.84"/>
	<circle class="st40" cx="2474.21" cy="1529.86" r="3.84"/>
	<circle class="st41" cx="2273.54" cy="1468.26" r="3.84"/>
	<circle class="st40" cx="2377.88" cy="1500.09" r="3.84"/>
	<circle class="st40" cx="2202.9" cy="1503.94" r="3.84"/>
	<circle class="st40" cx="2203.05" cy="1392.64" r="3.84"/>
	<circle class="st40" cx="2312.61" cy="1547.82" r="3.84"/>
	<circle class="st40" cx="2173.5" cy="1555.51" r="3.84"/>
	<circle class="st40" cx="2183.81" cy="1328.24" r="3.84"/>
	<circle class="st40" cx="2169.66" cy="1235.68" r="3.84"/>
	<g>
		<g>
			<line class="st42" x1="2444.89" y1="1341.02" x2="2443.9" y2="1341.15"/>
			<line class="st43" x1="2441.88" y1="1341.41" x2="2370.2" y2="1350.64"/>
			<line class="st42" x1="2369.19" y1="1350.77" x2="2368.2" y2="1350.89"/>
		</g>
	</g>
	<line class="st44" x1="2450.66" y1="1329.53" x2="2444.89" y2="1341.02"/>
	<g>
		<g>
			<line class="st42" x1="2376.22" y1="1268.89" x2="2376.13" y2="1269.88"/>
			<line class="st45" x1="2375.93" y1="1271.84" x2="2368.39" y2="1348.92"/>
			<line class="st42" x1="2368.3" y1="1349.9" x2="2368.2" y2="1350.89"/>
		</g>
	</g>
	<line class="st44" x1="2428.5" y1="1252.98" x2="2375.73" y2="1269.38"/>
	<line class="st44" x1="2358.92" y1="1257.93" x2="2277.43" y2="1295.7"/>
	<line class="st44" x1="2375.73" y1="1269.38" x2="2358.92" y2="1257.93"/>
	<line class="st44" x1="2359.6" y1="1258.42" x2="2346.56" y2="1211.14"/>
	<line class="st44" x1="2277.2" y1="1295.05" x2="2225.36" y2="1303.63"/>
	<line class="st46" x1="2211.1" y1="1212.37" x2="2194.7" y2="1265.28"/>
	<line class="st44" x1="2194.27" y1="1264.41" x2="2137.57" y2="1271.71"/>
	<line class="st44" x1="2226.28" y1="1304.11" x2="2194.7" y2="1265.28"/>
	<line class="st44" x1="2211.26" y1="1352.17" x2="2136.17" y2="1382.57"/>
	<g>
		<g>
			<line class="st42" x1="2297.16" y1="1351.62" x2="2296.61" y2="1352.45"/>
			<line class="st47" x1="2295.52" y1="1354.09" x2="2261.2" y2="1405.58"/>
			<line class="st42" x1="2260.65" y1="1406.4" x2="2260.1" y2="1407.23"/>
		</g>
	</g>
	<g>
		<g>
			<line class="st42" x1="2277.2" y1="1295.05" x2="2277.54" y2="1295.99"/>
			<line class="st48" x1="2278.2" y1="1297.88" x2="2296.5" y2="1349.74"/>
			<line class="st42" x1="2296.83" y1="1350.68" x2="2297.16" y2="1351.62"/>
		</g>
	</g>
	<line class="st44" x1="2260.32" y1="1406.98" x2="2260" y2="1419.67"/>
	<line class="st44" x1="2211.26" y1="1352.17" x2="2260.1" y2="1407.23"/>
	<line class="st44" x1="2226.94" y1="1303.57" x2="2211.08" y2="1352.58"/>
	<line class="st44" x1="2277.43" y1="1295.7" x2="2284.61" y2="1211.14"/>
	<line class="st44" x1="2428.5" y1="1252.98" x2="2474.21" y2="1211.63"/>
	<line class="st44" x1="2428.5" y1="1252.98" x2="2450.66" y2="1329.53"/>
	<line class="st44" x1="2523.03" y1="1306.15" x2="2450.66" y2="1329.53"/>
	<line class="st44" x1="2445" y1="1341.27" x2="2470.37" y2="1396.48"/>
	<g>
		<g>
			<line class="st42" x1="2368.2" y1="1350.89" x2="2367.6" y2="1351.69"/>
			<line class="st49" x1="2366.33" y1="1353.38" x2="2361.9" y2="1359.26"/>
			<line class="st42" x1="2361.26" y1="1360.1" x2="2360.66" y2="1360.9"/>
		</g>
	</g>
	<g>
		<g>
			<line class="st42" x1="2360.66" y1="1360.9" x2="2360.71" y2="1361.9"/>
			<line class="st50" x1="2360.81" y1="1363.94" x2="2364.33" y2="1436.34"/>
			<line class="st42" x1="2364.38" y1="1437.36" x2="2364.43" y2="1438.36"/>
		</g>
	</g>
	<g>
		<g>
			<line class="st42" x1="2297.16" y1="1351.62" x2="2298.15" y2="1351.77"/>
			<line class="st51" x1="2300.14" y1="1352.06" x2="2358.68" y2="1360.61"/>
			<line class="st42" x1="2359.67" y1="1360.76" x2="2360.66" y2="1360.9"/>
		</g>
	</g>
	<line class="st44" x1="2221.16" y1="1453.2" x2="2260.45" y2="1511.45"/>
	<line class="st44" x1="2334.38" y1="1457.05" x2="2323.02" y2="1506.74"/>
	<line class="st44" x1="2364.43" y1="1438.36" x2="2334.7" y2="1457.05"/>
	<line class="st44" x1="2364.43" y1="1438.36" x2="2418.95" y2="1454.77"/>
	<line class="st44" x1="2418.95" y1="1454.77" x2="2443.86" y2="1500.09"/>
	<line class="st44" x1="2443.86" y1="1500.09" x2="2523.29" y2="1506.37"/>
	<line class="st44" x1="2443.86" y1="1500.09" x2="2398.05" y2="1547.82"/>
	<line class="st44" x1="2323.02" y1="1506.74" x2="2398.05" y2="1547.82"/>
	<line class="st44" x1="2260.45" y1="1511.45" x2="2235.68" y2="1546.17"/>
	<line class="st44" x1="2323.02" y1="1506.74" x2="2260.45" y2="1511.45"/>
	<line class="st44" x1="2235.68" y1="1546.17" x2="2243.93" y2="1586.39"/>
	<line class="st44" x1="2135.86" y1="1446.62" x2="2221.16" y2="1453.2"/>
	<g>
		<g>
			<line class="st42" x1="2260" y1="1419.67" x2="2260.89" y2="1420.12"/>
			<line class="st52" x1="2262.67" y1="1421.01" x2="2332.91" y2="1456.15"/>
			<line class="st42" x1="2333.8" y1="1456.6" x2="2334.7" y2="1457.05"/>
		</g>
	</g>
	<line class="st44" x1="2260" y1="1419.67" x2="2221.16" y2="1453.2"/>
	<line class="st44" x1="2470.37" y1="1396.48" x2="2523.29" y2="1408.35"/>
	<line class="st44" x1="2418.95" y1="1454.77" x2="2470.37" y2="1396.48"/>
	<line class="st44" x1="2398.05" y1="1547.82" x2="2403.29" y2="1584.7"/>
	<line class="st44" x1="2139.16" y1="1496.9" x2="2235.68" y2="1546.17"/>
</g>
<text transform="matrix(1 0 0 1 2029.6396 1714.2764)" class="st6 st1 st7">Geometric Tessellation</text>
<g>
	<polygon class="st53" points="4407.52,624.21 4423.32,609.46 4453.87,616.65 4466.88,599.99 4494.33,610.05 4498,642.62 
		4539.07,650.92 4546.19,680.98 4580.61,688.25 4585.79,689.41 4585.79,731.88 4570.81,739.95 4560.47,758.96 4529.12,750.4 
		4532.83,788.52 4511.07,800.14 4511.41,841.75 4478.71,850.71 4460.38,839.14 4434.35,869.84 4410.02,855.78 4371.04,859.36 
		4360.61,827.25 4359.22,804.88 4321.95,803.38 4325.54,779.24 4338.06,769.94 4330.91,743.26 4343.77,729.69 4321.95,710.72 
		4337.94,671.61 4357.99,672.99 4358.98,641.29 4403.4,645.59 	"/>
	<g>
		<path class="st54" d="M4388.26,605.43c2.59-1.68,5.41-3.03,8.4-4.03c17.71-5.93,81.29-25.96,100.35-14.69
			c7.22,4.27,10.98,20.04,12.93,33.86c1.93,13.72,13.45,24.78,28.61,27.41l7.05,1.22c10.44,1.81,19.43,7.69,24.52,16.04l25.51,41.83
			c7.18,11.78,5.37,26.33-4.54,36.4l-43.24,43.95c-2.83,2.88-5.06,6.19-6.58,9.78l-17.96,42.42c-3.59,8.47-11.03,15.18-20.47,18.45
			l-61.9,21.44c-10.36,3.59-22.01,2.64-31.48-2.56l-74.13-40.69l-27.84-16.33c-11.54-6.77-17.69-18.9-15.77-31.14l6.18-39.43
			c0.98-6.26,4.01-12.11,8.72-16.83l0,0c5.4-5.41,8.58-12.32,9.01-19.57l0.54-9.12c0.15-2.44-0.02-4.88-0.5-7.28l-3.85-19.41
			c-2.39-12.06,3.13-24.28,14.21-31.45L4388.26,605.43z"/>
	</g>
</g>
<g>
	<circle class="st17" cx="753.12" cy="738.77" r="9.3"/>
	<circle class="st17" cx="993.18" cy="926.67" r="9.3"/>
	<circle class="st17" cx="1067.03" cy="593.34" r="9.3"/>
	<circle class="st17" cx="1026.14" cy="663.83" r="9.3"/>
	<circle class="st17" cx="1138.93" cy="738.56" r="9.3"/>
	<circle class="st17" cx="1069.85" cy="856.99" r="9.3"/>
	<circle class="st17" cx="835.81" cy="797.77" r="9.3"/>
	<circle class="st17" cx="768.13" cy="917.61" r="9.3"/>
	<text transform="matrix(1 0 0 1 1083.1748 599.6348)" class="st55 st56">level 1</text>
	<text transform="matrix(1 0 0 1 1053.5664 678.5884)" class="st55 st57">level 2</text>
	<text transform="matrix(1 0 0 1 1095.8623 871.7432)" class="st55 st57">level 2</text>
	<text transform="matrix(1 0 0 1 794.147 932.3682)" class="st55 st57">level 2</text>
	<text transform="matrix(1 0 0 1 874.5098 813.938)" class="st55 st58">level 3</text>
	<text transform="matrix(1 0 0 1 1159.3096 746.2632)" class="st55 st56">level 1</text>
	<text transform="matrix(1 0 0 1 1015.5 933.7778)" class="st55 st56">level 1</text>
	<text transform="matrix(1 0 0 1 775.8174 744.8525)" class="st55 st56">level 1</text>
</g>
</svg>
