<?xml version="1.0" encoding="utf-8"?>
<!-- Generator: Adobe Illustrator 23.1.0, SVG Export Plug-In . SVG Version: 6.00 Build 0)  -->
<svg version="1.1" id="Layer_1" xmlns="http://www.w3.org/2000/svg" xmlns:xlink="http://www.w3.org/1999/xlink" x="0px" y="0px"
	 viewBox="0 0 574 29.29" style="enable-background:new 0 0 574 29.29;" xml:space="preserve">
<style type="text/css">
	.st0{fill:#010101;}
	.st1{fill:#FFFFFF;}
	.st2{font-family:'Lato-Regular';}
	.st3{font-size:10px;}
	.st4{font-family:'AUPassata-Regular';}
	.st5{font-size:14.3141px;}
</style>
<g>
	<g>
		<path class="st0" d="M549.63,16.38c-1.17-1.77-3.07-2.9-5.19-3.1c-2.18-0.21-4.22,0.54-5.69,2.07c-0.89,0.94-1.48,1.98-1.82,3.25
			c-0.15,0.56-0.17,0.77-0.17,1.68c0,0.9,0.02,1.12,0.18,1.7c0.67,2.54,2.66,4.5,5.22,5.13c0.22,0.05,0.49,0.11,0.6,0.13
			c0.49,0.07,1.67,0.04,2.19-0.05c2.16-0.38,4.08-1.77,5.07-3.68C551.16,21.29,551.01,18.46,549.63,16.38z M549.34,21.76
			c-0.56,2.09-2.28,3.69-4.45,4.14c-3.38,0.7-6.68-1.86-6.89-5.35c-0.14-2.25,1.23-4.51,3.32-5.5c0.79-0.38,1.43-0.51,2.4-0.52
			c0.93,0,1.44,0.09,2.26,0.42c1.63,0.65,2.9,2.13,3.37,3.9C549.55,19.59,549.54,21.02,549.34,21.76z"/>
		<path class="st0" d="M541.01,22.31c-0.64-0.23-1.13-0.89-1.22-1.65c-0.13-1.12,0.29-2,1.16-2.39c0.47-0.21,1.32-0.21,1.82,0.01
			c0.31,0.13,0.88,0.65,0.88,0.8c0,0.02-0.2,0.14-0.44,0.26l-0.44,0.22l-0.24-0.24c-0.13-0.13-0.33-0.25-0.46-0.28
			c-0.3-0.06-0.67,0.08-0.83,0.31c-0.27,0.38-0.29,1.38-0.03,1.77c0.13,0.2,0.36,0.35,0.57,0.36c0.44,0.03,0.56,0,0.82-0.28
			l0.27-0.28l0.34,0.19c0.19,0.1,0.37,0.21,0.4,0.24c0.12,0.1-0.41,0.64-0.84,0.86c-0.36,0.18-0.48,0.2-0.95,0.2
			C541.53,22.41,541.16,22.37,541.01,22.31z"/>
		<path class="st0" d="M545.08,22.31c-0.63-0.22-1.11-0.87-1.22-1.63c-0.15-1.1,0.29-2.02,1.16-2.41c0.5-0.23,1.35-0.21,1.86,0.04
			c0.32,0.15,0.84,0.64,0.84,0.77c0,0.02-0.21,0.14-0.46,0.26l-0.46,0.22l-0.24-0.26c-0.21-0.23-0.27-0.26-0.56-0.26
			c-0.4,0-0.66,0.16-0.8,0.49c-0.13,0.3-0.14,1.02-0.03,1.35c0.23,0.67,1.05,0.83,1.52,0.29l0.21-0.24l0.41,0.21
			c0.22,0.11,0.41,0.22,0.41,0.25c0,0.15-0.53,0.64-0.88,0.82c-0.36,0.18-0.48,0.2-0.95,0.2C545.6,22.41,545.23,22.37,545.08,22.31z
			"/>
	</g>
	<g>
		<circle class="st1" cx="560.35" cy="20.34" r="6.17"/>
		<g>
			<path class="st0" d="M560.31,13.3c1.96,0,3.61,0.67,4.96,2.02c1.35,1.35,2.03,3.01,2.03,4.96c0,1.96-0.66,3.59-1.99,4.9
				c-1.41,1.39-3.08,2.08-5,2.08c-1.89,0-3.52-0.69-4.91-2.06c-1.37-1.37-2.06-3.01-2.06-4.92c0-1.91,0.69-3.56,2.06-4.96
				C556.74,13.97,558.38,13.3,560.31,13.3z M560.33,14.56c-1.59,0-2.93,0.56-4.02,1.67c-1.14,1.16-1.71,2.51-1.71,4.05
				c0,1.55,0.56,2.88,1.69,4.01c1.13,1.13,2.48,1.69,4.04,1.69c1.55,0,2.91-0.57,4.06-1.71c1.1-1.05,1.64-2.39,1.64-4
				c0-1.59-0.56-2.94-1.67-4.05C563.25,15.11,561.91,14.56,560.33,14.56z M562.2,18.54v2.85h-0.8v3.39h-2.17V21.4h-0.8v-2.85
				c0-0.12,0.04-0.23,0.13-0.32c0.09-0.09,0.19-0.13,0.32-0.13h2.87c0.12,0,0.22,0.04,0.31,0.13
				C562.15,18.31,562.2,18.42,562.2,18.54z M559.35,16.75c0-0.66,0.32-0.98,0.97-0.98s0.97,0.33,0.97,0.98
				c0,0.65-0.32,0.97-0.97,0.97C559.67,17.72,559.35,17.4,559.35,16.75z"/>
		</g>
	</g>
</g>
<text transform="matrix(1 0 0 1 352.9136 11.5234)"><tspan x="0" y="0" class="st2 st3">This work is published under a Creative Commons </tspan><tspan x="0" y="12" class="st2 st3">Attribution 4.0 International License.</tspan></text>
<g>
	<g>
		<path d="M13.79,3.55L7.3,10.03H3.76L13.79,0V3.55z"/>
		<path d="M23.81,5.01c0,0.7-0.13,1.35-0.39,1.96c-0.26,0.61-0.62,1.14-1.07,1.59c-0.45,0.45-0.99,0.81-1.59,1.07
			c-0.61,0.26-1.26,0.4-1.96,0.4c-0.46,0-0.91-0.06-1.33-0.18c-0.43-0.12-0.83-0.29-1.2-0.51c-0.37-0.22-0.71-0.48-1.01-0.78
			c-0.3-0.3-0.56-0.64-0.78-1.01c-0.22-0.37-0.39-0.77-0.51-1.2c-0.12-0.43-0.18-0.87-0.18-1.33h2.51c0,0.34,0.07,0.66,0.2,0.97
			c0.13,0.3,0.31,0.57,0.54,0.8c0.23,0.23,0.49,0.41,0.8,0.54c0.3,0.13,0.63,0.2,0.97,0.2c0.35,0,0.67-0.07,0.98-0.2
			c0.3-0.13,0.57-0.31,0.8-0.54c0.23-0.23,0.41-0.49,0.54-0.8c0.13-0.3,0.2-0.63,0.2-0.97H23.81z"/>
		<path d="M3.54,12.03l6.49,6.48v3.55L0,12.03H3.54z"/>
		<path d="M12.54,12.03c0.17,0,0.34,0.03,0.49,0.1c0.15,0.07,0.29,0.16,0.4,0.27c0.11,0.11,0.2,0.25,0.26,0.4
			c0.06,0.15,0.1,0.32,0.1,0.49c0,0.17-0.03,0.34-0.1,0.49c-0.06,0.15-0.15,0.28-0.26,0.39c-0.11,0.11-0.24,0.2-0.4,0.27
			c-0.15,0.07-0.32,0.1-0.49,0.1c-0.17,0-0.34-0.03-0.49-0.1c-0.15-0.07-0.29-0.16-0.4-0.27c-0.11-0.11-0.2-0.24-0.27-0.39
			c-0.07-0.15-0.1-0.31-0.1-0.49c0-0.17,0.03-0.34,0.1-0.49c0.07-0.15,0.16-0.29,0.27-0.4c0.11-0.11,0.25-0.2,0.4-0.27
			C12.21,12.07,12.37,12.03,12.54,12.03z M11.28,22.06v-5.01h2.51v2.51L11.28,22.06z"/>
		<path d="M15.04,17.05c0-0.46,0.06-0.91,0.18-1.33c0.12-0.43,0.29-0.83,0.51-1.2c0.22-0.37,0.48-0.71,0.78-1.01
			c0.3-0.3,0.64-0.56,1.01-0.78c0.37-0.22,0.77-0.39,1.2-0.51c0.43-0.12,0.87-0.18,1.33-0.18v2.51c-0.35,0-0.67,0.07-0.98,0.2
			c-0.3,0.13-0.57,0.31-0.8,0.54c-0.23,0.23-0.41,0.49-0.54,0.8c-0.13,0.3-0.2,0.63-0.2,0.97H15.04z M20.05,19.55
			c0.35,0,0.67-0.07,0.98-0.2c0.3-0.13,0.57-0.31,0.8-0.54c0.23-0.23,0.41-0.49,0.54-0.8c0.13-0.3,0.2-0.63,0.2-0.97h2.51
			c0,0.7-0.13,1.35-0.39,1.96c-0.26,0.61-0.62,1.14-1.07,1.59c-0.45,0.45-0.99,0.81-1.59,1.07c-0.61,0.26-1.26,0.4-1.96,0.4V19.55z"
			/>
	</g>
	<text transform="matrix(1 0 0 1 30.3908 16.3036)" class="st4 st5">AU Visualization Research</text>
</g>
</svg>
