<?xml version="1.0" encoding="utf-8"?>
<!-- Generator: Adobe Illustrator 23.1.0, SVG Export Plug-In . SVG Version: 6.00 Build 0)  -->
<svg version="1.1" id="Layer_1" xmlns="http://www.w3.org/2000/svg" xmlns:xlink="http://www.w3.org/1999/xlink" x="0px" y="0px"
	 viewBox="0 0 574 29.29" style="enable-background:new 0 0 574 29.29;" xml:space="preserve">
<style type="text/css">
	.st0{fill:#010101;}
	.st1{fill:#FFFFFF;}
</style>
<g>
	<g>
		<path class="st0" d="M549.63,16.38c-1.17-1.77-3.07-2.9-5.19-3.1c-2.18-0.21-4.22,0.54-5.69,2.07c-0.89,0.94-1.48,1.98-1.82,3.25
			c-0.15,0.56-0.17,0.77-0.17,1.68c0,0.9,0.02,1.12,0.18,1.7c0.67,2.54,2.66,4.5,5.22,5.13c0.22,0.05,0.49,0.11,0.6,0.13
			c0.49,0.07,1.67,0.04,2.19-0.05c2.16-0.38,4.08-1.77,5.07-3.68C551.16,21.29,551.01,18.46,549.63,16.38z M549.34,21.76
			c-0.56,2.09-2.28,3.69-4.45,4.14c-3.38,0.7-6.68-1.86-6.89-5.35c-0.14-2.25,1.23-4.51,3.32-5.5c0.79-0.38,1.43-0.51,2.4-0.52
			c0.93,0,1.44,0.09,2.26,0.42c1.63,0.65,2.9,2.13,3.37,3.9C549.55,19.59,549.54,21.02,549.34,21.76z"/>
		<path class="st0" d="M541.01,22.31c-0.64-0.23-1.13-0.89-1.22-1.65c-0.13-1.12,0.29-2,1.16-2.39c0.47-0.21,1.32-0.21,1.82,0.01
			c0.31,0.13,0.88,0.65,0.88,0.8c0,0.02-0.2,0.14-0.44,0.26l-0.44,0.22l-0.24-0.24c-0.13-0.13-0.33-0.25-0.46-0.28
			c-0.3-0.06-0.67,0.08-0.83,0.31c-0.27,0.38-0.29,1.38-0.03,1.77c0.13,0.2,0.36,0.35,0.57,0.36c0.44,0.03,0.56,0,0.82-0.28
			l0.27-0.28l0.34,0.19c0.19,0.1,0.37,0.21,0.4,0.24c0.12,0.1-0.41,0.64-0.84,0.86c-0.36,0.18-0.48,0.2-0.95,0.2
			C541.53,22.41,541.16,22.37,541.01,22.31z"/>
		<path class="st0" d="M545.08,22.31c-0.63-0.22-1.11-0.87-1.22-1.63c-0.15-1.1,0.29-2.02,1.16-2.41c0.5-0.23,1.35-0.21,1.86,0.04
			c0.32,0.15,0.84,0.64,0.84,0.77c0,0.02-0.21,0.14-0.46,0.26l-0.46,0.22l-0.24-0.26c-0.21-0.23-0.27-0.26-0.56-0.26
			c-0.4,0-0.66,0.16-0.8,0.49c-0.13,0.3-0.14,1.02-0.03,1.35c0.23,0.67,1.05,0.83,1.52,0.29l0.21-0.24l0.41,0.21
			c0.22,0.11,0.41,0.22,0.41,0.25c0,0.15-0.53,0.64-0.88,0.82c-0.36,0.18-0.48,0.2-0.95,0.2C545.6,22.41,545.23,22.37,545.08,22.31z
			"/>
	</g>
	<g>
		<circle class="st1" cx="560.35" cy="20.34" r="6.17"/>
		<g>
			<path class="st0" d="M560.31,13.3c1.96,0,3.61,0.67,4.96,2.02c1.35,1.35,2.03,3.01,2.03,4.96c0,1.96-0.66,3.59-1.99,4.9
				c-1.41,1.39-3.08,2.08-5,2.08c-1.89,0-3.52-0.69-4.91-2.06c-1.37-1.37-2.06-3.01-2.06-4.92c0-1.91,0.69-3.56,2.06-4.96
				C556.74,13.97,558.38,13.3,560.31,13.3z M560.33,14.56c-1.59,0-2.93,0.56-4.02,1.67c-1.14,1.16-1.71,2.51-1.71,4.05
				c0,1.55,0.56,2.88,1.69,4.01c1.13,1.13,2.48,1.69,4.04,1.69c1.55,0,2.91-0.57,4.06-1.71c1.1-1.05,1.64-2.39,1.64-4
				c0-1.59-0.56-2.94-1.67-4.05C563.25,15.11,561.91,14.56,560.33,14.56z M562.2,18.54v2.85h-0.8v3.39h-2.17V21.4h-0.8v-2.85
				c0-0.12,0.04-0.23,0.13-0.32c0.09-0.09,0.19-0.13,0.32-0.13h2.87c0.12,0,0.22,0.04,0.31,0.13
				C562.15,18.31,562.2,18.42,562.2,18.54z M559.35,16.75c0-0.66,0.32-0.98,0.97-0.98s0.97,0.33,0.97,0.98
				c0,0.65-0.32,0.97-0.97,0.97C559.67,17.72,559.35,17.4,559.35,16.75z"/>
		</g>
	</g>
</g>
<g>
	<path d="M358.67,5.17h-2.32v6.35h-0.97V5.17h-2.32V4.36h5.61V5.17z"/>
	<path d="M360.33,7.13c0.22-0.23,0.46-0.41,0.72-0.55c0.26-0.14,0.57-0.21,0.91-0.21c0.28,0,0.52,0.05,0.73,0.14
		c0.21,0.09,0.39,0.22,0.53,0.39c0.14,0.17,0.25,0.37,0.32,0.61c0.07,0.24,0.11,0.5,0.11,0.78v3.23h-0.89V8.3
		c0-0.38-0.09-0.68-0.26-0.89c-0.17-0.21-0.44-0.32-0.8-0.32c-0.26,0-0.51,0.06-0.74,0.19c-0.23,0.13-0.44,0.3-0.63,0.52v3.73h-0.89
		V4.16h0.89V7.13z"/>
	<path d="M366.15,4.87c0,0.09-0.02,0.17-0.05,0.24c-0.04,0.08-0.08,0.14-0.14,0.2c-0.06,0.06-0.13,0.1-0.21,0.14
		c-0.08,0.03-0.16,0.05-0.25,0.05c-0.09,0-0.17-0.02-0.24-0.05c-0.08-0.03-0.14-0.08-0.2-0.14c-0.06-0.06-0.1-0.13-0.13-0.2
		c-0.03-0.07-0.05-0.16-0.05-0.24c0-0.09,0.02-0.17,0.05-0.25c0.03-0.08,0.08-0.15,0.13-0.21c0.06-0.06,0.12-0.1,0.2-0.14
		c0.08-0.03,0.16-0.05,0.24-0.05c0.09,0,0.17,0.02,0.25,0.05c0.08,0.03,0.15,0.08,0.21,0.14c0.06,0.06,0.1,0.13,0.14,0.21
		C366.13,4.7,366.15,4.78,366.15,4.87z M365.96,6.46v5.06h-0.89V6.46H365.96z"/>
	<path d="M370.37,7.29c-0.04,0.07-0.1,0.11-0.19,0.11c-0.05,0-0.11-0.02-0.17-0.05s-0.14-0.08-0.23-0.12s-0.2-0.09-0.33-0.13
		c-0.13-0.04-0.28-0.06-0.45-0.06c-0.15,0-0.29,0.02-0.41,0.06c-0.12,0.04-0.22,0.09-0.31,0.16c-0.08,0.07-0.15,0.14-0.19,0.23
		c-0.04,0.09-0.07,0.18-0.07,0.29c0,0.13,0.04,0.24,0.11,0.33c0.08,0.09,0.17,0.16,0.3,0.23c0.12,0.06,0.26,0.12,0.42,0.17
		c0.16,0.05,0.32,0.1,0.48,0.15s0.33,0.12,0.48,0.18c0.16,0.07,0.3,0.15,0.42,0.25c0.12,0.1,0.22,0.22,0.3,0.37
		c0.08,0.14,0.11,0.32,0.11,0.52c0,0.23-0.04,0.45-0.13,0.65c-0.08,0.2-0.21,0.37-0.37,0.51c-0.16,0.15-0.36,0.26-0.6,0.34
		c-0.24,0.08-0.51,0.13-0.82,0.13c-0.35,0-0.67-0.06-0.96-0.17c-0.29-0.12-0.53-0.26-0.73-0.44l0.21-0.34
		c0.03-0.04,0.06-0.08,0.09-0.1c0.04-0.02,0.08-0.03,0.14-0.03c0.06,0,0.12,0.02,0.19,0.07c0.07,0.05,0.15,0.1,0.24,0.15
		c0.09,0.06,0.21,0.11,0.35,0.16c0.14,0.05,0.31,0.07,0.51,0.07c0.17,0,0.32-0.02,0.46-0.07c0.13-0.04,0.24-0.11,0.32-0.18
		c0.09-0.08,0.15-0.17,0.19-0.27c0.04-0.1,0.06-0.21,0.06-0.32c0-0.14-0.04-0.26-0.11-0.35c-0.07-0.09-0.17-0.17-0.3-0.23
		c-0.12-0.06-0.26-0.12-0.42-0.17s-0.32-0.1-0.49-0.15c-0.17-0.05-0.33-0.11-0.48-0.18s-0.3-0.15-0.42-0.26
		c-0.12-0.1-0.22-0.23-0.3-0.38c-0.07-0.15-0.11-0.34-0.11-0.55c0-0.19,0.04-0.38,0.12-0.56s0.2-0.33,0.35-0.47
		c0.15-0.13,0.34-0.24,0.56-0.32s0.48-0.12,0.76-0.12c0.33,0,0.63,0.05,0.9,0.16c0.26,0.1,0.49,0.25,0.69,0.43L370.37,7.29z"/>
	<path d="M381.09,6.46l-1.64,5.06h-0.71c-0.09,0-0.15-0.06-0.18-0.17l-1.12-3.44c-0.03-0.08-0.05-0.15-0.06-0.23
		c-0.02-0.08-0.03-0.16-0.05-0.23c-0.02,0.08-0.03,0.15-0.05,0.23c-0.02,0.08-0.04,0.16-0.06,0.24l-1.14,3.43
		c-0.03,0.11-0.1,0.17-0.2,0.17h-0.67l-1.64-5.06h0.7c0.07,0,0.13,0.02,0.18,0.06c0.05,0.04,0.08,0.08,0.1,0.13l0.97,3.26
		c0.06,0.24,0.1,0.47,0.13,0.68c0.03-0.11,0.06-0.22,0.09-0.33c0.03-0.11,0.07-0.23,0.1-0.35l1.07-3.28
		c0.02-0.05,0.05-0.09,0.09-0.13c0.04-0.03,0.09-0.05,0.15-0.05h0.39c0.07,0,0.12,0.02,0.17,0.05c0.04,0.03,0.07,0.07,0.09,0.13
		l1.05,3.28c0.04,0.12,0.07,0.23,0.1,0.35s0.06,0.23,0.08,0.33c0.02-0.11,0.04-0.22,0.06-0.33s0.05-0.23,0.08-0.35l0.99-3.26
		c0.02-0.05,0.05-0.1,0.1-0.13c0.05-0.03,0.1-0.05,0.16-0.05H381.09z"/>
	<path d="M384.02,6.38c0.37,0,0.7,0.06,1,0.19s0.55,0.3,0.76,0.52s0.37,0.5,0.48,0.82c0.11,0.32,0.17,0.68,0.17,1.08
		c0,0.4-0.06,0.76-0.17,1.08c-0.11,0.32-0.27,0.59-0.48,0.82c-0.21,0.23-0.46,0.4-0.76,0.52c-0.3,0.12-0.63,0.18-1,0.18
		c-0.37,0-0.71-0.06-1.01-0.18c-0.3-0.12-0.55-0.3-0.76-0.52c-0.21-0.23-0.37-0.5-0.48-0.82c-0.11-0.32-0.17-0.68-0.17-1.08
		c0-0.4,0.06-0.76,0.17-1.08c0.11-0.32,0.27-0.6,0.48-0.82s0.46-0.4,0.76-0.52C383.31,6.44,383.65,6.38,384.02,6.38z M384.02,10.9
		c0.5,0,0.87-0.17,1.12-0.5s0.37-0.8,0.37-1.4c0-0.6-0.12-1.07-0.37-1.41c-0.25-0.34-0.62-0.5-1.12-0.5c-0.25,0-0.47,0.04-0.66,0.13
		c-0.19,0.09-0.35,0.21-0.47,0.38c-0.13,0.16-0.22,0.36-0.28,0.6c-0.06,0.24-0.09,0.51-0.09,0.81c0,0.6,0.12,1.07,0.37,1.4
		C383.14,10.73,383.52,10.9,384.02,10.9z"/>
	<path d="M388.4,7.47c0.16-0.35,0.36-0.62,0.59-0.81c0.23-0.2,0.52-0.29,0.86-0.29c0.11,0,0.21,0.01,0.31,0.03
		c0.1,0.02,0.19,0.06,0.26,0.11l-0.07,0.66c-0.02,0.08-0.07,0.13-0.15,0.13c-0.05,0-0.11-0.01-0.21-0.03
		c-0.09-0.02-0.19-0.03-0.3-0.03c-0.16,0-0.3,0.02-0.43,0.07s-0.24,0.12-0.33,0.21c-0.1,0.09-0.19,0.21-0.26,0.34
		c-0.08,0.14-0.15,0.29-0.21,0.46v3.2h-0.89V6.46h0.51c0.1,0,0.16,0.02,0.2,0.06c0.04,0.04,0.06,0.1,0.08,0.19L388.4,7.47z"/>
	<path d="M392.09,4.16v4.34h0.23c0.07,0,0.12-0.01,0.17-0.03c0.05-0.02,0.09-0.06,0.14-0.11l1.6-1.71c0.05-0.06,0.1-0.1,0.15-0.13
		s0.12-0.05,0.21-0.05h0.81l-1.87,1.98c-0.09,0.11-0.19,0.2-0.29,0.27c0.06,0.04,0.11,0.09,0.16,0.14c0.05,0.05,0.09,0.11,0.14,0.18
		l1.98,2.5h-0.79c-0.08,0-0.14-0.01-0.2-0.04c-0.05-0.02-0.1-0.07-0.14-0.14l-1.67-2.08c-0.05-0.07-0.1-0.12-0.15-0.14
		c-0.05-0.02-0.12-0.03-0.22-0.03h-0.26v2.42h-0.89V4.16H392.09z"/>
	<path d="M399.97,4.87c0,0.09-0.02,0.17-0.05,0.24c-0.04,0.08-0.08,0.14-0.14,0.2c-0.06,0.06-0.13,0.1-0.21,0.14
		c-0.08,0.03-0.16,0.05-0.25,0.05c-0.09,0-0.17-0.02-0.24-0.05c-0.08-0.03-0.14-0.08-0.2-0.14c-0.06-0.06-0.1-0.13-0.13-0.2
		c-0.03-0.07-0.05-0.16-0.05-0.24c0-0.09,0.02-0.17,0.05-0.25c0.03-0.08,0.08-0.15,0.13-0.21c0.06-0.06,0.12-0.1,0.2-0.14
		c0.08-0.03,0.16-0.05,0.24-0.05c0.09,0,0.17,0.02,0.25,0.05c0.08,0.03,0.15,0.08,0.21,0.14c0.06,0.06,0.1,0.13,0.14,0.21
		C399.95,4.7,399.97,4.78,399.97,4.87z M399.78,6.46v5.06h-0.89V6.46H399.78z"/>
	<path d="M404.19,7.29c-0.04,0.07-0.1,0.11-0.19,0.11c-0.05,0-0.11-0.02-0.17-0.05s-0.14-0.08-0.23-0.12s-0.2-0.09-0.33-0.13
		c-0.13-0.04-0.28-0.06-0.45-0.06c-0.15,0-0.29,0.02-0.41,0.06c-0.12,0.04-0.22,0.09-0.31,0.16c-0.08,0.07-0.15,0.14-0.19,0.23
		c-0.04,0.09-0.07,0.18-0.07,0.29c0,0.13,0.04,0.24,0.11,0.33c0.08,0.09,0.17,0.16,0.3,0.23c0.12,0.06,0.26,0.12,0.42,0.17
		c0.16,0.05,0.32,0.1,0.48,0.15s0.33,0.12,0.48,0.18c0.16,0.07,0.3,0.15,0.42,0.25c0.12,0.1,0.22,0.22,0.3,0.37
		c0.08,0.14,0.11,0.32,0.11,0.52c0,0.23-0.04,0.45-0.13,0.65c-0.08,0.2-0.21,0.37-0.37,0.51c-0.16,0.15-0.36,0.26-0.6,0.34
		c-0.24,0.08-0.51,0.13-0.82,0.13c-0.35,0-0.67-0.06-0.96-0.17c-0.29-0.12-0.53-0.26-0.73-0.44l0.21-0.34
		c0.03-0.04,0.06-0.08,0.09-0.1c0.04-0.02,0.08-0.03,0.14-0.03c0.06,0,0.12,0.02,0.19,0.07c0.07,0.05,0.15,0.1,0.24,0.15
		c0.09,0.06,0.21,0.11,0.35,0.16c0.14,0.05,0.31,0.07,0.51,0.07c0.17,0,0.32-0.02,0.46-0.07c0.13-0.04,0.24-0.11,0.32-0.18
		c0.09-0.08,0.15-0.17,0.19-0.27c0.04-0.1,0.06-0.21,0.06-0.32c0-0.14-0.04-0.26-0.11-0.35c-0.07-0.09-0.17-0.17-0.3-0.23
		c-0.12-0.06-0.26-0.12-0.42-0.17s-0.32-0.1-0.49-0.15c-0.17-0.05-0.33-0.11-0.48-0.18s-0.3-0.15-0.42-0.26
		c-0.12-0.1-0.22-0.23-0.3-0.38C401.04,8.25,401,8.06,401,7.85c0-0.19,0.04-0.38,0.12-0.56s0.2-0.33,0.35-0.47
		c0.15-0.13,0.34-0.24,0.56-0.32s0.48-0.12,0.76-0.12c0.33,0,0.63,0.05,0.9,0.16c0.26,0.1,0.49,0.25,0.69,0.43L404.19,7.29z"/>
	<path d="M408.98,7.24c0.21-0.26,0.46-0.48,0.74-0.64s0.6-0.24,0.96-0.24c0.29,0,0.56,0.06,0.79,0.17c0.24,0.11,0.44,0.28,0.61,0.49
		c0.17,0.22,0.29,0.49,0.38,0.81c0.09,0.32,0.13,0.7,0.13,1.12c0,0.37-0.05,0.72-0.15,1.04c-0.1,0.32-0.24,0.6-0.43,0.83
		s-0.42,0.42-0.69,0.56c-0.27,0.13-0.58,0.2-0.92,0.2c-0.31,0-0.58-0.05-0.8-0.16s-0.42-0.25-0.59-0.44v2.24h-0.89V6.46h0.54
		c0.13,0,0.21,0.06,0.23,0.19L408.98,7.24z M409.02,10.3c0.16,0.22,0.34,0.38,0.54,0.47c0.19,0.09,0.41,0.13,0.65,0.13
		c0.47,0,0.84-0.17,1.09-0.5c0.25-0.34,0.38-0.82,0.38-1.44c0-0.33-0.03-0.61-0.09-0.85c-0.06-0.24-0.14-0.43-0.25-0.58
		c-0.11-0.15-0.25-0.26-0.41-0.33c-0.16-0.07-0.34-0.1-0.54-0.1c-0.29,0-0.54,0.07-0.76,0.2c-0.22,0.13-0.42,0.32-0.6,0.56V10.3z"/>
	<path d="M417.9,6.46v5.06h-0.53c-0.13,0-0.21-0.06-0.24-0.19l-0.07-0.54c-0.22,0.24-0.47,0.44-0.74,0.59s-0.59,0.22-0.94,0.22
		c-0.28,0-0.52-0.05-0.73-0.14c-0.21-0.09-0.39-0.22-0.53-0.39c-0.14-0.17-0.25-0.37-0.32-0.6c-0.07-0.24-0.11-0.5-0.11-0.79V6.46
		h0.89v3.23c0,0.38,0.09,0.68,0.26,0.89s0.44,0.31,0.8,0.31c0.26,0,0.51-0.06,0.74-0.19s0.44-0.3,0.63-0.52V6.46H417.9z"/>
	<path d="M420.2,7.19c0.21-0.25,0.45-0.44,0.72-0.59c0.27-0.15,0.58-0.22,0.93-0.22c0.3,0,0.56,0.06,0.8,0.17s0.44,0.28,0.61,0.49
		c0.17,0.21,0.29,0.48,0.38,0.78c0.09,0.31,0.13,0.65,0.13,1.04c0,0.41-0.05,0.78-0.15,1.12c-0.1,0.34-0.24,0.62-0.43,0.86
		s-0.42,0.42-0.69,0.56c-0.27,0.13-0.57,0.2-0.91,0.2c-0.33,0-0.61-0.06-0.84-0.19s-0.43-0.3-0.6-0.53l-0.04,0.46
		c-0.03,0.13-0.1,0.19-0.23,0.19h-0.58V4.16h0.89V7.19z M420.2,10.3c0.16,0.22,0.34,0.38,0.54,0.47c0.19,0.09,0.41,0.13,0.64,0.13
		c0.48,0,0.84-0.17,1.09-0.5c0.25-0.34,0.38-0.84,0.38-1.5c0-0.62-0.11-1.08-0.34-1.37c-0.23-0.29-0.55-0.44-0.96-0.44
		c-0.29,0-0.54,0.07-0.76,0.2s-0.41,0.32-0.6,0.56V10.3z"/>
	<path d="M425.83,4.16v7.37h-0.89V4.16H425.83z"/>
	<path d="M428.4,4.87c0,0.09-0.02,0.17-0.05,0.24c-0.04,0.08-0.08,0.14-0.14,0.2c-0.06,0.06-0.13,0.1-0.21,0.14
		c-0.08,0.03-0.16,0.05-0.25,0.05c-0.09,0-0.17-0.02-0.24-0.05c-0.08-0.03-0.14-0.08-0.2-0.14c-0.06-0.06-0.1-0.13-0.13-0.2
		c-0.03-0.07-0.05-0.16-0.05-0.24c0-0.09,0.02-0.17,0.05-0.25c0.03-0.08,0.08-0.15,0.13-0.21c0.06-0.06,0.12-0.1,0.2-0.14
		c0.08-0.03,0.16-0.05,0.24-0.05c0.09,0,0.17,0.02,0.25,0.05c0.08,0.03,0.15,0.08,0.21,0.14c0.06,0.06,0.1,0.13,0.14,0.21
		C428.38,4.7,428.4,4.78,428.4,4.87z M428.21,6.46v5.06h-0.89V6.46H428.21z"/>
	<path d="M432.62,7.29c-0.04,0.07-0.1,0.11-0.19,0.11c-0.05,0-0.11-0.02-0.17-0.05s-0.14-0.08-0.23-0.12s-0.2-0.09-0.33-0.13
		c-0.13-0.04-0.28-0.06-0.45-0.06c-0.15,0-0.29,0.02-0.41,0.06c-0.12,0.04-0.22,0.09-0.31,0.16c-0.08,0.07-0.15,0.14-0.19,0.23
		c-0.04,0.09-0.07,0.18-0.07,0.29c0,0.13,0.04,0.24,0.11,0.33c0.08,0.09,0.17,0.16,0.3,0.23c0.12,0.06,0.26,0.12,0.42,0.17
		c0.16,0.05,0.32,0.1,0.48,0.15s0.33,0.12,0.48,0.18c0.16,0.07,0.3,0.15,0.42,0.25c0.12,0.1,0.22,0.22,0.3,0.37
		c0.08,0.14,0.11,0.32,0.11,0.52c0,0.23-0.04,0.45-0.13,0.65c-0.08,0.2-0.21,0.37-0.37,0.51c-0.16,0.15-0.36,0.26-0.6,0.34
		c-0.24,0.08-0.51,0.13-0.82,0.13c-0.35,0-0.67-0.06-0.96-0.17c-0.29-0.12-0.53-0.26-0.73-0.44l0.21-0.34
		c0.03-0.04,0.06-0.08,0.09-0.1c0.04-0.02,0.08-0.03,0.14-0.03c0.06,0,0.12,0.02,0.19,0.07c0.07,0.05,0.15,0.1,0.24,0.15
		c0.09,0.06,0.21,0.11,0.35,0.16c0.14,0.05,0.31,0.07,0.51,0.07c0.17,0,0.32-0.02,0.46-0.07c0.13-0.04,0.24-0.11,0.32-0.18
		c0.09-0.08,0.15-0.17,0.19-0.27c0.04-0.1,0.06-0.21,0.06-0.32c0-0.14-0.04-0.26-0.11-0.35c-0.07-0.09-0.17-0.17-0.3-0.23
		c-0.12-0.06-0.26-0.12-0.42-0.17s-0.32-0.1-0.49-0.15c-0.17-0.05-0.33-0.11-0.48-0.18s-0.3-0.15-0.42-0.26
		c-0.12-0.1-0.22-0.23-0.3-0.38c-0.07-0.15-0.11-0.34-0.11-0.55c0-0.19,0.04-0.38,0.12-0.56s0.2-0.33,0.35-0.47
		c0.15-0.13,0.34-0.24,0.56-0.32s0.48-0.12,0.76-0.12c0.33,0,0.63,0.05,0.9,0.16c0.26,0.1,0.49,0.25,0.69,0.43L432.62,7.29z"/>
	<path d="M434.89,7.13c0.22-0.23,0.46-0.41,0.72-0.55c0.26-0.14,0.57-0.21,0.91-0.21c0.28,0,0.52,0.05,0.73,0.14
		c0.21,0.09,0.39,0.22,0.53,0.39c0.14,0.17,0.25,0.37,0.32,0.61c0.07,0.24,0.11,0.5,0.11,0.78v3.23h-0.89V8.3
		c0-0.38-0.09-0.68-0.26-0.89c-0.17-0.21-0.44-0.32-0.8-0.32c-0.26,0-0.51,0.06-0.74,0.19c-0.23,0.13-0.44,0.3-0.63,0.52v3.73H434
		V4.16h0.89V7.13z"/>
	<path d="M443.69,10.81c-0.11,0.13-0.24,0.25-0.4,0.35c-0.15,0.1-0.32,0.18-0.49,0.24c-0.17,0.06-0.36,0.11-0.54,0.14
		s-0.37,0.05-0.55,0.05c-0.35,0-0.67-0.06-0.97-0.18s-0.55-0.29-0.76-0.52s-0.38-0.51-0.5-0.85c-0.12-0.34-0.18-0.72-0.18-1.16
		c0-0.35,0.05-0.68,0.16-0.99c0.11-0.31,0.26-0.57,0.47-0.8s0.45-0.4,0.75-0.53c0.29-0.13,0.62-0.19,0.99-0.19
		c0.3,0,0.58,0.05,0.84,0.15c0.26,0.1,0.48,0.25,0.67,0.44c0.19,0.19,0.33,0.43,0.44,0.71c0.11,0.28,0.16,0.6,0.16,0.96
		c0,0.14-0.01,0.23-0.04,0.28c-0.03,0.05-0.09,0.07-0.17,0.07h-3.38c0.01,0.32,0.05,0.6,0.13,0.83c0.08,0.24,0.19,0.43,0.33,0.59
		s0.31,0.28,0.5,0.35c0.19,0.08,0.41,0.12,0.65,0.12c0.22,0,0.42-0.03,0.58-0.08s0.3-0.11,0.42-0.17c0.12-0.06,0.21-0.12,0.29-0.17
		s0.15-0.08,0.2-0.08c0.07,0,0.13,0.03,0.17,0.08L443.69,10.81z M442.97,8.44c0-0.21-0.03-0.4-0.09-0.57
		c-0.06-0.17-0.14-0.32-0.25-0.45c-0.11-0.13-0.25-0.22-0.41-0.29c-0.16-0.07-0.34-0.1-0.54-0.1c-0.43,0-0.76,0.12-1.01,0.37
		c-0.25,0.25-0.4,0.59-0.46,1.03H442.97z"/>
	<path d="M449.05,4.16v7.37h-0.53c-0.13,0-0.21-0.06-0.24-0.19l-0.08-0.61c-0.22,0.26-0.46,0.47-0.74,0.63
		c-0.28,0.16-0.6,0.24-0.96,0.24c-0.29,0-0.55-0.06-0.79-0.17c-0.24-0.11-0.44-0.28-0.6-0.49c-0.17-0.22-0.29-0.49-0.38-0.81
		c-0.09-0.32-0.14-0.7-0.14-1.12c0-0.37,0.05-0.72,0.15-1.04c0.1-0.32,0.24-0.6,0.43-0.84s0.42-0.42,0.69-0.56
		c0.27-0.13,0.58-0.2,0.92-0.2c0.31,0,0.58,0.05,0.8,0.16s0.42,0.25,0.59,0.44V4.16H449.05z M448.16,7.66
		c-0.17-0.22-0.35-0.38-0.54-0.47s-0.41-0.13-0.65-0.13c-0.47,0-0.83,0.17-1.08,0.5c-0.25,0.34-0.38,0.82-0.38,1.44
		c0,0.33,0.03,0.61,0.08,0.85s0.14,0.43,0.25,0.58c0.11,0.15,0.25,0.26,0.41,0.33c0.16,0.07,0.34,0.1,0.54,0.1
		c0.29,0,0.55-0.07,0.77-0.2c0.22-0.13,0.42-0.32,0.6-0.56V7.66z"/>
	<path d="M457.18,6.46v5.06h-0.53c-0.13,0-0.21-0.06-0.24-0.19l-0.07-0.54c-0.22,0.24-0.47,0.44-0.74,0.59s-0.59,0.22-0.94,0.22
		c-0.28,0-0.52-0.05-0.73-0.14c-0.21-0.09-0.39-0.22-0.53-0.39c-0.14-0.17-0.25-0.37-0.32-0.6c-0.07-0.24-0.11-0.5-0.11-0.79V6.46
		h0.89v3.23c0,0.38,0.09,0.68,0.26,0.89s0.44,0.31,0.8,0.31c0.26,0,0.51-0.06,0.74-0.19s0.44-0.3,0.63-0.52V6.46H457.18z"/>
	<path d="M459.43,7.19c0.11-0.12,0.23-0.23,0.35-0.33c0.12-0.1,0.25-0.19,0.39-0.26c0.14-0.07,0.29-0.13,0.44-0.17
		c0.16-0.04,0.32-0.06,0.5-0.06c0.28,0,0.52,0.05,0.73,0.14c0.21,0.09,0.39,0.22,0.53,0.39c0.14,0.17,0.25,0.37,0.32,0.61
		c0.07,0.24,0.11,0.5,0.11,0.78v3.23h-0.89V8.3c0-0.38-0.09-0.68-0.26-0.89c-0.17-0.21-0.44-0.32-0.8-0.32
		c-0.26,0-0.51,0.06-0.74,0.19c-0.23,0.13-0.44,0.3-0.63,0.52v3.73h-0.89V6.46h0.54c0.13,0,0.21,0.06,0.23,0.19L459.43,7.19z"/>
	<path d="M468.36,4.16v7.37h-0.53c-0.13,0-0.21-0.06-0.24-0.19l-0.08-0.61c-0.22,0.26-0.46,0.47-0.74,0.63
		c-0.28,0.16-0.6,0.24-0.96,0.24c-0.29,0-0.55-0.06-0.79-0.17c-0.24-0.11-0.44-0.28-0.6-0.49c-0.17-0.22-0.29-0.49-0.38-0.81
		c-0.09-0.32-0.14-0.7-0.14-1.12c0-0.37,0.05-0.72,0.15-1.04c0.1-0.32,0.24-0.6,0.43-0.84s0.42-0.42,0.69-0.56
		c0.27-0.13,0.58-0.2,0.92-0.2c0.31,0,0.58,0.05,0.8,0.16s0.42,0.25,0.59,0.44V4.16H468.36z M467.47,7.66
		c-0.17-0.22-0.35-0.38-0.54-0.47s-0.41-0.13-0.65-0.13c-0.47,0-0.83,0.17-1.08,0.5c-0.25,0.34-0.38,0.82-0.38,1.44
		c0,0.33,0.03,0.61,0.08,0.85s0.14,0.43,0.25,0.58c0.11,0.15,0.25,0.26,0.41,0.33c0.16,0.07,0.34,0.1,0.54,0.1
		c0.29,0,0.55-0.07,0.77-0.2c0.22-0.13,0.42-0.32,0.6-0.56V7.66z"/>
	<path d="M473.88,10.81c-0.11,0.13-0.24,0.25-0.4,0.35c-0.15,0.1-0.32,0.18-0.49,0.24c-0.17,0.06-0.36,0.11-0.54,0.14
		s-0.37,0.05-0.55,0.05c-0.35,0-0.67-0.06-0.97-0.18s-0.55-0.29-0.76-0.52s-0.38-0.51-0.5-0.85c-0.12-0.34-0.18-0.72-0.18-1.16
		c0-0.35,0.05-0.68,0.16-0.99c0.11-0.31,0.26-0.57,0.47-0.8s0.45-0.4,0.75-0.53c0.29-0.13,0.62-0.19,0.99-0.19
		c0.3,0,0.58,0.05,0.84,0.15c0.26,0.1,0.48,0.25,0.67,0.44c0.19,0.19,0.33,0.43,0.44,0.71c0.11,0.28,0.16,0.6,0.16,0.96
		c0,0.14-0.01,0.23-0.04,0.28c-0.03,0.05-0.09,0.07-0.17,0.07h-3.38c0.01,0.32,0.05,0.6,0.13,0.83c0.08,0.24,0.19,0.43,0.33,0.59
		s0.31,0.28,0.5,0.35c0.19,0.08,0.41,0.12,0.65,0.12c0.22,0,0.42-0.03,0.58-0.08s0.3-0.11,0.42-0.17c0.12-0.06,0.21-0.12,0.29-0.17
		s0.15-0.08,0.2-0.08c0.07,0,0.13,0.03,0.17,0.08L473.88,10.81z M473.16,8.44c0-0.21-0.03-0.4-0.09-0.57
		c-0.06-0.17-0.14-0.32-0.25-0.45c-0.11-0.13-0.25-0.22-0.41-0.29c-0.16-0.07-0.34-0.1-0.54-0.1c-0.43,0-0.76,0.12-1.01,0.37
		c-0.25,0.25-0.4,0.59-0.46,1.03H473.16z"/>
	<path d="M475.9,7.47c0.16-0.35,0.36-0.62,0.59-0.81c0.23-0.2,0.52-0.29,0.86-0.29c0.11,0,0.21,0.01,0.31,0.03
		c0.1,0.02,0.19,0.06,0.26,0.11l-0.07,0.66c-0.02,0.08-0.07,0.13-0.15,0.13c-0.05,0-0.11-0.01-0.21-0.03
		c-0.09-0.02-0.19-0.03-0.3-0.03c-0.16,0-0.3,0.02-0.43,0.07s-0.24,0.12-0.33,0.21c-0.1,0.09-0.19,0.21-0.26,0.34
		c-0.08,0.14-0.15,0.29-0.21,0.46v3.2h-0.89V6.46h0.51c0.1,0,0.16,0.02,0.2,0.06c0.04,0.04,0.06,0.1,0.08,0.19L475.9,7.47z"/>
	<path d="M480.91,7.17c0.28-0.27,0.58-0.47,0.91-0.6c0.32-0.13,0.68-0.2,1.07-0.2c0.28,0,0.54,0.05,0.75,0.14
		c0.22,0.09,0.41,0.22,0.56,0.39c0.15,0.17,0.26,0.37,0.34,0.6c0.08,0.24,0.12,0.5,0.12,0.78v3.24h-0.4c-0.09,0-0.15-0.01-0.2-0.04
		c-0.05-0.03-0.08-0.08-0.11-0.17l-0.1-0.48c-0.13,0.12-0.26,0.23-0.39,0.33c-0.13,0.09-0.26,0.17-0.4,0.24
		c-0.14,0.06-0.29,0.12-0.45,0.15c-0.16,0.04-0.33,0.05-0.53,0.05c-0.2,0-0.38-0.03-0.55-0.08c-0.17-0.06-0.32-0.14-0.45-0.25
		c-0.13-0.11-0.23-0.25-0.3-0.42s-0.11-0.37-0.11-0.6c0-0.2,0.05-0.39,0.17-0.58c0.11-0.19,0.29-0.35,0.54-0.49
		c0.25-0.14,0.57-0.26,0.96-0.35s0.88-0.14,1.46-0.16v-0.4c0-0.39-0.08-0.69-0.25-0.89s-0.42-0.3-0.75-0.3
		c-0.22,0-0.4,0.03-0.55,0.08s-0.28,0.12-0.38,0.19s-0.2,0.13-0.28,0.19c-0.08,0.05-0.16,0.08-0.23,0.08
		c-0.06,0-0.11-0.02-0.16-0.05c-0.04-0.03-0.08-0.07-0.11-0.12L480.91,7.17z M483.79,9.24c-0.41,0.01-0.76,0.05-1.05,0.1
		s-0.52,0.12-0.71,0.2s-0.31,0.18-0.39,0.29c-0.08,0.11-0.12,0.24-0.12,0.38c0,0.13,0.02,0.25,0.07,0.35
		c0.04,0.1,0.1,0.18,0.18,0.24c0.07,0.06,0.16,0.11,0.26,0.14s0.21,0.04,0.33,0.04c0.16,0,0.3-0.02,0.43-0.05s0.25-0.08,0.37-0.14
		s0.22-0.13,0.33-0.21c0.1-0.08,0.21-0.18,0.31-0.29V9.24z"/>
	<path d="M493.81,10.04c0.05,0,0.1,0.02,0.14,0.06l0.38,0.42c-0.29,0.34-0.65,0.6-1.07,0.79s-0.92,0.29-1.52,0.29
		c-0.51,0-0.98-0.09-1.4-0.27s-0.78-0.43-1.08-0.75s-0.53-0.71-0.69-1.16c-0.16-0.45-0.25-0.94-0.25-1.48s0.08-1.04,0.26-1.48
		c0.17-0.45,0.41-0.84,0.72-1.16s0.68-0.57,1.11-0.75c0.43-0.18,0.91-0.27,1.43-0.27c0.51,0,0.96,0.08,1.35,0.25
		c0.39,0.16,0.73,0.38,1.03,0.67l-0.32,0.44c-0.02,0.03-0.05,0.06-0.08,0.08c-0.03,0.02-0.07,0.03-0.13,0.03
		c-0.06,0-0.13-0.03-0.22-0.1c-0.09-0.06-0.2-0.14-0.34-0.22c-0.14-0.08-0.32-0.15-0.53-0.22s-0.47-0.1-0.78-0.1
		c-0.37,0-0.71,0.06-1.01,0.19s-0.57,0.31-0.79,0.56c-0.22,0.24-0.39,0.54-0.52,0.89c-0.12,0.35-0.19,0.75-0.19,1.19
		c0,0.45,0.06,0.85,0.19,1.2c0.13,0.35,0.3,0.65,0.53,0.89s0.48,0.43,0.79,0.55c0.3,0.13,0.63,0.19,0.98,0.19
		c0.21,0,0.41-0.01,0.58-0.04s0.33-0.06,0.47-0.12c0.15-0.05,0.28-0.12,0.41-0.2c0.13-0.08,0.25-0.18,0.37-0.29
		C493.7,10.07,493.75,10.04,493.81,10.04z"/>
	<path d="M496.07,7.47c0.16-0.35,0.36-0.62,0.59-0.81c0.23-0.2,0.52-0.29,0.86-0.29c0.11,0,0.21,0.01,0.31,0.03
		c0.1,0.02,0.19,0.06,0.26,0.11l-0.07,0.66c-0.02,0.08-0.07,0.13-0.15,0.13c-0.05,0-0.11-0.01-0.21-0.03
		c-0.09-0.02-0.19-0.03-0.3-0.03c-0.16,0-0.3,0.02-0.43,0.07s-0.24,0.12-0.33,0.21c-0.1,0.09-0.19,0.21-0.26,0.34
		c-0.08,0.14-0.15,0.29-0.21,0.46v3.2h-0.89V6.46h0.51c0.1,0,0.16,0.02,0.2,0.06c0.04,0.04,0.06,0.1,0.08,0.19L496.07,7.47z"/>
	<path d="M502.77,10.81c-0.11,0.13-0.24,0.25-0.4,0.35c-0.15,0.1-0.32,0.18-0.49,0.24c-0.17,0.06-0.36,0.11-0.54,0.14
		s-0.37,0.05-0.55,0.05c-0.35,0-0.67-0.06-0.97-0.18s-0.55-0.29-0.76-0.52s-0.38-0.51-0.5-0.85c-0.12-0.34-0.18-0.72-0.18-1.16
		c0-0.35,0.05-0.68,0.16-0.99c0.11-0.31,0.26-0.57,0.47-0.8s0.45-0.4,0.75-0.53c0.29-0.13,0.62-0.19,0.99-0.19
		c0.3,0,0.58,0.05,0.84,0.15c0.26,0.1,0.48,0.25,0.67,0.44c0.19,0.19,0.33,0.43,0.44,0.71c0.11,0.28,0.16,0.6,0.16,0.96
		c0,0.14-0.01,0.23-0.04,0.28c-0.03,0.05-0.09,0.07-0.17,0.07h-3.38c0.01,0.32,0.05,0.6,0.13,0.83c0.08,0.24,0.19,0.43,0.33,0.59
		s0.31,0.28,0.5,0.35c0.19,0.08,0.41,0.12,0.65,0.12c0.22,0,0.42-0.03,0.58-0.08s0.3-0.11,0.42-0.17c0.12-0.06,0.21-0.12,0.29-0.17
		s0.15-0.08,0.2-0.08c0.07,0,0.13,0.03,0.17,0.08L502.77,10.81z M502.04,8.44c0-0.21-0.03-0.4-0.09-0.57
		c-0.06-0.17-0.14-0.32-0.25-0.45c-0.11-0.13-0.25-0.22-0.41-0.29c-0.16-0.07-0.34-0.1-0.54-0.1c-0.43,0-0.76,0.12-1.01,0.37
		c-0.25,0.25-0.4,0.59-0.46,1.03H502.04z"/>
	<path d="M503.81,7.17c0.28-0.27,0.58-0.47,0.91-0.6c0.32-0.13,0.68-0.2,1.07-0.2c0.28,0,0.54,0.05,0.75,0.14
		c0.22,0.09,0.41,0.22,0.56,0.39c0.15,0.17,0.26,0.37,0.34,0.6c0.08,0.24,0.12,0.5,0.12,0.78v3.24h-0.4c-0.09,0-0.15-0.01-0.2-0.04
		c-0.05-0.03-0.08-0.08-0.11-0.17l-0.1-0.48c-0.13,0.12-0.26,0.23-0.39,0.33c-0.13,0.09-0.26,0.17-0.4,0.24
		c-0.14,0.06-0.29,0.12-0.45,0.15c-0.16,0.04-0.33,0.05-0.53,0.05c-0.2,0-0.38-0.03-0.55-0.08c-0.17-0.06-0.32-0.14-0.45-0.25
		c-0.13-0.11-0.23-0.25-0.3-0.42s-0.11-0.37-0.11-0.6c0-0.2,0.05-0.39,0.17-0.58c0.11-0.19,0.29-0.35,0.54-0.49
		c0.25-0.14,0.57-0.26,0.96-0.35s0.88-0.14,1.46-0.16v-0.4c0-0.39-0.08-0.69-0.25-0.89s-0.42-0.3-0.75-0.3
		c-0.22,0-0.4,0.03-0.55,0.08s-0.28,0.12-0.38,0.19s-0.2,0.13-0.28,0.19c-0.08,0.05-0.16,0.08-0.23,0.08
		c-0.06,0-0.11-0.02-0.16-0.05c-0.04-0.03-0.08-0.07-0.11-0.12L503.81,7.17z M506.68,9.24c-0.41,0.01-0.76,0.05-1.05,0.1
		s-0.52,0.12-0.71,0.2s-0.31,0.18-0.39,0.29c-0.08,0.11-0.12,0.24-0.12,0.38c0,0.13,0.02,0.25,0.07,0.35
		c0.04,0.1,0.1,0.18,0.18,0.24c0.07,0.06,0.16,0.11,0.26,0.14s0.21,0.04,0.33,0.04c0.16,0,0.3-0.02,0.43-0.05s0.25-0.08,0.37-0.14
		s0.22-0.13,0.33-0.21c0.1-0.08,0.21-0.18,0.31-0.29V9.24z"/>
	<path d="M513.54,11.52h-0.89V7.2h-2.61v3.04c0,0.21,0.05,0.37,0.15,0.47c0.1,0.1,0.24,0.16,0.4,0.16c0.09,0,0.17-0.01,0.24-0.04
		s0.13-0.05,0.18-0.08s0.09-0.06,0.13-0.08s0.07-0.04,0.09-0.04c0.05,0,0.09,0.03,0.13,0.08l0.26,0.43
		c-0.15,0.14-0.34,0.26-0.56,0.34s-0.44,0.12-0.67,0.12c-0.4,0-0.71-0.11-0.92-0.33c-0.22-0.22-0.32-0.54-0.32-0.97V7.2h-0.61
		c-0.05,0-0.1-0.02-0.14-0.05c-0.04-0.03-0.05-0.08-0.05-0.15V6.65l0.83-0.11l0.21-1.56c0.01-0.05,0.03-0.09,0.07-0.12
		s0.08-0.05,0.14-0.05h0.45v1.75h3.5V11.52z M513.76,4.83c0,0.09-0.02,0.17-0.05,0.24c-0.04,0.07-0.08,0.14-0.14,0.2
		s-0.13,0.1-0.2,0.13c-0.08,0.03-0.16,0.05-0.25,0.05c-0.09,0-0.17-0.02-0.24-0.05c-0.07-0.03-0.14-0.08-0.2-0.13
		s-0.1-0.12-0.13-0.2c-0.03-0.08-0.05-0.16-0.05-0.24c0-0.09,0.02-0.17,0.05-0.25s0.08-0.15,0.13-0.21c0.06-0.06,0.12-0.1,0.2-0.14
		c0.08-0.03,0.16-0.05,0.24-0.05c0.09,0,0.17,0.02,0.25,0.05c0.08,0.03,0.14,0.08,0.2,0.14c0.06,0.06,0.1,0.13,0.14,0.21
		S513.76,4.75,513.76,4.83z"/>
	<path d="M519.34,6.46l-2.06,5.06h-0.8l-2.06-5.06h0.72c0.07,0,0.13,0.02,0.18,0.06c0.05,0.04,0.08,0.08,0.1,0.13l1.29,3.26
		c0.04,0.12,0.07,0.24,0.1,0.36s0.06,0.23,0.08,0.35c0.03-0.12,0.05-0.23,0.08-0.35s0.07-0.24,0.11-0.36l1.3-3.26
		c0.02-0.05,0.05-0.1,0.1-0.13c0.05-0.03,0.1-0.05,0.17-0.05H519.34z"/>
	<path d="M524.13,10.81c-0.11,0.13-0.24,0.25-0.4,0.35c-0.15,0.1-0.32,0.18-0.49,0.24c-0.17,0.06-0.36,0.11-0.54,0.14
		s-0.37,0.05-0.55,0.05c-0.35,0-0.67-0.06-0.97-0.18s-0.55-0.29-0.76-0.52s-0.38-0.51-0.5-0.85c-0.12-0.34-0.18-0.72-0.18-1.16
		c0-0.35,0.05-0.68,0.16-0.99c0.11-0.31,0.26-0.57,0.47-0.8s0.45-0.4,0.75-0.53c0.29-0.13,0.62-0.19,0.99-0.19
		c0.3,0,0.58,0.05,0.84,0.15c0.26,0.1,0.48,0.25,0.67,0.44c0.19,0.19,0.33,0.43,0.44,0.71c0.11,0.28,0.16,0.6,0.16,0.96
		c0,0.14-0.01,0.23-0.04,0.28c-0.03,0.05-0.09,0.07-0.17,0.07h-3.38c0.01,0.32,0.05,0.6,0.13,0.83c0.08,0.24,0.19,0.43,0.33,0.59
		s0.31,0.28,0.5,0.35c0.19,0.08,0.41,0.12,0.65,0.12c0.22,0,0.42-0.03,0.58-0.08s0.3-0.11,0.42-0.17c0.12-0.06,0.21-0.12,0.29-0.17
		s0.15-0.08,0.2-0.08c0.07,0,0.13,0.03,0.17,0.08L524.13,10.81z M523.41,8.44c0-0.21-0.03-0.4-0.09-0.57
		c-0.06-0.17-0.14-0.32-0.25-0.45c-0.11-0.13-0.25-0.22-0.41-0.29c-0.16-0.07-0.34-0.1-0.54-0.1c-0.43,0-0.76,0.12-1.01,0.37
		c-0.25,0.25-0.4,0.59-0.46,1.03H523.41z"/>
	<path d="M533.1,10.04c0.05,0,0.1,0.02,0.14,0.06l0.38,0.42c-0.29,0.34-0.65,0.6-1.07,0.79s-0.92,0.29-1.52,0.29
		c-0.51,0-0.98-0.09-1.4-0.27s-0.78-0.43-1.08-0.75s-0.53-0.71-0.69-1.16c-0.16-0.45-0.25-0.94-0.25-1.48s0.08-1.04,0.26-1.48
		c0.17-0.45,0.41-0.84,0.72-1.16s0.68-0.57,1.11-0.75c0.43-0.18,0.91-0.27,1.43-0.27c0.51,0,0.96,0.08,1.35,0.25
		c0.39,0.16,0.73,0.38,1.03,0.67l-0.32,0.44c-0.02,0.03-0.05,0.06-0.08,0.08c-0.03,0.02-0.07,0.03-0.13,0.03
		c-0.06,0-0.13-0.03-0.22-0.1c-0.09-0.06-0.2-0.14-0.34-0.22c-0.14-0.08-0.32-0.15-0.53-0.22s-0.47-0.1-0.78-0.1
		c-0.37,0-0.71,0.06-1.01,0.19s-0.57,0.31-0.79,0.56c-0.22,0.24-0.39,0.54-0.52,0.89c-0.12,0.35-0.19,0.75-0.19,1.19
		c0,0.45,0.06,0.85,0.19,1.2c0.13,0.35,0.3,0.65,0.53,0.89s0.48,0.43,0.79,0.55c0.3,0.13,0.63,0.19,0.98,0.19
		c0.21,0,0.41-0.01,0.58-0.04s0.33-0.06,0.47-0.12c0.15-0.05,0.28-0.12,0.41-0.2c0.13-0.08,0.25-0.18,0.37-0.29
		C532.99,10.07,533.04,10.04,533.1,10.04z"/>
	<path d="M536.57,6.38c0.37,0,0.7,0.06,1,0.19s0.55,0.3,0.76,0.52s0.37,0.5,0.48,0.82c0.11,0.32,0.17,0.68,0.17,1.08
		c0,0.4-0.06,0.76-0.17,1.08c-0.11,0.32-0.27,0.59-0.48,0.82c-0.21,0.23-0.46,0.4-0.76,0.52c-0.3,0.12-0.63,0.18-1,0.18
		c-0.37,0-0.71-0.06-1.01-0.18c-0.3-0.12-0.55-0.3-0.76-0.52c-0.21-0.23-0.37-0.5-0.48-0.82c-0.11-0.32-0.17-0.68-0.17-1.08
		c0-0.4,0.06-0.76,0.17-1.08c0.11-0.32,0.27-0.6,0.48-0.82s0.46-0.4,0.76-0.52C535.87,6.44,536.2,6.38,536.57,6.38z M536.57,10.9
		c0.5,0,0.87-0.17,1.12-0.5s0.37-0.8,0.37-1.4c0-0.6-0.12-1.07-0.37-1.41c-0.25-0.34-0.62-0.5-1.12-0.5c-0.25,0-0.47,0.04-0.66,0.13
		c-0.19,0.09-0.35,0.21-0.47,0.38c-0.13,0.16-0.22,0.36-0.28,0.6c-0.06,0.24-0.09,0.51-0.09,0.81c0,0.6,0.12,1.07,0.37,1.4
		C535.69,10.73,536.07,10.9,536.57,10.9z"/>
	<path d="M540.11,11.52V6.46h0.54c0.13,0,0.21,0.06,0.23,0.19l0.07,0.52c0.19-0.23,0.4-0.42,0.63-0.56c0.23-0.15,0.5-0.22,0.81-0.22
		c0.34,0,0.62,0.1,0.83,0.29s0.36,0.45,0.46,0.77c0.07-0.18,0.17-0.34,0.28-0.48c0.11-0.13,0.24-0.24,0.39-0.33
		c0.14-0.09,0.3-0.15,0.46-0.19c0.16-0.04,0.33-0.06,0.49-0.06c0.27,0,0.5,0.04,0.71,0.13c0.21,0.08,0.38,0.21,0.53,0.37
		c0.14,0.16,0.25,0.36,0.33,0.6s0.12,0.51,0.12,0.82v3.23h-0.9V8.3c0-0.4-0.09-0.7-0.26-0.9c-0.17-0.21-0.42-0.31-0.75-0.31
		c-0.15,0-0.29,0.03-0.42,0.08c-0.13,0.05-0.25,0.13-0.35,0.23c-0.1,0.1-0.18,0.23-0.24,0.38c-0.06,0.15-0.09,0.33-0.09,0.53v3.23
		h-0.9V8.3c0-0.41-0.08-0.71-0.24-0.91c-0.16-0.2-0.4-0.3-0.72-0.3c-0.22,0-0.42,0.06-0.61,0.18c-0.19,0.12-0.36,0.28-0.52,0.48
		v3.77H540.11z"/>
	<path d="M548.33,11.52V6.46h0.54c0.13,0,0.21,0.06,0.23,0.19l0.07,0.52c0.19-0.23,0.4-0.42,0.63-0.56c0.23-0.15,0.5-0.22,0.81-0.22
		c0.34,0,0.62,0.1,0.83,0.29s0.36,0.45,0.46,0.77c0.07-0.18,0.17-0.34,0.28-0.48c0.11-0.13,0.24-0.24,0.39-0.33
		c0.14-0.09,0.3-0.15,0.46-0.19c0.16-0.04,0.33-0.06,0.49-0.06c0.27,0,0.5,0.04,0.71,0.13c0.21,0.08,0.38,0.21,0.53,0.37
		c0.14,0.16,0.25,0.36,0.33,0.6s0.12,0.51,0.12,0.82v3.23h-0.9V8.3c0-0.4-0.09-0.7-0.26-0.9c-0.17-0.21-0.42-0.31-0.75-0.31
		c-0.15,0-0.29,0.03-0.42,0.08c-0.13,0.05-0.25,0.13-0.35,0.23c-0.1,0.1-0.18,0.23-0.24,0.38c-0.06,0.15-0.09,0.33-0.09,0.53v3.23
		h-0.9V8.3c0-0.41-0.08-0.71-0.24-0.91c-0.16-0.2-0.4-0.3-0.72-0.3c-0.22,0-0.42,0.06-0.61,0.18c-0.19,0.12-0.36,0.28-0.52,0.48
		v3.77H548.33z"/>
	<path d="M558.69,6.38c0.37,0,0.7,0.06,1,0.19s0.55,0.3,0.76,0.52s0.37,0.5,0.48,0.82c0.11,0.32,0.17,0.68,0.17,1.08
		c0,0.4-0.06,0.76-0.17,1.08c-0.11,0.32-0.27,0.59-0.48,0.82c-0.21,0.23-0.46,0.4-0.76,0.52c-0.3,0.12-0.63,0.18-1,0.18
		c-0.37,0-0.71-0.06-1.01-0.18c-0.3-0.12-0.55-0.3-0.76-0.52c-0.21-0.23-0.37-0.5-0.48-0.82c-0.11-0.32-0.17-0.68-0.17-1.08
		c0-0.4,0.06-0.76,0.17-1.08c0.11-0.32,0.27-0.6,0.48-0.82s0.46-0.4,0.76-0.52C557.98,6.44,558.32,6.38,558.69,6.38z M558.69,10.9
		c0.5,0,0.87-0.17,1.12-0.5s0.37-0.8,0.37-1.4c0-0.6-0.12-1.07-0.37-1.41c-0.25-0.34-0.62-0.5-1.12-0.5c-0.25,0-0.47,0.04-0.66,0.13
		c-0.19,0.09-0.35,0.21-0.47,0.38c-0.13,0.16-0.22,0.36-0.28,0.6c-0.06,0.24-0.09,0.51-0.09,0.81c0,0.6,0.12,1.07,0.37,1.4
		C557.81,10.73,558.19,10.9,558.69,10.9z"/>
	<path d="M563.07,7.19c0.11-0.12,0.23-0.23,0.35-0.33c0.12-0.1,0.25-0.19,0.39-0.26c0.14-0.07,0.29-0.13,0.44-0.17
		c0.16-0.04,0.32-0.06,0.5-0.06c0.28,0,0.52,0.05,0.73,0.14c0.21,0.09,0.39,0.22,0.53,0.39c0.14,0.17,0.25,0.37,0.32,0.61
		c0.07,0.24,0.11,0.5,0.11,0.78v3.23h-0.89V8.3c0-0.38-0.09-0.68-0.26-0.89c-0.17-0.21-0.44-0.32-0.8-0.32
		c-0.26,0-0.51,0.06-0.74,0.19c-0.23,0.13-0.44,0.3-0.63,0.52v3.73h-0.89V6.46h0.54c0.13,0,0.21,0.06,0.23,0.19L563.07,7.19z"/>
	<path d="M570.76,7.29c-0.04,0.07-0.1,0.11-0.19,0.11c-0.05,0-0.11-0.02-0.17-0.05s-0.14-0.08-0.23-0.12s-0.2-0.09-0.33-0.13
		c-0.13-0.04-0.28-0.06-0.45-0.06c-0.15,0-0.29,0.02-0.41,0.06c-0.12,0.04-0.22,0.09-0.31,0.16c-0.08,0.07-0.15,0.14-0.19,0.23
		c-0.04,0.09-0.07,0.18-0.07,0.29c0,0.13,0.04,0.24,0.11,0.33c0.08,0.09,0.17,0.16,0.3,0.23c0.12,0.06,0.26,0.12,0.42,0.17
		c0.16,0.05,0.32,0.1,0.48,0.15s0.33,0.12,0.48,0.18c0.16,0.07,0.3,0.15,0.42,0.25c0.12,0.1,0.22,0.22,0.3,0.37
		c0.08,0.14,0.11,0.32,0.11,0.52c0,0.23-0.04,0.45-0.13,0.65c-0.08,0.2-0.21,0.37-0.37,0.51c-0.16,0.15-0.36,0.26-0.6,0.34
		c-0.24,0.08-0.51,0.13-0.82,0.13c-0.35,0-0.67-0.06-0.96-0.17c-0.29-0.12-0.53-0.26-0.73-0.44l0.21-0.34
		c0.03-0.04,0.06-0.08,0.09-0.1c0.04-0.02,0.08-0.03,0.14-0.03c0.06,0,0.12,0.02,0.19,0.07c0.07,0.05,0.15,0.1,0.24,0.15
		c0.09,0.06,0.21,0.11,0.35,0.16c0.14,0.05,0.31,0.07,0.51,0.07c0.17,0,0.32-0.02,0.46-0.07c0.13-0.04,0.24-0.11,0.32-0.18
		c0.09-0.08,0.15-0.17,0.19-0.27c0.04-0.1,0.06-0.21,0.06-0.32c0-0.14-0.04-0.26-0.11-0.35c-0.07-0.09-0.17-0.17-0.3-0.23
		c-0.12-0.06-0.26-0.12-0.42-0.17s-0.32-0.1-0.49-0.15c-0.17-0.05-0.33-0.11-0.48-0.18s-0.3-0.15-0.42-0.26
		c-0.12-0.1-0.22-0.23-0.3-0.38c-0.07-0.15-0.11-0.34-0.11-0.55c0-0.19,0.04-0.38,0.12-0.56s0.2-0.33,0.35-0.47
		c0.15-0.13,0.34-0.24,0.56-0.32s0.48-0.12,0.76-0.12c0.33,0,0.63,0.05,0.9,0.16c0.26,0.1,0.49,0.25,0.69,0.43L570.76,7.29z"/>
	<path d="M359.65,23.52h-0.75c-0.09,0-0.16-0.02-0.21-0.06c-0.05-0.04-0.09-0.1-0.12-0.17l-0.67-1.73h-3.21l-0.67,1.73
		c-0.02,0.06-0.06,0.11-0.12,0.16c-0.06,0.05-0.13,0.07-0.21,0.07h-0.75l2.86-7.17h0.98L359.65,23.52z M357.63,20.86l-1.13-2.92
		c-0.03-0.09-0.07-0.19-0.1-0.3c-0.04-0.12-0.07-0.24-0.11-0.37c-0.07,0.27-0.14,0.5-0.21,0.68l-1.13,2.91H357.63z"/>
	<path d="M361.64,23.6c-0.4,0-0.71-0.11-0.92-0.33c-0.22-0.22-0.32-0.54-0.32-0.97v-3.1h-0.61c-0.05,0-0.1-0.02-0.14-0.05
		c-0.04-0.03-0.05-0.08-0.05-0.15v-0.35l0.83-0.1l0.21-1.56c0.01-0.05,0.03-0.09,0.07-0.12s0.08-0.05,0.14-0.05h0.45v1.75h2.38
		l0.21-1.58c0.01-0.05,0.03-0.09,0.07-0.12s0.08-0.05,0.14-0.05h0.45v1.75H366v0.65h-1.46v3.04c0,0.21,0.05,0.37,0.16,0.47
		c0.1,0.1,0.24,0.16,0.4,0.16c0.09,0,0.17-0.01,0.24-0.04s0.13-0.05,0.18-0.08s0.09-0.06,0.13-0.08c0.03-0.02,0.07-0.04,0.09-0.04
		c0.05,0,0.09,0.03,0.13,0.08l0.27,0.43c-0.16,0.14-0.34,0.26-0.56,0.34s-0.44,0.12-0.67,0.12c-0.4,0-0.7-0.11-0.92-0.33
		c-0.22-0.22-0.33-0.54-0.33-0.97v-3.1h-2.35v3.04c0,0.21,0.05,0.37,0.15,0.47c0.1,0.1,0.24,0.16,0.4,0.16
		c0.09,0,0.17-0.01,0.24-0.04s0.13-0.05,0.18-0.08s0.09-0.06,0.13-0.08s0.07-0.04,0.09-0.04c0.05,0,0.09,0.03,0.13,0.08l0.26,0.43
		c-0.15,0.14-0.34,0.26-0.56,0.34S361.87,23.6,361.64,23.6z"/>
	<path d="M367.76,19.47c0.16-0.35,0.36-0.62,0.59-0.81c0.23-0.2,0.52-0.29,0.86-0.29c0.11,0,0.21,0.01,0.31,0.03
		c0.1,0.02,0.19,0.06,0.26,0.11l-0.07,0.66c-0.02,0.08-0.07,0.13-0.15,0.13c-0.05,0-0.11-0.01-0.21-0.03
		c-0.09-0.02-0.19-0.03-0.3-0.03c-0.16,0-0.3,0.02-0.43,0.07s-0.24,0.12-0.33,0.21c-0.1,0.09-0.19,0.21-0.26,0.34
		c-0.08,0.14-0.15,0.29-0.21,0.46v3.2h-0.89v-5.06h0.51c0.1,0,0.16,0.02,0.2,0.06c0.04,0.04,0.06,0.1,0.08,0.19L367.76,19.47z"/>
	<path d="M371.69,16.87c0,0.09-0.02,0.17-0.05,0.24c-0.04,0.08-0.08,0.14-0.14,0.2c-0.06,0.06-0.13,0.1-0.21,0.14
		c-0.08,0.03-0.16,0.05-0.25,0.05c-0.09,0-0.17-0.02-0.24-0.05c-0.08-0.03-0.14-0.08-0.2-0.14c-0.06-0.06-0.1-0.13-0.13-0.2
		c-0.03-0.07-0.05-0.16-0.05-0.24c0-0.09,0.02-0.17,0.05-0.25c0.03-0.08,0.08-0.15,0.13-0.21c0.06-0.06,0.12-0.1,0.2-0.14
		c0.08-0.03,0.16-0.05,0.24-0.05c0.09,0,0.17,0.02,0.25,0.05c0.08,0.03,0.15,0.08,0.21,0.14c0.06,0.06,0.1,0.13,0.14,0.21
		C371.67,16.7,371.69,16.78,371.69,16.87z M371.5,18.46v5.06h-0.89v-5.06H371.5z"/>
	<path d="M373.85,19.19c0.21-0.25,0.45-0.44,0.72-0.59c0.27-0.15,0.58-0.22,0.93-0.22c0.3,0,0.56,0.06,0.8,0.17s0.44,0.28,0.61,0.49
		c0.17,0.21,0.29,0.48,0.38,0.78c0.09,0.31,0.13,0.65,0.13,1.04c0,0.41-0.05,0.78-0.15,1.12c-0.1,0.34-0.24,0.62-0.43,0.86
		s-0.42,0.42-0.69,0.56c-0.27,0.13-0.57,0.2-0.91,0.2c-0.33,0-0.61-0.06-0.84-0.19s-0.43-0.3-0.6-0.53l-0.04,0.46
		c-0.03,0.13-0.1,0.19-0.23,0.19h-0.58v-7.37h0.89V19.19z M373.85,22.3c0.16,0.22,0.34,0.38,0.54,0.47
		c0.19,0.09,0.41,0.13,0.64,0.13c0.48,0,0.84-0.17,1.09-0.5c0.25-0.34,0.38-0.84,0.38-1.5c0-0.62-0.11-1.08-0.34-1.37
		c-0.23-0.29-0.55-0.44-0.96-0.44c-0.29,0-0.54,0.07-0.76,0.2s-0.41,0.32-0.6,0.56V22.3z"/>
	<path d="M382.72,18.46v5.06h-0.53c-0.13,0-0.21-0.06-0.24-0.19l-0.07-0.54c-0.22,0.24-0.47,0.44-0.74,0.59s-0.59,0.22-0.94,0.22
		c-0.28,0-0.52-0.05-0.73-0.14c-0.21-0.09-0.39-0.22-0.53-0.39c-0.14-0.17-0.25-0.37-0.32-0.6c-0.07-0.24-0.11-0.5-0.11-0.79v-3.23
		h0.89v3.23c0,0.38,0.09,0.68,0.26,0.89s0.44,0.31,0.8,0.31c0.26,0,0.51-0.06,0.74-0.19s0.44-0.3,0.63-0.52v-3.73H382.72z"/>
	<path d="M388.83,23.52h-0.89V19.2h-2.61v3.04c0,0.21,0.05,0.37,0.15,0.47c0.1,0.1,0.24,0.16,0.4,0.16c0.09,0,0.17-0.01,0.24-0.04
		s0.13-0.05,0.18-0.08s0.09-0.06,0.13-0.08s0.07-0.04,0.09-0.04c0.05,0,0.09,0.03,0.13,0.08l0.26,0.43
		c-0.15,0.14-0.34,0.26-0.56,0.34s-0.44,0.12-0.67,0.12c-0.4,0-0.71-0.11-0.92-0.33c-0.22-0.22-0.32-0.54-0.32-0.97v-3.1h-0.61
		c-0.05,0-0.1-0.02-0.14-0.05c-0.04-0.03-0.05-0.08-0.05-0.15v-0.35l0.83-0.11l0.21-1.56c0.01-0.05,0.03-0.09,0.07-0.12
		s0.08-0.05,0.14-0.05h0.45v1.75h3.5V23.52z M389.05,16.83c0,0.09-0.02,0.17-0.05,0.24c-0.04,0.07-0.08,0.14-0.14,0.2
		s-0.13,0.1-0.2,0.13c-0.08,0.03-0.16,0.05-0.25,0.05c-0.09,0-0.17-0.02-0.24-0.05c-0.07-0.03-0.14-0.08-0.2-0.13
		s-0.1-0.12-0.13-0.2c-0.03-0.08-0.05-0.16-0.05-0.24c0-0.09,0.02-0.17,0.05-0.25s0.08-0.15,0.13-0.21c0.06-0.06,0.12-0.1,0.2-0.14
		c0.08-0.03,0.16-0.05,0.24-0.05c0.09,0,0.17,0.02,0.25,0.05c0.08,0.03,0.14,0.08,0.2,0.14c0.06,0.06,0.1,0.13,0.14,0.21
		S389.05,16.75,389.05,16.83z"/>
	<path d="M392.43,18.38c0.37,0,0.7,0.06,1,0.19s0.55,0.3,0.76,0.52s0.37,0.5,0.48,0.82c0.11,0.32,0.17,0.68,0.17,1.08
		c0,0.4-0.06,0.76-0.17,1.08c-0.11,0.32-0.27,0.59-0.48,0.82c-0.21,0.23-0.46,0.4-0.76,0.52c-0.3,0.12-0.63,0.18-1,0.18
		c-0.37,0-0.71-0.06-1.01-0.18c-0.3-0.12-0.55-0.3-0.76-0.52c-0.21-0.23-0.37-0.5-0.48-0.82c-0.11-0.32-0.17-0.68-0.17-1.08
		c0-0.4,0.06-0.76,0.17-1.08c0.11-0.32,0.27-0.6,0.48-0.82s0.46-0.4,0.76-0.52C391.72,18.44,392.05,18.38,392.43,18.38z
		 M392.43,22.9c0.5,0,0.87-0.17,1.12-0.5s0.37-0.8,0.37-1.4c0-0.6-0.12-1.07-0.37-1.41c-0.25-0.34-0.62-0.5-1.12-0.5
		c-0.25,0-0.47,0.04-0.66,0.13c-0.19,0.09-0.35,0.21-0.47,0.38c-0.13,0.16-0.22,0.36-0.28,0.6s-0.09,0.51-0.09,0.81
		c0,0.6,0.12,1.07,0.37,1.4C391.54,22.73,391.92,22.9,392.43,22.9z"/>
	<path d="M396.8,19.19c0.11-0.12,0.23-0.23,0.35-0.33c0.12-0.1,0.25-0.19,0.39-0.26c0.14-0.07,0.29-0.13,0.44-0.17
		c0.16-0.04,0.32-0.06,0.5-0.06c0.28,0,0.52,0.05,0.73,0.14c0.21,0.09,0.39,0.22,0.53,0.39c0.14,0.17,0.25,0.37,0.32,0.61
		c0.07,0.24,0.11,0.5,0.11,0.78v3.23h-0.89V20.3c0-0.38-0.09-0.68-0.26-0.89c-0.17-0.21-0.44-0.32-0.8-0.32
		c-0.26,0-0.51,0.06-0.74,0.19c-0.23,0.13-0.44,0.3-0.63,0.52v3.73h-0.89v-5.06h0.54c0.13,0,0.21,0.06,0.23,0.19L396.8,19.19z"/>
	<path d="M408.91,20.94v0.51c0,0.05-0.02,0.1-0.05,0.14c-0.03,0.04-0.08,0.06-0.15,0.06h-0.89v1.88h-0.78v-1.88h-3.18
		c-0.07,0-0.12-0.02-0.17-0.06c-0.05-0.04-0.08-0.09-0.09-0.14l-0.09-0.46l3.48-4.63h0.83v4.58H408.91z M407.05,20.94v-2.96
		c0-0.09,0-0.18,0.01-0.29c0.01-0.1,0.02-0.21,0.03-0.31l-2.61,3.56H407.05z"/>
	<path d="M409.75,22.97c0-0.09,0.02-0.17,0.05-0.25c0.03-0.08,0.08-0.14,0.13-0.2s0.12-0.1,0.2-0.13c0.08-0.03,0.16-0.05,0.25-0.05
		s0.17,0.02,0.25,0.05c0.08,0.03,0.14,0.08,0.2,0.13s0.1,0.12,0.13,0.2s0.05,0.16,0.05,0.25c0,0.09-0.02,0.17-0.05,0.25
		c-0.03,0.08-0.08,0.14-0.13,0.2s-0.12,0.1-0.2,0.13c-0.08,0.03-0.16,0.05-0.25,0.05s-0.17-0.02-0.25-0.05
		c-0.08-0.03-0.14-0.08-0.2-0.13s-0.1-0.12-0.13-0.2C409.77,23.15,409.75,23.06,409.75,22.97z"/>
	<path d="M417.06,19.94c0,0.63-0.07,1.17-0.2,1.63c-0.14,0.46-0.32,0.84-0.55,1.14c-0.23,0.3-0.51,0.52-0.83,0.67
		c-0.32,0.15-0.66,0.22-1.02,0.22c-0.37,0-0.71-0.07-1.02-0.22c-0.31-0.15-0.59-0.37-0.82-0.67c-0.23-0.3-0.42-0.68-0.55-1.14
		c-0.13-0.46-0.2-1-0.2-1.63c0-0.63,0.07-1.17,0.2-1.63c0.13-0.46,0.32-0.84,0.55-1.14s0.51-0.53,0.82-0.67
		c0.32-0.15,0.66-0.22,1.02-0.22c0.36,0,0.71,0.07,1.02,0.22c0.32,0.15,0.59,0.37,0.83,0.67s0.42,0.68,0.55,1.14
		C416.99,18.77,417.06,19.32,417.06,19.94z M416.13,19.94c0-0.55-0.05-1.01-0.14-1.38s-0.21-0.67-0.37-0.9s-0.33-0.39-0.54-0.49
		c-0.2-0.1-0.42-0.15-0.64-0.15c-0.22,0-0.43,0.05-0.63,0.15c-0.2,0.1-0.38,0.26-0.54,0.49s-0.28,0.53-0.37,0.9
		s-0.14,0.83-0.14,1.38c0,0.55,0.05,1,0.14,1.38s0.21,0.67,0.37,0.9s0.33,0.39,0.54,0.49c0.2,0.1,0.42,0.15,0.63,0.15
		c0.22,0,0.43-0.05,0.64-0.15c0.2-0.1,0.38-0.26,0.54-0.49s0.28-0.52,0.37-0.9S416.13,20.49,416.13,19.94z"/>
	<path d="M421.8,23.52h-0.97v-7.17h0.97V23.52z"/>
	<path d="M424.19,19.19c0.11-0.12,0.23-0.23,0.35-0.33c0.12-0.1,0.25-0.19,0.39-0.26c0.14-0.07,0.29-0.13,0.44-0.17
		c0.16-0.04,0.32-0.06,0.5-0.06c0.28,0,0.52,0.05,0.73,0.14c0.21,0.09,0.39,0.22,0.53,0.39c0.14,0.17,0.25,0.37,0.32,0.61
		c0.07,0.24,0.11,0.5,0.11,0.78v3.23h-0.89V20.3c0-0.38-0.09-0.68-0.26-0.89c-0.17-0.21-0.44-0.32-0.8-0.32
		c-0.26,0-0.51,0.06-0.74,0.19c-0.23,0.13-0.44,0.3-0.63,0.52v3.73h-0.89v-5.06h0.54c0.13,0,0.21,0.06,0.23,0.19L424.19,19.19z"/>
	<path d="M430.41,23.6c-0.4,0-0.71-0.11-0.92-0.33c-0.22-0.22-0.32-0.54-0.32-0.97v-3.1h-0.61c-0.05,0-0.1-0.02-0.14-0.05
		c-0.04-0.03-0.05-0.08-0.05-0.15v-0.35l0.83-0.1l0.21-1.56c0.01-0.05,0.03-0.09,0.07-0.12s0.08-0.05,0.14-0.05h0.45v1.75h1.46v0.65
		h-1.46v3.04c0,0.21,0.05,0.37,0.15,0.47c0.1,0.1,0.24,0.16,0.4,0.16c0.09,0,0.17-0.01,0.24-0.04s0.13-0.05,0.18-0.08
		s0.09-0.06,0.13-0.08s0.07-0.04,0.09-0.04c0.05,0,0.09,0.03,0.13,0.08l0.26,0.43c-0.15,0.14-0.34,0.26-0.56,0.34
		S430.64,23.6,430.41,23.6z"/>
	<path d="M436.53,22.81c-0.11,0.13-0.24,0.25-0.4,0.35c-0.15,0.1-0.32,0.18-0.49,0.24c-0.17,0.06-0.36,0.11-0.54,0.14
		s-0.37,0.05-0.55,0.05c-0.35,0-0.67-0.06-0.97-0.18s-0.55-0.29-0.76-0.52s-0.38-0.51-0.5-0.85c-0.12-0.34-0.18-0.72-0.18-1.16
		c0-0.35,0.05-0.68,0.16-0.99s0.26-0.57,0.47-0.8s0.45-0.4,0.75-0.53c0.29-0.13,0.62-0.19,0.99-0.19c0.3,0,0.58,0.05,0.84,0.15
		c0.26,0.1,0.48,0.25,0.67,0.44c0.19,0.19,0.33,0.43,0.44,0.71c0.11,0.28,0.16,0.6,0.16,0.96c0,0.14-0.01,0.23-0.04,0.28
		c-0.03,0.05-0.09,0.07-0.17,0.07h-3.38c0.01,0.32,0.05,0.6,0.13,0.83c0.08,0.24,0.19,0.43,0.33,0.59s0.31,0.28,0.5,0.35
		c0.19,0.08,0.41,0.12,0.65,0.12c0.22,0,0.42-0.03,0.58-0.08s0.3-0.11,0.42-0.17c0.12-0.06,0.21-0.12,0.29-0.17s0.15-0.08,0.2-0.08
		c0.07,0,0.13,0.03,0.17,0.08L436.53,22.81z M435.81,20.44c0-0.21-0.03-0.4-0.09-0.57c-0.06-0.17-0.14-0.32-0.25-0.45
		c-0.11-0.13-0.25-0.22-0.41-0.29c-0.16-0.07-0.34-0.1-0.54-0.1c-0.43,0-0.76,0.12-1.01,0.37c-0.25,0.25-0.4,0.59-0.46,1.03H435.81z
		"/>
	<path d="M438.54,19.47c0.16-0.35,0.36-0.62,0.59-0.81c0.23-0.2,0.52-0.29,0.86-0.29c0.11,0,0.21,0.01,0.31,0.03
		c0.1,0.02,0.19,0.06,0.26,0.11l-0.07,0.66c-0.02,0.08-0.07,0.13-0.15,0.13c-0.05,0-0.11-0.01-0.21-0.03
		c-0.09-0.02-0.19-0.03-0.3-0.03c-0.16,0-0.3,0.02-0.43,0.07s-0.24,0.12-0.33,0.21c-0.1,0.09-0.19,0.21-0.26,0.34
		c-0.08,0.14-0.15,0.29-0.21,0.46v3.2h-0.89v-5.06h0.51c0.1,0,0.16,0.02,0.2,0.06c0.04,0.04,0.06,0.1,0.08,0.19L438.54,19.47z"/>
	<path d="M442.18,19.19c0.11-0.12,0.23-0.23,0.35-0.33c0.12-0.1,0.25-0.19,0.39-0.26c0.14-0.07,0.29-0.13,0.44-0.17
		c0.16-0.04,0.32-0.06,0.5-0.06c0.28,0,0.52,0.05,0.73,0.14c0.21,0.09,0.39,0.22,0.53,0.39c0.14,0.17,0.25,0.37,0.32,0.61
		c0.07,0.24,0.11,0.5,0.11,0.78v3.23h-0.89V20.3c0-0.38-0.09-0.68-0.26-0.89c-0.17-0.21-0.44-0.32-0.8-0.32
		c-0.26,0-0.51,0.06-0.74,0.19c-0.23,0.13-0.44,0.3-0.63,0.52v3.73h-0.89v-5.06h0.54c0.13,0,0.21,0.06,0.23,0.19L442.18,19.19z"/>
	<path d="M446.79,19.17c0.28-0.27,0.58-0.47,0.91-0.6c0.32-0.13,0.68-0.2,1.07-0.2c0.28,0,0.54,0.05,0.75,0.14
		c0.22,0.09,0.41,0.22,0.56,0.39c0.15,0.17,0.26,0.37,0.34,0.6c0.08,0.24,0.12,0.5,0.12,0.78v3.24h-0.4c-0.09,0-0.15-0.01-0.2-0.04
		c-0.05-0.03-0.08-0.08-0.11-0.17l-0.1-0.48c-0.13,0.12-0.26,0.23-0.39,0.33c-0.13,0.09-0.26,0.17-0.4,0.24
		c-0.14,0.06-0.29,0.12-0.45,0.15c-0.16,0.04-0.33,0.05-0.53,0.05c-0.2,0-0.38-0.03-0.55-0.08c-0.17-0.06-0.32-0.14-0.45-0.25
		c-0.13-0.11-0.23-0.25-0.3-0.42s-0.11-0.37-0.11-0.6c0-0.2,0.05-0.39,0.17-0.58c0.11-0.19,0.29-0.35,0.54-0.49
		c0.25-0.14,0.57-0.26,0.96-0.35s0.88-0.14,1.46-0.16v-0.4c0-0.39-0.08-0.69-0.25-0.89s-0.42-0.3-0.75-0.3
		c-0.22,0-0.4,0.03-0.55,0.08s-0.28,0.12-0.38,0.19s-0.2,0.13-0.28,0.19c-0.08,0.05-0.16,0.08-0.23,0.08
		c-0.06,0-0.11-0.02-0.16-0.05c-0.04-0.03-0.08-0.07-0.11-0.12L446.79,19.17z M449.66,21.24c-0.41,0.01-0.76,0.05-1.05,0.1
		s-0.52,0.12-0.71,0.2s-0.31,0.18-0.39,0.29c-0.08,0.11-0.12,0.24-0.12,0.38c0,0.13,0.02,0.25,0.07,0.35
		c0.04,0.1,0.1,0.18,0.18,0.24c0.07,0.06,0.16,0.11,0.26,0.14s0.21,0.04,0.33,0.04c0.16,0,0.3-0.02,0.43-0.05s0.25-0.08,0.37-0.14
		s0.22-0.13,0.33-0.21c0.1-0.08,0.21-0.18,0.31-0.29V21.24z"/>
	<path d="M456.52,23.52h-0.89V19.2h-2.61v3.04c0,0.21,0.05,0.37,0.15,0.47c0.1,0.1,0.24,0.16,0.4,0.16c0.09,0,0.17-0.01,0.24-0.04
		s0.13-0.05,0.18-0.08s0.09-0.06,0.13-0.08s0.07-0.04,0.09-0.04c0.05,0,0.09,0.03,0.13,0.08l0.26,0.43
		c-0.15,0.14-0.34,0.26-0.56,0.34s-0.44,0.12-0.67,0.12c-0.4,0-0.71-0.11-0.92-0.33c-0.22-0.22-0.32-0.54-0.32-0.97v-3.1h-0.61
		c-0.05,0-0.1-0.02-0.14-0.05c-0.04-0.03-0.05-0.08-0.05-0.15v-0.35l0.83-0.11l0.21-1.56c0.01-0.05,0.03-0.09,0.07-0.12
		s0.08-0.05,0.14-0.05h0.45v1.75h3.5V23.52z M456.74,16.83c0,0.09-0.02,0.17-0.05,0.24c-0.04,0.07-0.08,0.14-0.14,0.2
		s-0.13,0.1-0.2,0.13c-0.08,0.03-0.16,0.05-0.25,0.05c-0.09,0-0.17-0.02-0.24-0.05c-0.07-0.03-0.14-0.08-0.2-0.13
		s-0.1-0.12-0.13-0.2c-0.03-0.08-0.05-0.16-0.05-0.24c0-0.09,0.02-0.17,0.05-0.25s0.08-0.15,0.13-0.21c0.06-0.06,0.12-0.1,0.2-0.14
		c0.08-0.03,0.16-0.05,0.24-0.05c0.09,0,0.17,0.02,0.25,0.05c0.08,0.03,0.14,0.08,0.2,0.14c0.06,0.06,0.1,0.13,0.14,0.21
		S456.74,16.75,456.74,16.83z"/>
	<path d="M460.12,18.38c0.37,0,0.7,0.06,1,0.19s0.55,0.3,0.76,0.52s0.37,0.5,0.48,0.82c0.11,0.32,0.17,0.68,0.17,1.08
		c0,0.4-0.06,0.76-0.17,1.08c-0.11,0.32-0.27,0.59-0.48,0.82c-0.21,0.23-0.46,0.4-0.76,0.52c-0.3,0.12-0.63,0.18-1,0.18
		c-0.37,0-0.71-0.06-1.01-0.18c-0.3-0.12-0.55-0.3-0.76-0.52c-0.21-0.23-0.37-0.5-0.48-0.82c-0.11-0.32-0.17-0.68-0.17-1.08
		c0-0.4,0.06-0.76,0.17-1.08c0.11-0.32,0.27-0.6,0.48-0.82s0.46-0.4,0.76-0.52C459.41,18.44,459.74,18.38,460.12,18.38z
		 M460.12,22.9c0.5,0,0.87-0.17,1.12-0.5s0.37-0.8,0.37-1.4c0-0.6-0.12-1.07-0.37-1.41c-0.25-0.34-0.62-0.5-1.12-0.5
		c-0.25,0-0.47,0.04-0.66,0.13c-0.19,0.09-0.35,0.21-0.47,0.38c-0.13,0.16-0.22,0.36-0.28,0.6s-0.09,0.51-0.09,0.81
		c0,0.6,0.12,1.07,0.37,1.4C459.23,22.73,459.61,22.9,460.12,22.9z"/>
	<path d="M464.49,19.19c0.11-0.12,0.23-0.23,0.35-0.33c0.12-0.1,0.25-0.19,0.39-0.26c0.14-0.07,0.29-0.13,0.44-0.17
		c0.16-0.04,0.32-0.06,0.5-0.06c0.28,0,0.52,0.05,0.73,0.14c0.21,0.09,0.39,0.22,0.53,0.39c0.14,0.17,0.25,0.37,0.32,0.61
		c0.07,0.24,0.11,0.5,0.11,0.78v3.23h-0.89V20.3c0-0.38-0.09-0.68-0.26-0.89c-0.17-0.21-0.44-0.32-0.8-0.32
		c-0.26,0-0.51,0.06-0.74,0.19c-0.23,0.13-0.44,0.3-0.63,0.52v3.73h-0.89v-5.06h0.54c0.13,0,0.21,0.06,0.23,0.19L464.49,19.19z"/>
	<path d="M469.1,19.17c0.28-0.27,0.58-0.47,0.91-0.6c0.32-0.13,0.68-0.2,1.07-0.2c0.28,0,0.54,0.05,0.75,0.14
		c0.22,0.09,0.41,0.22,0.56,0.39c0.15,0.17,0.26,0.37,0.34,0.6c0.08,0.24,0.12,0.5,0.12,0.78v3.24h-0.4c-0.09,0-0.15-0.01-0.2-0.04
		c-0.05-0.03-0.08-0.08-0.11-0.17l-0.1-0.48c-0.13,0.12-0.26,0.23-0.39,0.33c-0.13,0.09-0.26,0.17-0.4,0.24
		c-0.14,0.06-0.29,0.12-0.45,0.15c-0.16,0.04-0.33,0.05-0.53,0.05c-0.2,0-0.38-0.03-0.55-0.08c-0.17-0.06-0.32-0.14-0.45-0.25
		c-0.13-0.11-0.23-0.25-0.3-0.42s-0.11-0.37-0.11-0.6c0-0.2,0.05-0.39,0.17-0.58c0.11-0.19,0.29-0.35,0.54-0.49
		c0.25-0.14,0.57-0.26,0.96-0.35s0.88-0.14,1.46-0.16v-0.4c0-0.39-0.08-0.69-0.25-0.89s-0.42-0.3-0.75-0.3
		c-0.22,0-0.4,0.03-0.55,0.08s-0.28,0.12-0.38,0.19s-0.2,0.13-0.28,0.19c-0.08,0.05-0.16,0.08-0.23,0.08
		c-0.06,0-0.11-0.02-0.16-0.05c-0.04-0.03-0.08-0.07-0.11-0.12L469.1,19.17z M471.98,21.24c-0.41,0.01-0.76,0.05-1.05,0.1
		s-0.52,0.12-0.71,0.2s-0.31,0.18-0.39,0.29c-0.08,0.11-0.12,0.24-0.12,0.38c0,0.13,0.02,0.25,0.07,0.35
		c0.04,0.1,0.1,0.18,0.18,0.24c0.07,0.06,0.16,0.11,0.26,0.14s0.21,0.04,0.33,0.04c0.16,0,0.3-0.02,0.43-0.05s0.25-0.08,0.37-0.14
		s0.22-0.13,0.33-0.21c0.1-0.08,0.21-0.18,0.31-0.29V21.24z"/>
	<path d="M475.12,16.16v7.37h-0.89v-7.37H475.12z"/>
	<path d="M483.4,22.71v0.81h-4.07v-7.17h0.96v6.35H483.4z"/>
	<path d="M485.39,16.87c0,0.09-0.02,0.17-0.05,0.24c-0.04,0.08-0.08,0.14-0.14,0.2c-0.06,0.06-0.13,0.1-0.21,0.14
		c-0.08,0.03-0.16,0.05-0.25,0.05c-0.09,0-0.17-0.02-0.24-0.05c-0.08-0.03-0.14-0.08-0.2-0.14c-0.06-0.06-0.1-0.13-0.13-0.2
		c-0.03-0.07-0.05-0.16-0.05-0.24c0-0.09,0.02-0.17,0.05-0.25c0.03-0.08,0.08-0.15,0.13-0.21c0.06-0.06,0.12-0.1,0.2-0.14
		c0.08-0.03,0.16-0.05,0.24-0.05c0.09,0,0.17,0.02,0.25,0.05c0.08,0.03,0.15,0.08,0.21,0.14c0.06,0.06,0.1,0.13,0.14,0.21
		C485.37,16.7,485.39,16.78,485.39,16.87z M485.2,18.46v5.06h-0.89v-5.06H485.2z"/>
	<path d="M490.18,19.36c-0.03,0.04-0.05,0.06-0.08,0.08c-0.03,0.02-0.06,0.03-0.11,0.03c-0.05,0-0.11-0.02-0.17-0.06
		c-0.06-0.04-0.13-0.09-0.22-0.14c-0.09-0.05-0.2-0.1-0.33-0.14c-0.13-0.04-0.29-0.06-0.47-0.06c-0.25,0-0.47,0.04-0.66,0.13
		c-0.19,0.09-0.35,0.22-0.48,0.38c-0.13,0.17-0.23,0.37-0.29,0.6c-0.07,0.24-0.1,0.5-0.1,0.79c0,0.31,0.04,0.58,0.1,0.82
		c0.07,0.24,0.17,0.44,0.3,0.6c0.13,0.16,0.28,0.29,0.46,0.37s0.39,0.13,0.61,0.13c0.22,0,0.4-0.03,0.54-0.08
		c0.14-0.05,0.26-0.11,0.35-0.17c0.09-0.06,0.17-0.12,0.23-0.17c0.06-0.05,0.12-0.08,0.18-0.08c0.07,0,0.13,0.03,0.17,0.08
		l0.25,0.33c-0.11,0.14-0.24,0.25-0.38,0.35c-0.14,0.1-0.29,0.18-0.45,0.24c-0.16,0.06-0.33,0.11-0.51,0.14
		c-0.18,0.03-0.36,0.04-0.54,0.04c-0.32,0-0.61-0.06-0.88-0.17s-0.51-0.29-0.71-0.51c-0.2-0.22-0.36-0.49-0.47-0.82
		c-0.11-0.32-0.17-0.69-0.17-1.1c0-0.38,0.05-0.72,0.16-1.04c0.11-0.32,0.26-0.6,0.46-0.83c0.2-0.23,0.45-0.41,0.75-0.54
		c0.29-0.13,0.63-0.19,1.02-0.19c0.36,0,0.67,0.06,0.94,0.17c0.27,0.12,0.51,0.28,0.72,0.49L490.18,19.36z"/>
	<path d="M495.45,22.81c-0.11,0.13-0.24,0.25-0.4,0.35c-0.15,0.1-0.32,0.18-0.49,0.24c-0.17,0.06-0.36,0.11-0.54,0.14
		s-0.37,0.05-0.55,0.05c-0.35,0-0.67-0.06-0.97-0.18s-0.55-0.29-0.76-0.52s-0.38-0.51-0.5-0.85c-0.12-0.34-0.18-0.72-0.18-1.16
		c0-0.35,0.05-0.68,0.16-0.99s0.26-0.57,0.47-0.8s0.45-0.4,0.75-0.53c0.29-0.13,0.62-0.19,0.99-0.19c0.3,0,0.58,0.05,0.84,0.15
		c0.26,0.1,0.48,0.25,0.67,0.44c0.19,0.19,0.33,0.43,0.44,0.71c0.11,0.28,0.16,0.6,0.16,0.96c0,0.14-0.01,0.23-0.04,0.28
		c-0.03,0.05-0.09,0.07-0.17,0.07h-3.38c0.01,0.32,0.05,0.6,0.13,0.83c0.08,0.24,0.19,0.43,0.33,0.59s0.31,0.28,0.5,0.35
		c0.19,0.08,0.41,0.12,0.65,0.12c0.22,0,0.42-0.03,0.58-0.08s0.3-0.11,0.42-0.17c0.12-0.06,0.21-0.12,0.29-0.17s0.15-0.08,0.2-0.08
		c0.07,0,0.13,0.03,0.17,0.08L495.45,22.81z M494.73,20.44c0-0.21-0.03-0.4-0.09-0.57c-0.06-0.17-0.14-0.32-0.25-0.45
		c-0.11-0.13-0.25-0.22-0.41-0.29c-0.16-0.07-0.34-0.1-0.54-0.1c-0.43,0-0.76,0.12-1.01,0.37c-0.25,0.25-0.4,0.59-0.46,1.03H494.73z
		"/>
	<path d="M497.46,19.19c0.11-0.12,0.23-0.23,0.35-0.33c0.12-0.1,0.25-0.19,0.39-0.26c0.14-0.07,0.29-0.13,0.44-0.17
		c0.16-0.04,0.32-0.06,0.5-0.06c0.28,0,0.52,0.05,0.73,0.14c0.21,0.09,0.39,0.22,0.53,0.39c0.14,0.17,0.25,0.37,0.32,0.61
		c0.07,0.24,0.11,0.5,0.11,0.78v3.23h-0.89V20.3c0-0.38-0.09-0.68-0.26-0.89c-0.17-0.21-0.44-0.32-0.8-0.32
		c-0.26,0-0.51,0.06-0.74,0.19c-0.23,0.13-0.44,0.3-0.63,0.52v3.73h-0.89v-5.06h0.54c0.13,0,0.21,0.06,0.23,0.19L497.46,19.19z"/>
	<path d="M505.15,19.29c-0.04,0.07-0.1,0.11-0.19,0.11c-0.05,0-0.11-0.02-0.17-0.05s-0.14-0.08-0.23-0.12s-0.2-0.09-0.33-0.13
		c-0.13-0.04-0.28-0.06-0.45-0.06c-0.15,0-0.29,0.02-0.41,0.06c-0.12,0.04-0.22,0.09-0.31,0.16c-0.08,0.07-0.15,0.14-0.19,0.23
		c-0.04,0.09-0.07,0.18-0.07,0.29c0,0.13,0.04,0.24,0.11,0.33c0.08,0.09,0.17,0.16,0.3,0.23c0.12,0.06,0.26,0.12,0.42,0.17
		c0.16,0.05,0.32,0.1,0.48,0.15s0.33,0.12,0.48,0.18c0.16,0.07,0.3,0.15,0.42,0.25c0.12,0.1,0.22,0.22,0.3,0.37
		c0.08,0.14,0.11,0.32,0.11,0.52c0,0.23-0.04,0.45-0.13,0.65c-0.08,0.2-0.21,0.37-0.37,0.51c-0.16,0.15-0.36,0.26-0.6,0.34
		c-0.24,0.08-0.51,0.13-0.82,0.13c-0.35,0-0.67-0.06-0.96-0.17c-0.29-0.12-0.53-0.26-0.73-0.44l0.21-0.34
		c0.03-0.04,0.06-0.08,0.09-0.1c0.04-0.02,0.08-0.03,0.14-0.03c0.06,0,0.12,0.02,0.19,0.07c0.07,0.05,0.15,0.1,0.24,0.15
		c0.09,0.06,0.21,0.11,0.35,0.16c0.14,0.05,0.31,0.07,0.51,0.07c0.17,0,0.32-0.02,0.46-0.07c0.13-0.04,0.24-0.11,0.32-0.18
		c0.09-0.08,0.15-0.17,0.19-0.27c0.04-0.1,0.06-0.21,0.06-0.32c0-0.14-0.04-0.26-0.11-0.35c-0.07-0.09-0.17-0.17-0.3-0.23
		c-0.12-0.06-0.26-0.12-0.42-0.17s-0.32-0.1-0.49-0.15c-0.17-0.05-0.33-0.11-0.48-0.18s-0.3-0.15-0.42-0.26
		c-0.12-0.1-0.22-0.23-0.3-0.38c-0.07-0.15-0.11-0.34-0.11-0.55c0-0.19,0.04-0.38,0.12-0.56s0.2-0.33,0.35-0.47
		c0.15-0.13,0.34-0.24,0.56-0.32s0.48-0.12,0.76-0.12c0.33,0,0.63,0.05,0.9,0.16c0.26,0.1,0.49,0.25,0.69,0.43L505.15,19.29z"/>
	<path d="M510.64,22.81c-0.11,0.13-0.24,0.25-0.4,0.35c-0.15,0.1-0.32,0.18-0.49,0.24c-0.17,0.06-0.36,0.11-0.54,0.14
		s-0.37,0.05-0.55,0.05c-0.35,0-0.67-0.06-0.97-0.18s-0.55-0.29-0.76-0.52s-0.38-0.51-0.5-0.85c-0.12-0.34-0.18-0.72-0.18-1.16
		c0-0.35,0.05-0.68,0.16-0.99s0.26-0.57,0.47-0.8s0.45-0.4,0.75-0.53c0.29-0.13,0.62-0.19,0.99-0.19c0.3,0,0.58,0.05,0.84,0.15
		c0.26,0.1,0.48,0.25,0.67,0.44c0.19,0.19,0.33,0.43,0.44,0.71c0.11,0.28,0.16,0.6,0.16,0.96c0,0.14-0.01,0.23-0.04,0.28
		c-0.03,0.05-0.09,0.07-0.17,0.07h-3.38c0.01,0.32,0.05,0.6,0.13,0.83c0.08,0.24,0.19,0.43,0.33,0.59s0.31,0.28,0.5,0.35
		c0.19,0.08,0.41,0.12,0.65,0.12c0.22,0,0.42-0.03,0.58-0.08s0.3-0.11,0.42-0.17c0.12-0.06,0.21-0.12,0.29-0.17s0.15-0.08,0.2-0.08
		c0.07,0,0.13,0.03,0.17,0.08L510.64,22.81z M509.92,20.44c0-0.21-0.03-0.4-0.09-0.57c-0.06-0.17-0.14-0.32-0.25-0.45
		c-0.11-0.13-0.25-0.22-0.41-0.29c-0.16-0.07-0.34-0.1-0.54-0.1c-0.43,0-0.76,0.12-1.01,0.37c-0.25,0.25-0.4,0.59-0.46,1.03H509.92z
		"/>
	<path d="M511.66,22.97c0-0.09,0.02-0.17,0.05-0.25c0.03-0.08,0.08-0.14,0.13-0.2s0.12-0.1,0.2-0.13c0.08-0.03,0.16-0.05,0.25-0.05
		s0.17,0.02,0.25,0.05c0.08,0.03,0.14,0.08,0.2,0.13s0.1,0.12,0.13,0.2s0.05,0.16,0.05,0.25c0,0.09-0.02,0.17-0.05,0.25
		c-0.03,0.08-0.08,0.14-0.13,0.2s-0.12,0.1-0.2,0.13c-0.08,0.03-0.16,0.05-0.25,0.05s-0.17-0.02-0.25-0.05
		c-0.08-0.03-0.14-0.08-0.2-0.13s-0.1-0.12-0.13-0.2C511.68,23.15,511.66,23.06,511.66,22.97z"/>
</g>
<g>
	<path d="M13.79,3.55L7.3,10.03H3.76L13.79,0V3.55z"/>
	<path d="M23.81,5.01c0,0.7-0.13,1.35-0.39,1.96c-0.26,0.61-0.62,1.14-1.07,1.59c-0.45,0.45-0.99,0.81-1.59,1.07
		c-0.61,0.26-1.26,0.4-1.96,0.4c-0.46,0-0.91-0.06-1.33-0.18c-0.43-0.12-0.83-0.29-1.2-0.51c-0.37-0.22-0.71-0.48-1.01-0.78
		c-0.3-0.3-0.56-0.64-0.78-1.01c-0.22-0.37-0.39-0.77-0.51-1.2c-0.12-0.43-0.18-0.87-0.18-1.33h2.51c0,0.34,0.07,0.66,0.2,0.97
		c0.13,0.3,0.31,0.57,0.54,0.8c0.23,0.23,0.49,0.41,0.8,0.54c0.3,0.13,0.63,0.2,0.97,0.2c0.35,0,0.67-0.07,0.98-0.2
		c0.3-0.13,0.57-0.31,0.8-0.54c0.23-0.23,0.41-0.49,0.54-0.8c0.13-0.3,0.2-0.63,0.2-0.97H23.81z"/>
	<path d="M3.54,12.03l6.49,6.48v3.55L0,12.03H3.54z"/>
	<path d="M12.54,12.03c0.17,0,0.34,0.03,0.49,0.1c0.15,0.07,0.29,0.16,0.4,0.27c0.11,0.11,0.2,0.25,0.26,0.4
		c0.06,0.15,0.1,0.32,0.1,0.49c0,0.17-0.03,0.34-0.1,0.49c-0.06,0.15-0.15,0.28-0.26,0.39c-0.11,0.11-0.24,0.2-0.4,0.27
		c-0.15,0.07-0.32,0.1-0.49,0.1c-0.17,0-0.34-0.03-0.49-0.1c-0.15-0.07-0.29-0.16-0.4-0.27c-0.11-0.11-0.2-0.24-0.27-0.39
		c-0.07-0.15-0.1-0.31-0.1-0.49c0-0.17,0.03-0.34,0.1-0.49c0.07-0.15,0.16-0.29,0.27-0.4c0.11-0.11,0.25-0.2,0.4-0.27
		C12.21,12.07,12.37,12.03,12.54,12.03z M11.28,22.06v-5.01h2.51v2.51L11.28,22.06z"/>
	<path d="M15.04,17.05c0-0.46,0.06-0.91,0.18-1.33c0.12-0.43,0.29-0.83,0.51-1.2c0.22-0.37,0.48-0.71,0.78-1.01
		c0.3-0.3,0.64-0.56,1.01-0.78c0.37-0.22,0.77-0.39,1.2-0.51c0.43-0.12,0.87-0.18,1.33-0.18v2.51c-0.35,0-0.67,0.07-0.98,0.2
		c-0.3,0.13-0.57,0.31-0.8,0.54c-0.23,0.23-0.41,0.49-0.54,0.8c-0.13,0.3-0.2,0.63-0.2,0.97H15.04z M20.05,19.55
		c0.35,0,0.67-0.07,0.98-0.2c0.3-0.13,0.57-0.31,0.8-0.54c0.23-0.23,0.41-0.49,0.54-0.8c0.13-0.3,0.2-0.63,0.2-0.97h2.51
		c0,0.7-0.13,1.35-0.39,1.96c-0.26,0.61-0.62,1.14-1.07,1.59c-0.45,0.45-0.99,0.81-1.59,1.07c-0.61,0.26-1.26,0.4-1.96,0.4V19.55z"
		/>
</g>
<g>
	<path d="M35.08,5.78l4.93,10.52h-1.16l-1.23-2.65h-4.88l-1.16,2.65h-1.16L35.08,5.78z M37.18,12.65l-2.08-4.47l-1.93,4.47H37.18z"
		/>
	<path d="M40.47,6.28h1.09v6.4c0,0.53,0.08,0.98,0.23,1.35c0.15,0.36,0.35,0.65,0.59,0.87c0.24,0.22,0.52,0.38,0.83,0.47
		c0.31,0.1,0.62,0.14,0.94,0.14s0.63-0.05,0.94-0.14c0.31-0.1,0.59-0.25,0.83-0.47c0.24-0.22,0.44-0.51,0.59-0.87
		s0.23-0.81,0.23-1.35v-6.4h1.09v6.56c0,0.61-0.1,1.15-0.31,1.6s-0.49,0.84-0.84,1.15s-0.74,0.54-1.18,0.69
		c-0.44,0.15-0.89,0.23-1.35,0.23s-0.91-0.08-1.35-0.23c-0.44-0.15-0.83-0.38-1.18-0.69c-0.35-0.31-0.63-0.69-0.84-1.15
		s-0.31-0.99-0.31-1.6V6.28z"/>
	<path d="M53.29,6.28h1.17l3.33,7.89l3.1-7.89h1.15L57.81,16.8L53.29,6.28z"/>
	<path d="M62.97,6.28H64v1.17h-1.03V6.28z M62.97,9.15H64v7.16h-1.03V9.15z"/>
	<path d="M66.59,14.44c0.02,0.33,0.15,0.59,0.38,0.77c0.23,0.18,0.53,0.27,0.89,0.27c0.4,0,0.72-0.1,0.95-0.3
		c0.23-0.2,0.35-0.5,0.35-0.9c0-0.16-0.04-0.3-0.11-0.42c-0.07-0.11-0.17-0.21-0.29-0.3c-0.12-0.09-0.26-0.16-0.42-0.23
		c-0.16-0.07-0.32-0.13-0.49-0.2c-0.24-0.09-0.48-0.18-0.72-0.28c-0.24-0.1-0.47-0.23-0.67-0.38c-0.2-0.15-0.36-0.34-0.49-0.57
		s-0.19-0.52-0.19-0.86c0-0.31,0.05-0.6,0.16-0.85s0.25-0.47,0.44-0.64s0.42-0.31,0.67-0.4C67.34,9.05,67.62,9,67.94,9
		c0.63,0,1.13,0.17,1.5,0.5c0.37,0.33,0.57,0.79,0.61,1.36h-1.03c-0.03-0.25-0.13-0.46-0.31-0.63c-0.18-0.17-0.43-0.26-0.76-0.26
		c-0.33,0-0.6,0.09-0.79,0.28s-0.29,0.45-0.29,0.78c0,0.17,0.04,0.32,0.12,0.44c0.08,0.12,0.19,0.22,0.33,0.31
		c0.14,0.09,0.3,0.17,0.47,0.24c0.18,0.07,0.36,0.14,0.55,0.21c0.22,0.09,0.44,0.18,0.67,0.28c0.22,0.1,0.43,0.22,0.61,0.37
		c0.18,0.15,0.33,0.33,0.44,0.56c0.11,0.22,0.17,0.5,0.17,0.84c0,0.69-0.22,1.22-0.67,1.6c-0.44,0.38-1.01,0.57-1.7,0.57
		c-0.66,0-1.2-0.18-1.62-0.53c-0.42-0.35-0.65-0.84-0.7-1.47H66.59z"/>
	<path d="M71.69,9.15h1.05v3.97c0,0.82,0.15,1.41,0.44,1.77s0.75,0.54,1.37,0.54c0.25,0,0.48-0.04,0.71-0.12
		c0.22-0.08,0.43-0.19,0.62-0.31s0.35-0.27,0.5-0.42c0.15-0.15,0.27-0.31,0.35-0.46V9.15h1.03v7.16h-1.03v-0.93
		c-0.29,0.34-0.63,0.61-1.02,0.79c-0.39,0.19-0.8,0.28-1.23,0.28c-0.42,0-0.8-0.06-1.15-0.19c-0.34-0.12-0.64-0.31-0.88-0.57
		c-0.24-0.26-0.43-0.58-0.57-0.98c-0.13-0.4-0.2-0.86-0.2-1.4V9.15z"/>
	<path d="M85.36,15.37c-0.67,0.72-1.48,1.07-2.43,1.07c-0.52,0-1-0.1-1.45-0.29c-0.45-0.2-0.85-0.46-1.18-0.79
		c-0.33-0.33-0.6-0.73-0.79-1.18c-0.2-0.45-0.29-0.94-0.29-1.45c0-0.52,0.1-1,0.29-1.45c0.2-0.45,0.46-0.85,0.79-1.18
		s0.73-0.6,1.18-0.79C81.92,9.1,82.41,9,82.92,9c0.95,0,1.77,0.36,2.43,1.07V9.15h1.03v7.16h-1.03V15.37z M85.36,11.35
		c-0.1-0.15-0.24-0.31-0.41-0.47c-0.17-0.16-0.35-0.31-0.56-0.44s-0.43-0.24-0.68-0.33c-0.25-0.09-0.51-0.13-0.79-0.13
		c-0.38,0-0.73,0.07-1.06,0.21c-0.32,0.14-0.61,0.34-0.84,0.59c-0.24,0.25-0.42,0.54-0.56,0.87s-0.2,0.69-0.2,1.07
		c0,0.38,0.07,0.74,0.2,1.07s0.32,0.63,0.56,0.87c0.24,0.25,0.52,0.44,0.84,0.59c0.32,0.14,0.68,0.21,1.06,0.21
		c0.28,0,0.54-0.04,0.79-0.12c0.25-0.08,0.47-0.19,0.68-0.31c0.21-0.13,0.39-0.28,0.56-0.44s0.3-0.33,0.41-0.49V11.35z"/>
	<path d="M88.4,6.28h1.03V16.3H88.4V6.28z"/>
	<path d="M91.61,6.28h1.03v1.17h-1.03V6.28z M91.61,9.15h1.03v7.16h-1.03V9.15z"/>
	<path d="M98.09,10.12h-3.64V9.15h5.51l-4.19,6.18h4.05v0.97h-5.94L98.09,10.12z"/>
	<path d="M106.77,15.37c-0.67,0.72-1.48,1.07-2.43,1.07c-0.52,0-1-0.1-1.45-0.29c-0.45-0.2-0.85-0.46-1.18-0.79
		c-0.33-0.33-0.6-0.73-0.79-1.18c-0.2-0.45-0.29-0.94-0.29-1.45c0-0.52,0.1-1,0.29-1.45c0.2-0.45,0.46-0.85,0.79-1.18
		s0.73-0.6,1.18-0.79c0.45-0.2,0.94-0.29,1.45-0.29c0.95,0,1.77,0.36,2.43,1.07V9.15h1.03v7.16h-1.03V15.37z M106.77,11.35
		c-0.1-0.15-0.24-0.31-0.41-0.47c-0.17-0.16-0.35-0.31-0.56-0.44s-0.43-0.24-0.68-0.33c-0.25-0.09-0.51-0.13-0.79-0.13
		c-0.38,0-0.73,0.07-1.06,0.21c-0.32,0.14-0.61,0.34-0.84,0.59c-0.24,0.25-0.42,0.54-0.56,0.87s-0.2,0.69-0.2,1.07
		c0,0.38,0.07,0.74,0.2,1.07s0.32,0.63,0.56,0.87c0.24,0.25,0.52,0.44,0.84,0.59c0.32,0.14,0.68,0.21,1.06,0.21
		c0.28,0,0.54-0.04,0.79-0.12c0.25-0.08,0.47-0.19,0.68-0.31c0.21-0.13,0.39-0.28,0.56-0.44s0.3-0.33,0.41-0.49V11.35z"/>
	<path d="M109.88,7.27h1.03v1.87h1.43v0.97h-1.43v3.79c0,0.52,0.1,0.89,0.29,1.1c0.2,0.21,0.48,0.31,0.85,0.31h0.29v0.97h-0.29
		c-0.67,0-1.2-0.18-1.59-0.54c-0.39-0.36-0.59-0.95-0.59-1.78v-3.86h-1V9.15h1V7.27z"/>
	<path d="M113.86,6.28h1.03v1.17h-1.03V6.28z M113.86,9.15h1.03v7.16h-1.03V9.15z"/>
	<path d="M116.4,12.72c0-0.52,0.1-1,0.29-1.45c0.2-0.45,0.46-0.85,0.79-1.18s0.73-0.6,1.18-0.79c0.45-0.2,0.94-0.29,1.45-0.29
		c0.52,0,1,0.1,1.45,0.29c0.45,0.2,0.85,0.46,1.18,0.79s0.6,0.73,0.79,1.18c0.2,0.45,0.29,0.94,0.29,1.45c0,0.52-0.1,1-0.29,1.45
		c-0.2,0.45-0.46,0.85-0.79,1.18c-0.33,0.33-0.73,0.6-1.18,0.79c-0.45,0.2-0.94,0.29-1.45,0.29c-0.52,0-1-0.1-1.45-0.29
		c-0.45-0.2-0.85-0.46-1.18-0.79c-0.33-0.33-0.6-0.73-0.79-1.18C116.5,13.72,116.4,13.24,116.4,12.72z M120.13,15.43
		c0.38,0,0.73-0.07,1.05-0.21s0.6-0.33,0.84-0.57c0.24-0.24,0.42-0.53,0.56-0.86s0.2-0.68,0.2-1.07c0-0.38-0.07-0.74-0.2-1.07
		s-0.32-0.62-0.56-0.86c-0.24-0.24-0.52-0.43-0.84-0.57s-0.67-0.21-1.05-0.21c-0.38,0-0.73,0.07-1.06,0.21
		c-0.32,0.14-0.6,0.33-0.84,0.57c-0.23,0.24-0.42,0.53-0.55,0.86c-0.13,0.33-0.2,0.69-0.2,1.07c0,0.38,0.07,0.74,0.2,1.07
		c0.13,0.33,0.32,0.62,0.55,0.86s0.51,0.43,0.84,0.57C119.39,15.36,119.74,15.43,120.13,15.43z"/>
	<path d="M125.21,9.15h1.03v0.93c0.29-0.34,0.64-0.61,1.07-0.79C127.74,9.1,128.15,9,128.56,9c0.94,0,1.67,0.25,2.21,0.76
		s0.81,1.3,0.81,2.38v4.17h-1.04v-3.96c0-0.82-0.18-1.41-0.53-1.77s-0.86-0.54-1.52-0.54c-0.23,0-0.46,0.04-0.69,0.12
		s-0.44,0.19-0.64,0.31c-0.2,0.13-0.38,0.27-0.54,0.42s-0.29,0.31-0.37,0.46v4.95h-1.03V9.15z"/>
	<path d="M136.86,6.28h3.48c0.5,0,0.94,0.08,1.34,0.23c0.4,0.15,0.73,0.36,1,0.62c0.27,0.26,0.48,0.57,0.63,0.92
		c0.15,0.35,0.22,0.73,0.22,1.13c0,0.37-0.06,0.72-0.19,1.05s-0.31,0.62-0.54,0.87c-0.24,0.25-0.53,0.46-0.87,0.63
		c-0.34,0.17-0.72,0.27-1.15,0.32l2.89,4.24h-1.3l-2.86-4.22h-1.57v4.22h-1.07V6.28z M140.26,11.08c0.35,0,0.67-0.05,0.94-0.15
		s0.51-0.24,0.69-0.41c0.18-0.17,0.32-0.37,0.42-0.6c0.1-0.23,0.14-0.47,0.14-0.73c0-0.26-0.05-0.5-0.14-0.74
		c-0.1-0.23-0.23-0.44-0.42-0.61c-0.18-0.17-0.41-0.31-0.69-0.41s-0.59-0.15-0.94-0.15h-2.33v3.79H140.26z"/>
	<path d="M151.66,14.44c-0.15,0.3-0.35,0.57-0.59,0.82c-0.24,0.25-0.5,0.46-0.79,0.64c-0.29,0.18-0.61,0.31-0.94,0.41
		c-0.34,0.1-0.69,0.14-1.05,0.14c-0.52,0-0.99-0.1-1.44-0.29c-0.44-0.2-0.83-0.46-1.15-0.79c-0.32-0.33-0.58-0.73-0.77-1.18
		s-0.28-0.94-0.28-1.45c0-0.52,0.09-1,0.28-1.45s0.44-0.85,0.77-1.18c0.32-0.33,0.71-0.6,1.15-0.79c0.44-0.2,0.92-0.29,1.44-0.29
		c0.55,0,1.06,0.1,1.52,0.3c0.46,0.2,0.85,0.48,1.17,0.84c0.32,0.36,0.58,0.8,0.76,1.32c0.18,0.52,0.27,1.1,0.27,1.74h-6.26
		c0.06,0.32,0.16,0.62,0.3,0.89s0.32,0.51,0.54,0.71c0.21,0.2,0.47,0.36,0.75,0.47c0.29,0.11,0.6,0.17,0.94,0.17
		c0.44,0,0.85-0.09,1.22-0.27c0.38-0.18,0.69-0.43,0.94-0.74H151.66z M150.86,12.24c-0.03-0.31-0.12-0.61-0.27-0.89
		s-0.34-0.52-0.56-0.72c-0.23-0.2-0.49-0.36-0.79-0.47c-0.3-0.11-0.62-0.17-0.95-0.17c-0.34,0-0.66,0.06-0.94,0.17
		c-0.29,0.11-0.54,0.27-0.75,0.47c-0.21,0.2-0.39,0.44-0.54,0.72s-0.24,0.57-0.3,0.89H150.86z"/>
	<path d="M153.93,14.44c0.02,0.33,0.15,0.59,0.38,0.77c0.23,0.18,0.53,0.27,0.89,0.27c0.4,0,0.72-0.1,0.95-0.3
		c0.23-0.2,0.35-0.5,0.35-0.9c0-0.16-0.04-0.3-0.11-0.42c-0.07-0.11-0.17-0.21-0.29-0.3c-0.12-0.09-0.26-0.16-0.42-0.23
		c-0.16-0.07-0.32-0.13-0.49-0.2c-0.24-0.09-0.48-0.18-0.72-0.28c-0.24-0.1-0.47-0.23-0.67-0.38c-0.2-0.15-0.36-0.34-0.49-0.57
		s-0.19-0.52-0.19-0.86c0-0.31,0.05-0.6,0.16-0.85s0.25-0.47,0.44-0.64s0.42-0.31,0.67-0.4c0.26-0.1,0.54-0.14,0.86-0.14
		c0.63,0,1.13,0.17,1.5,0.5c0.37,0.33,0.57,0.79,0.61,1.36h-1.03c-0.03-0.25-0.13-0.46-0.31-0.63c-0.18-0.17-0.43-0.26-0.76-0.26
		c-0.33,0-0.6,0.09-0.79,0.28s-0.29,0.45-0.29,0.78c0,0.17,0.04,0.32,0.12,0.44c0.08,0.12,0.19,0.22,0.33,0.31
		c0.14,0.09,0.3,0.17,0.47,0.24c0.18,0.07,0.36,0.14,0.55,0.21c0.22,0.09,0.44,0.18,0.67,0.28c0.22,0.1,0.43,0.22,0.61,0.37
		c0.18,0.15,0.33,0.33,0.44,0.56c0.11,0.22,0.17,0.5,0.17,0.84c0,0.69-0.22,1.22-0.67,1.6c-0.44,0.38-1.01,0.57-1.7,0.57
		c-0.66,0-1.2-0.18-1.62-0.53c-0.42-0.35-0.65-0.84-0.7-1.47H153.93z"/>
	<path d="M165.66,14.44c-0.15,0.3-0.35,0.57-0.59,0.82c-0.24,0.25-0.5,0.46-0.79,0.64c-0.29,0.18-0.61,0.31-0.94,0.41
		c-0.34,0.1-0.69,0.14-1.05,0.14c-0.52,0-0.99-0.1-1.44-0.29c-0.44-0.2-0.83-0.46-1.15-0.79c-0.32-0.33-0.58-0.73-0.77-1.18
		s-0.28-0.94-0.28-1.45c0-0.52,0.09-1,0.28-1.45s0.44-0.85,0.77-1.18c0.32-0.33,0.71-0.6,1.15-0.79c0.44-0.2,0.92-0.29,1.44-0.29
		c0.55,0,1.06,0.1,1.52,0.3c0.46,0.2,0.85,0.48,1.17,0.84c0.32,0.36,0.58,0.8,0.76,1.32c0.18,0.52,0.27,1.1,0.27,1.74h-6.26
		c0.06,0.32,0.16,0.62,0.3,0.89s0.32,0.51,0.54,0.71c0.21,0.2,0.47,0.36,0.75,0.47c0.29,0.11,0.6,0.17,0.94,0.17
		c0.44,0,0.85-0.09,1.22-0.27c0.38-0.18,0.69-0.43,0.94-0.74H165.66z M164.86,12.24c-0.03-0.31-0.12-0.61-0.27-0.89
		s-0.34-0.52-0.56-0.72c-0.23-0.2-0.49-0.36-0.79-0.47c-0.3-0.11-0.62-0.17-0.95-0.17c-0.34,0-0.66,0.06-0.94,0.17
		c-0.29,0.11-0.54,0.27-0.75,0.47c-0.21,0.2-0.39,0.44-0.54,0.72s-0.24,0.57-0.3,0.89H164.86z"/>
	<path d="M173.1,15.37c-0.67,0.72-1.48,1.07-2.43,1.07c-0.52,0-1-0.1-1.45-0.29c-0.45-0.2-0.85-0.46-1.18-0.79
		c-0.33-0.33-0.6-0.73-0.79-1.18c-0.2-0.45-0.29-0.94-0.29-1.45c0-0.52,0.1-1,0.29-1.45c0.2-0.45,0.46-0.85,0.79-1.18
		s0.73-0.6,1.18-0.79c0.45-0.2,0.94-0.29,1.45-0.29c0.95,0,1.77,0.36,2.43,1.07V9.15h1.03v7.16h-1.03V15.37z M173.1,11.35
		c-0.1-0.15-0.24-0.31-0.41-0.47c-0.17-0.16-0.35-0.31-0.56-0.44s-0.43-0.24-0.68-0.33c-0.25-0.09-0.51-0.13-0.79-0.13
		c-0.38,0-0.73,0.07-1.06,0.21c-0.32,0.14-0.61,0.34-0.84,0.59c-0.24,0.25-0.42,0.54-0.56,0.87s-0.2,0.69-0.2,1.07
		c0,0.38,0.07,0.74,0.2,1.07s0.32,0.63,0.56,0.87c0.24,0.25,0.52,0.44,0.84,0.59c0.32,0.14,0.68,0.21,1.06,0.21
		c0.28,0,0.54-0.04,0.79-0.12c0.25-0.08,0.47-0.19,0.68-0.31c0.21-0.13,0.39-0.28,0.56-0.44s0.3-0.33,0.41-0.49V11.35z"/>
	<path d="M175.99,9.15h1.03v1.07c0.19-0.31,0.43-0.56,0.73-0.77s0.66-0.31,1.09-0.31h0.29v1.03h-0.29c-0.43,0-0.8,0.13-1.1,0.39
		c-0.31,0.26-0.54,0.62-0.72,1.07v4.67h-1.03V9.15z"/>
	<path d="M186.3,14.44c-0.28,0.6-0.69,1.09-1.25,1.45c-0.55,0.37-1.19,0.55-1.92,0.55c-0.52,0-1-0.1-1.45-0.29
		c-0.45-0.2-0.85-0.46-1.18-0.79c-0.33-0.33-0.6-0.73-0.79-1.18c-0.2-0.45-0.29-0.94-0.29-1.45c0-0.52,0.1-1,0.29-1.45
		c0.2-0.45,0.46-0.85,0.79-1.18s0.73-0.6,1.18-0.79c0.45-0.2,0.94-0.29,1.45-0.29c0.73,0,1.36,0.18,1.92,0.55
		c0.55,0.37,0.97,0.85,1.25,1.45h-1.25c-0.22-0.31-0.48-0.56-0.79-0.73c-0.31-0.17-0.69-0.26-1.12-0.26c-0.38,0-0.73,0.07-1.06,0.21
		c-0.32,0.14-0.6,0.33-0.84,0.57c-0.23,0.24-0.42,0.53-0.55,0.86c-0.13,0.33-0.2,0.69-0.2,1.07c0,0.38,0.07,0.74,0.2,1.07
		c0.13,0.33,0.32,0.62,0.55,0.86s0.51,0.43,0.84,0.57c0.32,0.14,0.68,0.21,1.06,0.21c0.44,0,0.82-0.09,1.14-0.26
		s0.59-0.42,0.81-0.73H186.3z"/>
	<path d="M187.49,6.28h1.03v3.79c0.29-0.34,0.64-0.61,1.07-0.79C190.02,9.1,190.43,9,190.84,9c0.94,0,1.67,0.25,2.2,0.76
		c0.53,0.51,0.8,1.3,0.8,2.38v4.17h-1.04v-3.96c0-0.82-0.17-1.41-0.52-1.77c-0.35-0.36-0.85-0.54-1.51-0.54
		c-0.23,0-0.46,0.04-0.69,0.12s-0.44,0.19-0.64,0.31c-0.2,0.13-0.38,0.27-0.54,0.42s-0.29,0.31-0.37,0.46v4.95h-1.03V6.28z"/>
</g>
</svg>
